<?xml version="1.0" encoding="UTF-8" standalone="no"?>
<svg
   xmlns:dc="http://purl.org/dc/elements/1.1/"
   xmlns:cc="http://creativecommons.org/ns#"
   xmlns:rdf="http://www.w3.org/1999/02/22-rdf-syntax-ns#"
   xmlns:svg="http://www.w3.org/2000/svg"
   xmlns="http://www.w3.org/2000/svg"
   viewBox="0 0 864 239"
   height="239"
   width="864"
   id="svg2"
   version="1.1">
  <metadata
     id="metadata8">
    <rdf:RDF>
      <cc:Work
         rdf:about="">
        <dc:format>image/svg+xml</dc:format>
        <dc:type
           rdf:resource="http://purl.org/dc/dcmitype/StillImage" />
        <dc:title></dc:title>
      </cc:Work>
    </rdf:RDF>
  </metadata>
  <defs
     id="defs6" />
  <g
     transform="translate(-2.9117406,1.1320758)"
     id="g12">
    <path
       id="path60"
       d="m 216,196.62244 c 0,-0.20765 0.7875,-0.99515 1.75,-1.75 1.58606,-1.24387 1.62143,-1.2085 0.37756,0.37756 C 216.82119,196.91575 216,197.44548 216,196.62244 Z M 262,86.622445 c 0,-0.207656 0.7875,-0.995156 1.75,-1.75 1.58606,-1.243871 1.62143,-1.208501 0.37756,0.377555 C 262.82119,86.915748 262,87.445479 262,86.622445 Z m -166,-44 c 0,-0.207656 0.7875,-0.995156 1.75,-1.75 C 99.336056,39.628574 99.371426,39.663944 98.127555,41.25 96.821186,42.915748 96,43.445479 96,42.622445 Z"
       style="fill:#faf6f3" />
    <path
       id="path58"
       d="m 107.87244,164.25 c -1.24387,-1.58606 -1.2085,-1.62143 0.37756,-0.37756 0.9625,0.75485 1.75,1.54235 1.75,1.75 0,0.82304 -0.82119,0.29331 -2.12756,-1.37244 z M 101,24.622445 c 0,-0.207656 0.7875,-0.995156 1.75,-1.75 1.58606,-1.243871 1.62143,-1.208501 0.37756,0.377555 C 101.82119,24.915748 101,25.445479 101,24.622445 Z"
       style="fill:#efefef" />
    <path
       id="path56"
       d="m 222,190.5 c 1.86578,-1.925 3.61733,-3.5 3.89233,-3.5 0.275,0 -1.02655,1.575 -2.89233,3.5 -1.86578,1.925 -3.61733,3.5 -3.89233,3.5 -0.275,0 1.02655,-1.575 2.89233,-3.5 z"
       style="fill:#f3e4db" />
    <path
       id="path54"
       d="m 196.27236,147 c 0,-2.475 0.19502,-3.4875 0.43337,-2.25 0.23836,1.2375 0.23836,3.2625 0,4.5 -0.23835,1.2375 -0.43337,0.225 -0.43337,-2.25 z M 746.75,148.25493 c 5.0875,-0.18149 13.4125,-0.18149 18.5,0 5.0875,0.18149 0.925,0.32999 -9.25,0.32999 -10.175,0 -14.3375,-0.1485 -9.25,-0.32999 z m -85.46983,-0.9912 c 2.6291,-0.20668 6.6791,-0.20418 9,0.006 2.32091,0.20972 0.16983,0.37882 -4.78017,0.37577 -4.95,-0.003 -6.84892,-0.17464 -4.21983,-0.38131 z m 136.44753,-0.98546 c 1.77523,-0.22091 4.92523,-0.22454 7,-0.008 2.07476,0.21648 0.6223,0.39722 -3.2277,0.40166 -3.85,0.004 -5.54754,-0.17268 -3.7723,-0.39359 z M 675.75,145.25601 c 4.5375,-0.18529 11.9625,-0.18529 16.5,0 4.5375,0.1853 0.825,0.3369 -8.25,0.3369 -9.075,0 -12.7875,-0.1516 -8.25,-0.3369 z M 109.15789,126 c 0,-1.375 0.22698,-1.9375 0.50439,-1.25 0.27741,0.6875 0.27741,1.8125 0,2.5 -0.27741,0.6875 -0.50439,0.125 -0.50439,-1.25 z m 86.92106,0.41667 c 0.048,-1.16495 0.28494,-1.4019 0.60416,-0.60417 0.28887,0.72187 0.25335,1.58438 -0.0789,1.91667 -0.3323,0.33229 -0.56864,-0.25834 -0.52522,-1.3125 z M 52.194949,114.5 c 0.02038,-1.65 0.244498,-2.20394 0.498042,-1.23097 0.253543,0.97297 0.236869,2.32297 -0.03705,3 C 52.382014,116.94606 52.174569,116.15 52.194949,114.5 Z m 205.000001,-3 c 0.0204,-1.65 0.2445,-2.20394 0.49804,-1.23097 0.25354,0.97297 0.23687,2.32297 -0.0371,3 -0.27393,0.67703 -0.48137,-0.11903 -0.46099,-1.76903 z m -0.0371,-10.5 c 0,-1.375 0.22698,-1.9375 0.50439,-1.25 0.27741,0.6875 0.27741,1.8125 0,2.5 -0.27741,0.6875 -0.50439,0.125 -0.50439,-1.25 z M 52.8125,93.316886 c 0.721875,-0.288871 1.584375,-0.253344 1.916667,0.07895 0.332291,0.332292 -0.258334,0.568641 -1.3125,0.52522 -1.164943,-0.04798 -1.4019,-0.284941 -0.604167,-0.604167 z M 86.078947,68.416667 c 0.04798,-1.164943 0.284941,-1.4019 0.604167,-0.604167 0.288871,0.721875 0.253344,1.584375 -0.07895,1.916667 -0.332292,0.332291 -0.568641,-0.258334 -0.52522,-1.3125 z M 129.75,42.337719 c 0.6875,-0.277412 1.8125,-0.277412 2.5,0 0.6875,0.277413 0.125,0.504386 -1.25,0.504386 -1.375,0 -1.9375,-0.226973 -1.25,-0.504386 z m -22,-4 c 0.6875,-0.277412 1.8125,-0.277412 2.5,0 0.6875,0.277413 0.125,0.504386 -1.25,0.504386 -1.375,0 -1.9375,-0.226973 -1.25,-0.504386 z"
       style="fill:#f0ddcf" />
    <path
       id="path52"
       d="m 48,189.5 c -2.429029,-2.475 -4.191416,-4.5 -3.916416,-4.5 0.275,0 2.487387,2.025 4.916416,4.5 2.429029,2.475 4.191416,4.5 3.916416,4.5 -0.275,0 -2.487387,-2.025 -4.916416,-4.5 z M 168.87244,34.25 C 167.62857,32.663944 167.66394,32.628574 169.25,33.872445 170.91575,35.178814 171.44548,36 170.62244,36 c -0.20765,0 -0.99515,-0.7875 -1.75,-1.75 z"
       style="fill:#cfcfcf" />
    <path
       id="path50"
       d="m 288.26903,178.30701 c 0.97297,-0.25354 2.32297,-0.23687 3,0.0371 0.67703,0.27393 -0.11903,0.48137 -1.76903,0.46099 -1.65,-0.0204 -2.20394,-0.2445 -1.23097,-0.49804 z m 42.19384,-0.54318 c -0.28032,-0.7305 -0.37584,-9.6387 -0.21226,-19.796 l 0.2974,-18.46783 0.226,19.25 L 331,178 h 6.43358 c 6.08797,0 6.45712,-0.13496 6.87181,-2.51237 0.40136,-2.30098 0.42799,-2.27995 0.31642,0.25 -0.11911,2.70114 -0.27173,2.76893 -6.88554,3.05837 -4.91825,0.21524 -6.9028,-0.0664 -7.2734,-1.03217 z M 379.75,178.2766 c 1.7875,-0.22182 4.7125,-0.22182 6.5,0 1.7875,0.22183 0.325,0.40333 -3.25,0.40333 -3.575,0 -5.0375,-0.1815 -3.25,-0.40333 z m 44.5,0.007 c 1.5125,-0.22913 3.9875,-0.22913 5.5,0 1.5125,0.22912 0.275,0.41659 -2.75,0.41659 -3.025,0 -4.2625,-0.18747 -2.75,-0.41659 z m 48.4777,-0.005 c 1.77523,-0.22091 4.92523,-0.22454 7,-0.008 2.07476,0.21648 0.6223,0.39722 -3.2277,0.40166 -3.85,0.004 -5.54754,-0.17268 -3.7723,-0.39359 z m 44.54133,0.0287 c 0.97297,-0.25354 2.32297,-0.23687 3,0.0371 0.67703,0.27393 -0.11903,0.48137 -1.76903,0.46099 -1.65,-0.0204 -2.20394,-0.2445 -1.23097,-0.49804 z M 527.75,178.338 c 0.6875,-0.27741 1.8125,-0.27741 2.5,0 0.6875,0.27741 0.125,0.50439 -1.25,0.50439 -1.375,0 -1.9375,-0.22698 -1.25,-0.50439 z m 164.0625,-1.02083 c 0.72187,-0.28887 1.58438,-0.25335 1.91667,0.0789 0.33229,0.33229 -0.25834,0.56864 -1.3125,0.52522 -1.16495,-0.048 -1.4019,-0.28494 -0.60417,-0.60416 z M 569.07895,170.3167 c -0.0574,-1.58804 -0.82897,-2.29719 -2.82895,-2.60017 l -2.75,-0.41659 2.78138,-0.14983 c 2.83935,-0.15295 4.35641,1.66613 3.3919,4.06718 -0.28346,0.70564 -0.55091,0.30038 -0.59433,-0.90059 z m 59.8722,-5.04036 c -0.27447,-2.32317 -0.11798,-3.84289 0.34775,-3.37716 0.46573,0.46573 0.6903,2.36651 0.49903,4.22394 -0.33919,3.29402 -0.36004,3.27318 -0.84678,-0.84678 z m 35.22356,-0.94273 c -0.10321,-3.05213 -0.68629,-5.37309 -1.42471,-5.67105 -0.97906,-0.39506 -0.97226,-0.5215 0.0314,-0.58333 1.81456,-0.1118 2.40485,2.01735 1.95642,7.05665 l -0.38839,4.3644 -0.1747,-5.16667 z M 708.232,166 c 0,-1.925 0.2058,-2.7125 0.45733,-1.75 0.25152,0.9625 0.25152,2.5375 0,3.5 -0.25153,0.9625 -0.45733,0.175 -0.45733,-1.75 z m -578.96825,0.28242 c 1.52006,-0.22986 3.77006,-0.22371 5,0.0136 1.22994,0.23736 -0.0137,0.42542 -2.76375,0.41792 -2.75,-0.008 -3.75631,-0.20172 -2.23625,-0.43157 z m 476.49791,0.0103 c 1.24391,-0.23919 3.04391,-0.23011 4,0.0202 0.95609,0.25029 -0.0617,0.446 -2.26166,0.4349 -2.2,-0.0111 -2.98225,-0.21589 -1.73834,-0.45508 z m -1.01166,-2.955 c 0.6875,-0.27741 1.8125,-0.27741 2.5,0 0.6875,0.27741 0.125,0.50439 -1.25,0.50439 -1.375,0 -1.9375,-0.22698 -1.25,-0.50439 z m 29.0625,-2.02083 c 0.72187,-0.28887 1.58438,-0.25335 1.91667,0.0789 0.33229,0.33229 -0.25834,0.56864 -1.3125,0.52522 -1.16495,-0.048 -1.4019,-0.28494 -0.60417,-0.60416 z M 298.15789,158 c 0,-1.375 0.22698,-1.9375 0.50439,-1.25 0.27741,0.6875 0.27741,1.8125 0,2.5 -0.27741,0.6875 -0.50439,0.125 -0.50439,-1.25 z m 89,-1 c 0,-1.375 0.22698,-1.9375 0.50439,-1.25 0.27741,0.6875 0.27741,1.8125 0,2.5 -0.27741,0.6875 -0.50439,0.125 -0.50439,-1.25 z m 241.4064,0.70687 c 0.37553,-0.98622 0.93469,-1.54122 1.24258,-1.23333 0.30789,0.30789 6.4e-4,1.11479 -0.68278,1.79313 -0.98762,0.98026 -1.10248,0.8654 -0.5598,-0.5598 z m 5.24821,0.61002 c 0.72187,-0.28887 1.58438,-0.25335 1.91667,0.0789 0.33229,0.33229 -0.25834,0.56864 -1.3125,0.52522 -1.16495,-0.048 -1.4019,-0.28494 -0.60417,-0.60416 z m -112,-3 c 0.72187,-0.28887 1.58438,-0.25335 1.91667,0.0789 0.33229,0.33229 -0.25834,0.56864 -1.3125,0.52522 -1.16495,-0.048 -1.4019,-0.28494 -0.60417,-0.60416 z m 53.9375,-6.97917 c 0.6875,-0.27741 1.8125,-0.27741 2.5,0 0.6875,0.27741 0.125,0.50439 -1.25,0.50439 -1.375,0 -1.9375,-0.22698 -1.25,-0.50439 z m -12.67105,-1.92105 c 0.048,-1.16495 0.28494,-1.4019 0.60416,-0.60417 0.28887,0.72187 0.25335,1.58437 -0.0789,1.91667 -0.33229,0.33229 -0.56864,-0.25834 -0.52522,-1.3125 z M 344.15789,142 c 0,-1.375 0.22698,-1.9375 0.50439,-1.25 0.27741,0.6875 0.27741,1.8125 0,2.5 -0.27741,0.6875 -0.50439,0.125 -0.50439,-1.25 z m -230.88886,-5.69299 c 0.97297,-0.25354 2.32297,-0.23687 3,0.0371 0.67703,0.27393 -0.11903,0.48137 -1.76903,0.46099 -1.65,-0.0204 -2.20394,-0.2445 -1.23097,-0.49804 z M 45.078947,123.41667 c 0.04798,-1.16495 0.284941,-1.4019 0.604167,-0.60417 0.288871,0.72187 0.253344,1.58437 -0.07895,1.91667 -0.332292,0.33229 -0.568641,-0.25834 -0.52522,-1.3125 z M 328.46203,78 c 0,-26.125 0.12919,-36.8125 0.28709,-23.75 0.15789,13.0625 0.15789,34.4375 0,47.5 -0.1579,13.0625 -0.28709,2.375 -0.28709,-23.75 z m 87.95655,28 c 0,-10.725 0.14711,-15.1125 0.32692,-9.75 0.17981,5.3625 0.17981,14.1375 0,19.5 -0.17981,5.3625 -0.32692,0.975 -0.32692,-9.75 z m 87.04345,-28 c 0,-26.125 0.12919,-36.8125 0.28709,-23.75 0.15789,13.0625 0.15789,34.4375 0,47.5 -0.1579,13.0625 -0.28709,2.375 -0.28709,-23.75 z m 98.99645,4.5 c 2.3e-4,-23.65 0.13103,-33.182057 0.29066,-21.18235 0.15964,11.999708 0.15944,31.349708 -4.3e-4,43 C 602.58885,115.96794 602.45824,106.15 602.45848,82.5 Z M 632.46203,78 c 0,-26.125 0.12919,-36.8125 0.28709,-23.75 0.15789,13.0625 0.15789,34.4375 0,47.5 -0.1579,13.0625 -0.28709,2.375 -0.28709,-23.75 z m -100.00784,0 c 0,-21.175 0.13253,-29.8375 0.2945,-19.25 0.16197,10.5875 0.16197,27.9125 0,38.5 -0.16197,10.5875 -0.2945,1.925 -0.2945,-19.25 z m 258.74076,35.5 c 0.0204,-1.65 0.2445,-2.20394 0.49804,-1.23097 0.25354,0.97297 0.23687,2.32297 -0.0371,3 -0.27393,0.67703 -0.48137,-0.11903 -0.46099,-1.76903 z m 10.20499,-12 c 10e-4,-8.25 0.15629,-11.491932 0.34419,-7.204294 0.1879,4.287638 0.18676,11.037634 -0.003,15.000004 -0.1893,3.96236 -0.34304,0.45429 -0.34164,-7.79571 z m -554.09007,2 c 0.006,-3.3 0.1923,-4.529441 0.41486,-2.73209 0.22256,1.79735 0.21797,4.49735 -0.0102,6 -0.22818,1.50265 -0.41027,0.0321 -0.40466,-3.26791 z m 534.41783,0.77827 c 1.77523,-0.22091 4.92523,-0.22454 7,-0.008 2.07476,0.21648 0.6223,0.39722 -3.2277,0.40166 -3.85,0.004 -5.54754,-0.17268 -3.7723,-0.39359 z M 716.45888,86.933469 c -0.36253,-0.586592 -0.44468,-1.281 -0.18255,-1.543128 0.26212,-0.262129 0.74306,0.21781 1.06875,1.066531 0.67618,1.762107 0.0998,2.072058 -0.8862,0.476597 z M 349.9916,78.204745 350.48319,69.5 l 0.30326,7.905143 c 0.1668,4.347829 -0.0544,8.264964 -0.49159,8.704745 -0.43717,0.439781 -0.57364,-3.117533 -0.30326,-7.905143 z M 584.43125,54.5 c 6.6e-4,-13.2 0.14295,-18.461693 0.31621,-11.692651 0.17326,6.769041 0.17273,17.569041 -0.001,24 C 584.57236,73.238307 584.4306,67.7 584.43125,54.5 Z M 791.40249,55 c 0,-8.525 0.15337,-12.0125 0.34082,-7.75 0.18745,4.2625 0.18745,11.2375 0,15.5 -0.18745,4.2625 -0.34082,0.775 -0.34082,-7.75 z M 416.39994,54.5 c 10e-4,-8.25 0.15629,-11.491932 0.34419,-7.204294 0.1879,4.287638 0.18676,11.037638 -0.003,15 C 416.55228,66.258068 416.39854,62.75 416.39994,54.5 Z M 803.7277,51.278268 c 1.77523,-0.220912 4.92523,-0.224542 7,-0.0081 2.07476,0.216475 0.6223,0.397221 -3.2277,0.401658 -3.85,0.0044 -5.54754,-0.17268 -3.7723,-0.393592 z M 122.25,45.310674 c 0.9625,-0.251527 2.5375,-0.251527 3.5,0 0.9625,0.251528 0.175,0.457323 -1.75,0.457323 -1.925,0 -2.7125,-0.205795 -1.75,-0.457323 z M 801.15789,42 c 0,-1.375 0.22698,-1.9375 0.50439,-1.25 0.27741,0.6875 0.27741,1.8125 0,2.5 -0.27741,0.6875 -0.50439,0.125 -0.50439,-1.25 z M 47.75,34.337719 c 0.6875,-0.277412 1.8125,-0.277412 2.5,0 0.6875,0.277413 0.125,0.504386 -1.25,0.504386 -1.375,0 -1.9375,-0.226973 -1.25,-0.504386 z"
       style="fill:#bfbfbf" />
    <path
       id="path48"
       d="m 132.8125,171.31689 c 0.72187,-0.28887 1.58437,-0.25335 1.91667,0.0789 0.33229,0.33229 -0.25834,0.56864 -1.3125,0.52522 -1.16495,-0.048 -1.4019,-0.28494 -0.60417,-0.60416 z M 778.75,148.26779 c 2.3375,-0.21053 6.1625,-0.21053 8.5,0 2.3375,0.21054 0.425,0.3828 -4.25,0.3828 -4.675,0 -6.5875,-0.17226 -4.25,-0.3828 z m 66.0625,0.0491 c 0.72187,-0.28887 1.58438,-0.25335 1.91667,0.0789 0.33229,0.33229 -0.25834,0.56864 -1.3125,0.52522 -1.16495,-0.048 -1.4019,-0.28494 -0.60417,-0.60416 z m -163.01502,-1.06164 c 4.56362,-0.18572 11.76362,-0.18468 16,0.002 4.23639,0.18698 0.50252,0.33893 -8.29748,0.33766 -8.8,-0.001 -12.26613,-0.15425 -7.70252,-0.33996 z M 784.25,146.27153 c 2.0625,-0.21574 5.4375,-0.21574 7.5,0 2.0625,0.21575 0.375,0.39226 -3.75,0.39226 -4.125,0 -5.8125,-0.17651 -3.75,-0.39226 z m -156.05903,-1.0183 c 6.98004,-0.17166 18.68004,-0.17212 26,-0.001 7.31997,0.17109 1.60903,0.31154 -12.69097,0.31211 -14.3,5.7e-4 -20.28906,-0.13941 -13.30903,-0.31107 z M 76.232003,142 c 0,-1.925 0.205795,-2.7125 0.457323,-1.75 0.251527,0.9625 0.251527,2.5375 0,3.5 -0.251528,0.9625 -0.457323,0.175 -0.457323,-1.75 z m 120.096137,-6.5 c 0.004,-3.85 0.18518,-5.30246 0.40166,-3.2277 0.21647,2.07477 0.21284,5.22477 -0.008,7 -0.22091,1.77524 -0.39803,0.0777 -0.39359,-3.7723 z M 109.27236,133 c 0,-2.475 0.19502,-3.4875 0.43337,-2.25 0.23836,1.2375 0.23836,3.2625 0,4.5 -0.23835,1.2375 -0.43337,0.225 -0.43337,-2.25 z M 77.078947,122.41667 c 0.04798,-1.16495 0.284941,-1.4019 0.604167,-0.60417 0.288871,0.72187 0.253344,1.58437 -0.07895,1.91667 -0.332292,0.33229 -0.568641,-0.25834 -0.52522,-1.3125 z M 52.194949,108.5 c 0.02038,-1.65 0.244498,-2.20394 0.498042,-1.23097 0.253543,0.97297 0.236869,2.32297 -0.03705,3 C 52.382014,110.94606 52.174569,110.15 52.194949,108.5 Z M 257.15789,106 c 0,-1.375 0.22698,-1.9375 0.50439,-1.25 0.27741,0.6875 0.27741,1.8125 0,2.5 -0.27741,0.6875 -0.50439,0.125 -0.50439,-1.25 z M 22.078947,103.41667 c 0.04798,-1.16495 0.284941,-1.4019 0.604167,-0.60417 0.288871,0.72187 0.253344,1.58437 -0.07895,1.91667 -0.332292,0.33229 -0.568641,-0.25834 -0.52522,-1.3125 z m 0,-5.000003 c 0.04798,-1.164943 0.284941,-1.4019 0.604167,-0.604167 0.288871,0.721875 0.253344,1.584375 -0.07895,1.916667 -0.332292,0.332293 -0.568641,-0.258334 -0.52522,-1.3125 z M 47.75,75.337719 c 0.6875,-0.277412 1.8125,-0.277412 2.5,0 0.6875,0.277413 0.125,0.504386 -1.25,0.504386 -1.375,0 -1.9375,-0.226973 -1.25,-0.504386 z m 219.32895,-0.921052 c 0.048,-1.164943 0.28494,-1.4019 0.60416,-0.604167 0.28887,0.721875 0.25335,1.584375 -0.0789,1.916667 -0.33229,0.332291 -0.56864,-0.258334 -0.52522,-1.3125 z M 125.26903,42.307009 c 0.97297,-0.253543 2.32297,-0.236869 3,0.03705 0.67703,0.273923 -0.11903,0.481368 -1.76903,0.460988 -1.65,-0.02038 -2.20394,-0.244498 -1.23097,-0.498042 z"
       style="fill:#e2ba9e" />
    <path
       id="path46"
       d="m 213.5,184 c 2.14824,-2.2 4.1309,-4 4.4059,-4 0.275,0 -1.25766,1.8 -3.4059,4 -2.14824,2.2 -4.1309,4 -4.4059,4 -0.275,0 1.25766,-1.8 3.4059,-4 z"
       style="fill:#9f9f9f" />
    <path
       id="path44"
       d="m 54.232003,166 c 0,-1.925 0.205795,-2.7125 0.457323,-1.75 0.251527,0.9625 0.251527,2.5375 0,3.5 -0.251528,0.9625 -0.457323,0.175 -0.457323,-1.75 z M 804.19097,148.25323 c 6.98004,-0.17166 18.68004,-0.17212 26,-0.001 7.31997,0.17109 1.60903,0.31154 -12.69097,0.31211 -14.3,5.7e-4 -20.28906,-0.13941 -13.30903,-0.31107 z M 709.25,147.27153 c 2.0625,-0.21574 5.4375,-0.21574 7.5,0 2.0625,0.21575 0.375,0.39226 -3.75,0.39226 -4.125,0 -5.8125,-0.17651 -3.75,-0.39226 z M 603,146 c 2.0235,-1.30769 12.3082,-1.30769 11.5,0 -0.33992,0.55 -3.40398,0.99311 -6.80902,0.98469 C 603.32478,146.97389 601.94212,146.68365 603,146 Z m 19.25,0.31067 c 0.9625,-0.25152 2.5375,-0.25152 3.5,0 0.9625,0.25153 0.175,0.45733 -1.75,0.45733 -1.925,0 -2.7125,-0.2058 -1.75,-0.45733 z m 140.53919,-0.0521 c 3.45905,-0.19583 8.85905,-0.19422 12,0.004 3.14094,0.19781 0.31081,0.35803 -6.28919,0.35606 -6.6,-0.002 -9.16987,-0.16382 -5.71081,-0.35965 z M 136.25,141.31067 c 0.9625,-0.25152 2.5375,-0.25152 3.5,0 0.9625,0.25153 0.175,0.45733 -1.75,0.45733 -1.925,0 -2.7125,-0.2058 -1.75,-0.45733 z M 76.286014,134.5 c 0.0075,-2.75 0.201713,-3.75631 0.431567,-2.23625 0.229855,1.52006 0.223712,3.77006 -0.01365,5 -0.237362,1.22994 -0.425424,-0.0137 -0.417917,-2.76375 z m -24.976145,-4 c 0.0056,-3.3 0.192301,-4.52944 0.414862,-2.73209 0.222562,1.79735 0.217969,4.49735 -0.0102,6 -0.228174,1.50265 -0.41027,0.0321 -0.404657,-3.26791 z m 44.962495,0.5 c 0,-2.475 0.195016,-3.4875 0.433369,-2.25 0.238353,1.2375 0.238353,3.2625 0,4.5 -0.238353,1.2375 -0.433369,0.225 -0.433369,-2.25 z m 11.806586,-14.58333 c 0.048,-1.16495 0.28494,-1.4019 0.60416,-0.60417 0.28887,0.72187 0.25335,1.58437 -0.0789,1.91667 -0.3323,0.33229 -0.56864,-0.25834 -0.52522,-1.3125 z m 148,-24.000003 c 0.048,-1.164943 0.28494,-1.4019 0.60416,-0.604167 0.28887,0.721875 0.25335,1.584375 -0.0789,1.916667 -0.33229,0.332291 -0.56864,-0.258334 -0.52522,-1.3125 z M 20.8125,65.316886 c 0.721875,-0.288871 1.584375,-0.253344 1.916667,0.07895 0.332291,0.332292 -0.258334,0.568641 -1.3125,0.52522 -1.164943,-0.04798 -1.4019,-0.284941 -0.604167,-0.604167 z M 85.232003,60 c 0,-1.925 0.205795,-2.7125 0.457323,-1.75 0.251527,0.9625 0.251527,2.5375 0,3.5 -0.251528,0.9625 -0.457323,0.175 -0.457323,-1.75 z M 161.25,30.310674 c 0.9625,-0.251527 2.5375,-0.251527 3.5,0 0.9625,0.251528 0.175,0.457323 -1.75,0.457323 -1.925,0 -2.7125,-0.205795 -1.75,-0.457323 z"
       style="fill:#d4976d" />
    <path
       id="path42"
       d="m 261,86.622445 c 0,-0.207656 0.7875,-0.995156 1.75,-1.75 1.58606,-1.243871 1.62143,-1.208501 0.37756,0.377555 C 261.82119,86.915748 261,87.445479 261,86.622445 Z m -165,-45 c 0,-0.207656 0.7875,-0.995156 1.75,-1.75 C 99.336056,38.628574 99.371426,38.663944 98.127555,40.25 96.821186,41.915748 96,42.445479 96,41.622445 Z"
       style="fill:#d18f62" />
    <path
       id="path40"
       d="m 221,190.5 c 1.86578,-1.925 3.61733,-3.5 3.89233,-3.5 0.275,0 -1.02655,1.575 -2.89233,3.5 -1.86578,1.925 -3.61733,3.5 -3.89233,3.5 -0.275,0 1.02655,-1.575 2.89233,-3.5 z M 93,44.622445 c 0,-0.207656 0.7875,-0.995156 1.75,-1.75 C 96.336056,41.628574 96.371426,41.663944 95.127555,43.25 93.821186,44.915748 93,45.445479 93,44.622445 Z"
       style="fill:#ca7e49" />
    <path
       id="path38"
       d="m 292.35496,169.5 c -0.003,-4.95 0.16605,-7.10108 0.37577,-4.78017 0.20972,2.3209 0.21222,6.3709 0.006,9 C 292.5296,176.34892 292.358,174.45 292.35496,169.5 Z M 421.41858,159 c 0,-10.725 0.14711,-15.1125 0.32692,-9.75 0.17981,5.3625 0.17981,14.1375 0,19.5 -0.17981,5.3625 -0.32692,0.975 -0.32692,-9.75 z m 61.77637,16.5 c 0.0204,-1.65 0.2445,-2.20394 0.49804,-1.23097 0.25354,0.97297 0.23687,2.32297 -0.0371,3 -0.27393,0.67703 -0.48137,-0.11903 -0.46099,-1.76903 z M 336.43161,166 c 0.0634,-6.02619 0.23352,-6.5097 2.33372,-6.63305 1.79601,-0.10549 1.85697,-0.0405 0.29423,0.31375 -1.64879,0.37375 -2.03038,1.45833 -2.33371,6.63305 l -0.36262,6.18625 0.0684,-6.5 z m 95.95375,-7 c 0,-6.875 0.15977,-9.6875 0.35504,-6.25 0.19527,3.4375 0.19527,9.0625 0,12.5 -0.19527,3.4375 -0.35504,0.625 -0.35504,-6.25 z m 130.69359,10.41667 c 0.048,-1.16495 0.28494,-1.4019 0.60416,-0.60417 0.28887,0.72187 0.25335,1.58437 -0.0789,1.91667 -0.33229,0.33229 -0.56864,-0.25834 -0.52522,-1.3125 z M 700.15789,167 c 0,-1.375 0.22698,-1.9375 0.50439,-1.25 0.27741,0.6875 0.27741,1.8125 0,2.5 -0.27741,0.6875 -0.50439,0.125 -0.50439,-1.25 z m -316.88886,-7.69299 c 0.97297,-0.25354 2.32297,-0.23687 3,0.0371 0.67703,0.27393 -0.11903,0.48137 -1.76903,0.46099 -1.65,-0.0204 -2.20394,-0.2445 -1.23097,-0.49804 z m 93.48097,0.0307 c 0.6875,-0.27741 1.8125,-0.27741 2.5,0 0.6875,0.27741 0.125,0.50439 -1.25,0.50439 -1.375,0 -1.9375,-0.22698 -1.25,-0.50439 z m 200.0625,-1.02083 c 0.72187,-0.28887 1.58438,-0.25335 1.91667,0.0789 0.33229,0.33229 -0.25834,0.56864 -1.3125,0.52522 -1.16495,-0.048 -1.4019,-0.28494 -0.60417,-0.60416 z M 292.40553,154.6144 c -0.29244,-0.76207 -0.39082,-3.34957 -0.21862,-5.75 0.2933,-4.08852 0.50273,-4.37029 3.31309,-4.45763 2.83046,-0.088 2.84459,-0.0702 0.25,0.31336 -2.56791,0.37966 -2.75,0.72907 -2.75,5.27681 0,4.5453 0.18346,4.89801 2.75,5.28681 l 2.75,0.41659 -2.78138,0.14983 c -1.56421,0.0843 -3.01407,-0.45653 -3.31309,-1.23577 z M 45.078947,152.41667 c 0.04798,-1.16495 0.284941,-1.4019 0.604167,-0.60417 0.288871,0.72187 0.253344,1.58437 -0.07895,1.91667 -0.332292,0.33229 -0.568641,-0.25834 -0.52522,-1.3125 z M 336.41832,149 l 0.0817,-4.5 3.75865,-0.10484 c 3.72395,-0.10388 3.72674,-0.10104 0.30246,0.30723 -3.25062,0.38757 -3.47905,0.66148 -3.84034,4.60485 l -0.38413,4.19276 0.0817,-4.5 z m 195.81368,1 c 0,-1.925 0.2058,-2.7125 0.45733,-1.75 0.25152,0.9625 0.25152,2.5375 0,3.5 -0.25153,0.9625 -0.45733,0.175 -0.45733,-1.75 z M 70.34281,142.5 c 0.0036,-4.4 0.179441,-6.07561 0.390687,-3.72357 0.211245,2.35204 0.208273,5.95204 -0.0066,8 C 70.512015,148.82439 70.339178,146.9 70.34281,142.5 Z m 508.73614,3.91667 c 0.048,-1.16495 0.28494,-1.4019 0.60416,-0.60417 0.28887,0.72187 0.25335,1.58437 -0.0789,1.91667 -0.33229,0.33229 -0.56864,-0.25834 -0.52522,-1.3125 z m -195.31729,-2.12393 c 1.24391,-0.23919 3.04391,-0.23011 4,0.0202 0.95609,0.25029 -0.0617,0.446 -2.26166,0.4349 -2.2,-0.0111 -2.98225,-0.21589 -1.73834,-0.45508 z m 43.98834,0.045 c 0.6875,-0.27741 1.8125,-0.27741 2.5,0 0.6875,0.27741 0.125,0.50439 -1.25,0.50439 -1.375,0 -1.9375,-0.22698 -1.25,-0.50439 z m 51.43787,-0.0251 c 2.63898,-0.30476 3.81449,-0.98297 4.13306,-2.38456 0.34801,-1.53115 0.41613,-1.46421 0.31212,0.30666 -0.11349,1.93226 -0.72116,2.28286 -4.13305,2.38456 l -4,0.11924 z m 42.56213,0.0251 c 0.6875,-0.27741 1.8125,-0.27741 2.5,0 0.6875,0.27741 0.125,0.50439 -1.25,0.50439 -1.375,0 -1.9375,-0.22698 -1.25,-0.50439 z M 45.299664,131 c 0,-3.025 0.187466,-4.2625 0.41659,-2.75 0.229125,1.5125 0.229125,3.9875 0,5.5 -0.229124,1.5125 -0.41659,0.275 -0.41659,-2.75 z m 56.999996,-3 c 0,-3.025 0.18747,-4.2625 0.41659,-2.75 0.22913,1.5125 0.22913,3.9875 0,5.5 -0.22912,1.5125 -0.41659,0.275 -0.41659,-2.75 z M 468.46274,78 c 0,-26.675 0.12889,-37.5875 0.28641,-24.25 0.15752,13.3375 0.15752,35.1625 0,48.5 -0.15752,13.3375 -0.28641,2.425 -0.28641,-24.25 z m 10.97595,21 c 0,-15.125 0.13899,-21.3125 0.30888,-13.75 0.16988,7.5625 0.16988,19.9375 0,27.5 -0.16989,7.5625 -0.30888,1.375 -0.30888,-13.75 z M 842.45891,83 c 0,-23.925 0.13052,-33.7125 0.29005,-21.75 0.15952,11.9625 0.15952,31.5375 0,43.5 -0.15953,11.9625 -0.29005,2.175 -0.29005,-21.75 z m -522.03712,22 c 0,-11.275 0.14584,-15.8875 0.32409,-10.25 0.17825,5.6375 0.17825,14.8625 0,20.5 -0.17825,5.6375 -0.32409,1.025 -0.32409,-10.25 z m 85.04024,-27 c 0,-26.125 0.12919,-36.8125 0.28709,-23.75 0.15789,13.0625 0.15789,34.4375 0,47.5 -0.1579,13.0625 -0.28709,2.375 -0.28709,-23.75 z m 106,0 c 0,-26.125 0.12919,-36.8125 0.28709,-23.75 0.15789,13.0625 0.15789,34.4375 0,47.5 -0.1579,13.0625 -0.28709,2.375 -0.28709,-23.75 z m 131.95655,28 c 0,-10.725 0.14711,-15.1125 0.32692,-9.75 0.17981,5.3625 0.17981,14.1375 0,19.5 -0.17981,5.3625 -0.32692,0.975 -0.32692,-9.75 z m 169.01267,-4.5 c 6.6e-4,-13.2 0.14295,-18.461693 0.31621,-11.692651 0.17326,6.769041 0.17273,17.569041 -0.001,24.000001 -0.17391,6.43096 -0.31567,0.89265 -0.31502,-12.30735 z m 19.02723,-19 c 2.3e-4,-23.65 0.13103,-33.182057 0.29066,-21.18235 0.15964,11.999708 0.15944,31.349708 -4.3e-4,43 -0.15986,11.65029 -0.29047,1.83235 -0.29023,-21.81765 z m -522.05854,19 c 10e-4,-8.25 0.15629,-11.491932 0.34419,-7.204294 0.1879,4.287638 0.18676,11.037634 -0.003,15.000004 -0.1893,3.96236 -0.34304,0.45429 -0.34164,-7.79571 z m 30.00255,-0.5 c 0,-8.525 0.15337,-12.0125 0.34082,-7.75 0.18745,4.2625 0.18745,11.2375 0,15.5 -0.18745,4.2625 -0.34082,0.775 -0.34082,-7.75 z m 183.0517,-23 c 0,-21.175 0.13253,-29.8375 0.2945,-19.25 0.16197,10.5875 0.16197,27.9125 0,38.5 -0.16197,10.5875 -0.2945,1.925 -0.2945,-19.25 z m -275.37524,33.41667 c 0.048,-1.16495 0.28494,-1.4019 0.60416,-0.60417 0.28887,0.72187 0.25335,1.58437 -0.0789,1.91667 -0.3323,0.33229 -0.56864,-0.25834 -0.52522,-1.3125 z M 50.157895,103 c 0,-1.375 0.226973,-1.9375 0.504386,-1.25 0.277412,0.6875 0.277412,1.8125 0,2.5 -0.277413,0.6875 -0.504386,0.125 -0.504386,-1.25 z M 216.75,90.337719 c 0.6875,-0.277412 1.8125,-0.277412 2.5,0 0.6875,0.277413 0.125,0.504386 -1.25,0.504386 -1.375,0 -1.9375,-0.226973 -1.25,-0.504386 z m 499.70888,-1.40425 c -0.36253,-0.586592 -0.44468,-1.281 -0.18255,-1.543128 0.26212,-0.262129 0.74306,0.21781 1.06875,1.066531 0.67618,1.762107 0.0998,2.072058 -0.8862,0.476597 z M 491.85699,82.75 C 491.66064,82.0625 491.73666,70.025 492.02592,56 l 0.52592,-25.5 0.22408,26.75 c 0.12324,14.7125 0.0472,26.75 -0.16893,26.75 -0.21616,0 -0.55366,-0.5625 -0.75,-1.25 z M 320.42179,51 c 0,-11.275 0.14584,-15.8875 0.32409,-10.25 0.17825,5.6375 0.17825,14.8625 0,20.5 -0.17825,5.6375 -0.32409,1.025 -0.32409,-10.25 z m -11.02185,3.5 c 10e-4,-8.25 0.15629,-11.491932 0.34419,-7.204294 0.1879,4.287638 0.18676,11.037638 -0.003,15 C 309.55228,66.258068 309.39854,62.75 309.39994,54.5 Z m 30,0 c 10e-4,-8.25 0.15629,-11.491932 0.34419,-7.204294 0.1879,4.287638 0.18676,11.037638 -0.003,15 C 339.55228,66.258068 339.39854,62.75 339.39994,54.5 Z M 643.41858,50 c 0,-10.725 0.14711,-15.1125 0.32692,-9.75 0.17981,5.3625 0.17981,14.1375 0,19.5 -0.17981,5.3625 -0.32692,0.975 -0.32692,-9.75 z M 111.26903,60.307009 c 0.97297,-0.253543 2.32297,-0.236869 3,0.03705 0.67703,0.273923 -0.11903,0.481368 -1.76903,0.460988 -1.65,-0.02038 -2.20394,-0.244498 -1.23097,-0.498042 z m 27.99472,-8.02459 c 1.52006,-0.229855 3.77006,-0.223712 5,0.01365 1.22994,0.237362 -0.0137,0.425424 -2.76375,0.417917 -2.75,-0.0075 -3.75631,-0.201713 -2.23625,-0.431567 z m 34.8152,-1.865752 c 0.048,-1.164943 0.28494,-1.4019 0.60416,-0.604167 0.28887,0.721875 0.25335,1.584375 -0.0789,1.916667 -0.3323,0.332291 -0.56864,-0.258334 -0.52522,-1.3125 z M 812.33621,38 c 0,-4.125 0.17651,-5.8125 0.39226,-3.75 0.21574,2.0625 0.21574,5.4375 0,7.5 -0.21575,2.0625 -0.39226,0.375 -0.39226,-3.75 z M 697.07895,29.416667 c 0.048,-1.164943 0.28494,-1.4019 0.60416,-0.604167 0.28887,0.721875 0.25335,1.584375 -0.0789,1.916667 -0.33229,0.332291 -0.56864,-0.258334 -0.52522,-1.3125 z"
       style="fill:#7f7f7f" />
    <path
       id="path36"
       d="m 132.77643,225.2665 c 2.35204,-0.21124 5.95204,-0.20827 8,0.007 2.04796,0.21487 0.12357,0.38771 -4.27643,0.38408 -4.4,-0.004 -6.07561,-0.17944 -3.72357,-0.39069 z M 119.75,224.33772 c 0.6875,-0.27741 1.8125,-0.27741 2.5,0 0.6875,0.27741 0.125,0.50439 -1.25,0.50439 -1.375,0 -1.9375,-0.22698 -1.25,-0.50439 z m 31.6153,-0.4381 c 18.69964,-2.73067 40.76142,-11.8132 55.29381,-22.76369 10.45026,-7.8745 22.1865,-20.28778 28.76589,-30.42532 14.02353,-21.60748 19.86321,-41.2311 20.00084,-67.21061 l 0.0742,-14 4.68815,-4.66183 c 3.36744,-3.348546 4.86949,-5.743082 5.33189,-8.5 0.97187,-5.794532 1.31441,-6.245158 1.39727,-1.83817 0.0896,4.763062 -2.41229,9.250279 -7.18874,12.893458 l -3.4417,2.625117 0.45401,11.740715 c 0.76123,19.68566 -3.41143,38.63515 -12.49428,56.74071 -6.18188,12.32284 -11.19718,19.44652 -20.67836,29.37132 -17.55032,18.3715 -37.61967,29.66188 -62.56824,35.19892 -4.675,1.03756 -10.075,1.84134 -12,1.78618 -2.50507,-0.0718 -1.8327,-0.34378 2.3653,-0.9568 z M 174,208.58953 c 0,-0.22575 1.73896,-3.48825 3.86436,-7.25 13.0184,-23.04126 18.0258,-44.98461 16.84993,-73.83953 -0.31216,-7.66004 -0.18893,-10.55335 0.34072,-8 1.19977,5.78388 1.12475,30.03642 -0.12119,39.17764 -0.58639,4.3023 -2.62756,12.5205 -4.53592,18.26267 C 186.92489,187.39044 176.44338,209 174.84766,209 174.38145,209 174,208.81529 174,208.58953 Z M 139,181 c 0.825,-0.53316 1.95,-0.96937 2.5,-0.96937 0.55,0 0.325,0.43621 -0.5,0.96937 -0.825,0.53316 -1.95,0.96937 -2.5,0.96937 -0.55,0 -0.325,-0.43621 0.5,-0.96937 z m -26,-1.7953 c 0,-1.38543 8.15521,-6.8085 12.23265,-8.13449 2.05295,-0.66762 4.75295,-1.01782 6,-0.77822 1.81929,0.34956 1.67451,0.4669 -0.73265,0.59379 -3.71352,0.19576 -10.51847,3.21543 -12.41776,5.51034 C 116.31265,178.53432 113,180.36498 113,179.2047 Z M 53.630286,169.75 c -0.801025,-2.98902 -0.803963,-16.25701 -0.0034,-15.45647 C 54.164685,154.83135 54.93275,172 54.418989,172 c -0.102149,0 -0.457066,-1.0125 -0.788703,-2.25 z m 48.922764,-5.39464 c -0.36646,-1.4601 -0.19106,-3.11735 0.39159,-3.7 0.74048,-0.74048 1.05536,0.0486 1.05536,2.64464 0,4.35507 -0.52303,4.73655 -1.44695,1.05536 z m 13.73268,0.39464 c 1.63282,-1.65917 2.30576,-1.88758 2.56266,-0.86983 0.36608,1.45024 -1.50251,3.07854 -3.56266,3.10452 -0.66784,0.008 -0.21784,-0.99719 1,-2.23469 z m 34.59251,-4.30761 c 2.95804,-1.34331 6.55804,-2.39633 8,-2.34003 2.55846,0.0999 2.54932,0.12116 -0.37824,0.88086 -1.65,0.42817 -4.67305,1.50711 -6.71788,2.39764 -2.04484,0.89053 -4.29484,1.59322 -5,1.56153 -0.70517,-0.0317 1.13809,-1.15668 4.09612,-2.5 z m -73.799293,-7.02572 c 0.04798,-1.16495 0.284941,-1.4019 0.604167,-0.60417 0.288871,0.72187 0.253344,1.58437 -0.07895,1.91667 -0.332292,0.33229 -0.568641,-0.25834 -0.52522,-1.3125 z M 51.621676,149.79636 C 50.378748,143.17667 49.88447,116.40707 50.896101,110.5 c 0.862162,-5.03429 0.956639,-3.66621 0.586991,8.5 -0.242305,7.975 0.0036,18.7338 0.546406,23.90844 0.985107,9.39077 0.763831,13.12802 -0.407822,6.88792 z M 75.625,147.875 c -0.853245,-4.26622 -0.660105,-22.92718 0.261614,-25.27678 0.410323,-1.04598 0.716195,4.91567 0.679714,13.24813 -0.03648,8.33245 -0.122578,15.15075 -0.191328,15.15178 -0.06875,0.001 -0.40625,-1.40438 -0.75,-3.12313 z m 26.39031,1.875 c 0.0418,-3.41392 2.92597,-4.96806 13.48469,-7.2663 4.4,-0.95772 8.52244,-2.1552 9.16097,-2.66106 0.71791,-0.56875 1.40137,-0.53078 1.7909,0.0995 0.34646,0.56059 -0.40098,1.24963 -1.66097,1.53121 -1.26,0.28158 -5.43536,1.2131 -9.2786,2.07005 C 107.85887,145.22991 104,147.24097 104,149.52305 104,150.33537 103.55,151 103,151 c -0.55,0 -0.99311,-0.5625 -0.98469,-1.25 z M 674,146.98499 l -46.5,-0.51501 58.5,-0.0913 c 32.175,-0.0502 81.9,0.20979 110.5,0.57777 l 52,0.66908 -64,-0.0628 c -35.2,-0.0345 -84.925,-0.29452 -110.5,-0.57778 z m -57.75,-0.67432 c 0.9625,-0.25152 2.5375,-0.25152 3.5,0 0.9625,0.25153 0.175,0.45733 -1.75,0.45733 -1.925,0 -2.7125,-0.2058 -1.75,-0.45733 z m -473.98097,-5.00366 c 0.97297,-0.25354 2.32297,-0.23687 3,0.0371 0.67703,0.27393 -0.11903,0.48137 -1.76903,0.46099 -1.65,-0.0204 -2.20394,-0.2445 -1.23097,-0.49804 z M 28.078947,139.41667 c 0.04798,-1.16495 0.284941,-1.4019 0.604167,-0.60417 0.288871,0.72187 0.253344,1.58437 -0.07895,1.91667 -0.332292,0.33229 -0.568641,-0.25834 -0.52522,-1.3125 z m 67.561711,-2.62701 C 95.303316,135.53035 95.089078,131.8 95.164572,128.5 c 0.133958,-5.85554 0.154083,-5.80738 0.835849,2 0.737698,8.44789 0.646321,10.04543 -0.359763,6.28966 z m -69.095203,-4.33511 c -0.382519,-2.55082 -0.490943,-4.8424 -0.240943,-5.0924 0.25,-0.25 0.767515,1.63249 1.150033,4.1833 0.382519,2.55082 0.490943,4.8424 0.240943,5.0924 -0.25,0.25 -0.767515,-1.63249 -1.150033,-4.1833 z M 107.5086,123.25 c -0.38296,-7.5625 -1.11934,-15.72221 -1.63642,-18.13269 -0.51707,-2.41049 -0.74379,-4.57904 -0.50382,-4.81901 0.23997,-0.23997 0.93603,1.89377 1.54678,4.74164 1.21608,5.67034 2.73154,31.96006 1.84234,31.96006 -0.30393,0 -0.86592,-6.1875 -1.24888,-13.75 z m -83.437171,-2.82143 c -0.687274,-3.07106 -1.056731,-5.7766 -0.821017,-6.01232 0.235715,-0.23571 0.990886,2.08412 1.678159,5.15518 0.687274,3.07106 1.056731,5.7766 0.821017,6.01232 -0.235715,0.23571 -0.990886,-2.08412 -1.678159,-5.15518 z m 169.007521,-7.0119 c 0.048,-1.16495 0.28494,-1.4019 0.60416,-0.60417 0.28887,0.72187 0.25335,1.58437 -0.0789,1.91667 -0.3323,0.33229 -0.56864,-0.25834 -0.52522,-1.3125 z M 21.641848,109.25 C 20.659601,103.30742 21.003796,92.819892 22.306442,89 23.20956,86.35169 24.10835,85.455069 26,85.315355 27.375,85.2138 27.756975,85.350735 26.848832,85.619646 23.866061,86.502889 22.497396,91.955632 22.54903,102.75 22.576,108.3875 22.52238,113 22.429872,113 c -0.0925,0 -0.447114,-1.6875 -0.788024,-3.75 z m 66.439371,0.43426 c -0.135365,-3.02623 1.858183,-5.68842 4.203965,-5.61397 1.988156,0.0631 2.023408,0.1455 0.344468,0.8053 -1.028692,0.40426 -2.454643,2.06013 -3.168781,3.67971 -0.895015,2.02979 -1.323668,2.38056 -1.379652,1.12896 z m 101.776001,-4.73663 c -0.89321,-2.15721 1.47828,-7.368785 4.23023,-9.296327 3.37838,-2.366311 3.38046,-1.363711 0.005,2.250091 -1.6317,1.746739 -3.10743,4.395996 -3.27942,5.887246 -0.2191,1.89985 -0.50507,2.24674 -0.95547,1.15899 z m 26.17643,-3.31461 c 0.28682,-0.28682 4.48144,-1.01357 9.32138,-1.61501 4.83995,-0.60143 11.69004,-2.181358 15.22244,-3.510947 C 244.10986,95.177473 247,94.282905 247,94.519134 c 0,1.030991 -6.42614,3.603506 -12.21042,4.88808 -6.96527,1.546846 -19.57318,3.043056 -18.75593,2.225806 z M 119,99.055764 c 0,-2.233218 4.7978,-6.227377 8.47193,-7.052857 5.10155,-1.146189 5.87678,-0.469312 1.00357,0.876248 C 124.34456,94.019761 121,96.603887 121,98.654988 121,99.394744 120.55,100 120,100 c -0.55,0 -1,-0.424906 -1,-0.944236 z m -14.98469,-1.228212 c -0.0172,-1.878576 5.88781,-4.25939 8.7266,-3.518436 1.29611,0.3383 1.14958,0.489363 -0.55765,0.574883 -2.63348,0.131917 -6.32881,1.883068 -7.41895,3.515705 -0.45968,0.688434 -0.74042,0.474266 -0.75,-0.572152 z M 43.015313,93.75 C 43.002067,92.236186 43.911004,92.02552 49.75,92.189084 l 6.75,0.189085 -5.975993,0.367562 c -3.286796,0.20216 -6.317405,0.904572 -6.734687,1.560916 C 43.277761,95.111279 43.025638,94.929958 43.015313,93.75 Z M 61.7303,91.945943 c 2.326664,-0.459209 6.264164,-1.734601 8.75,-2.834204 C 72.966135,88.012136 75,87.504825 75,87.984381 75,89.339524 64.302397,93.012872 60.712487,92.890434 57.765155,92.789912 57.849164,92.711955 61.7303,91.945943 Z M 222,87 c 1.375,-0.440352 3.4,-0.80064 4.5,-0.80064 1.58367,0 1.47958,0.166667 -0.5,0.80064 -1.375,0.440352 -3.4,0.80064 -4.5,0.80064 -1.58367,0 -1.47958,-0.166667 0.5,-0.80064 z m -10.92105,-1.583333 c 0.048,-1.164943 0.28494,-1.4019 0.60416,-0.604167 0.28887,0.721875 0.25335,1.584375 -0.0789,1.916667 -0.3323,0.332291 -0.56864,-0.258334 -0.52522,-1.3125 z M 88,79.166667 C 88,76.875 88.470391,75 89.045313,75 c 0.661779,0 0.796559,1.375906 0.36734,3.75 C 88.474449,83.939389 88,84.079329 88,79.166667 Z m 153.99738,-0.663511 c 0.68325,-0.823264 3.51316,-2.171227 6.2887,-2.995473 2.77554,-0.824246 5.87162,-2.24541 6.88018,-3.158144 C 256.17482,71.436806 257,71.184252 257,71.788308 c 0,1.560742 -4.06929,4.210999 -6.47251,4.21543 -1.11512,0.0021 -3.50087,0.902056 -5.30166,2 -3.90209,2.379108 -4.91901,2.536418 -3.22845,0.499418 z M 55.75,75.337719 c 0.6875,-0.277412 1.8125,-0.277412 2.5,0 0.6875,0.277413 0.125,0.504386 -1.25,0.504386 -1.375,0 -1.9375,-0.226973 -1.25,-0.504386 z m -9.480968,-1.03071 c 0.972967,-0.253543 2.322967,-0.236869 3,0.03705 C 49.946064,74.617986 49.15,74.825431 47.5,74.805051 45.85,74.784672 45.296064,74.560553 46.269032,74.307009 Z M 164.28655,69.629708 c 0.6674,-1.437757 1.55095,-2.617615 1.96345,-2.621906 1.36502,-0.0142 0.77919,1.655803 -1.21345,3.459117 -1.91992,1.737506 -1.93654,1.718948 -0.75,-0.837211 z M 84.625,67.875 C 84.28125,66.15625 84,62.375838 84,59.474084 84,54.766287 84.489824,53.546558 88.548823,48.146895 95.953685,38.296252 97.982462,37 105.99494,37 c 3.76282,0 7.62711,-0.301472 8.58732,-0.669939 1.19028,-0.456755 1.51574,-0.297649 1.02277,0.5 C 115.16102,37.548484 112.09613,38 107.66349,38 99.084527,38 98.111541,38.561215 90.842584,47.702239 L 85.5,54.420768 85.67239,62.710384 C 85.767205,67.269673 85.710955,71 85.54739,71 85.383826,71 84.96875,69.59375 84.625,67.875 Z M 17,65.973303 c 0,-0.869341 3.881861,-2.424776 4.502511,-1.804126 0.193484,0.193485 -0.740428,0.867234 -2.075361,1.497222 C 18.092218,66.296386 17,66.434493 17,65.973303 Z M 155.49128,63.71832 c 1.6452,-1.220076 3.7827,-3.00582 4.75,-3.96832 C 162.20457,57.796446 163,57.555252 163,58.91349 c 0,1.127141 -7.99612,7.098481 -9.447,7.05483 -0.57915,-0.01742 0.29307,-1.029924 1.93828,-2.25 z M 129,41.080533 c 5.78005,-0.585818 9.50468,-1.732958 16.24158,-5.002196 4.80786,-2.333132 8.99692,-4.65522 9.30901,-5.160197 C 154.86269,30.413163 156.09696,30 157.29342,30 c 2.57742,0 -0.29754,1.777687 -12.29342,7.601449 -6.38468,3.099637 -8.68967,3.685573 -15.5,3.940161 l -8,0.299061 z"
       style="fill:#c6753d" />
    <path
       id="path34"
       d="m 260.5,84 c 0.99549,-1.1 2.03498,-2 2.30998,-2 0.275,0 -0.31449,0.9 -1.30998,2 -0.99549,1.1 -2.03498,2 -2.30998,2 -0.275,0 0.31449,-0.9 1.30998,-2 z M 158,75.655706 c 0,-0.154838 1.41193,-1.603215 3.13763,-3.218615 3.12426,-2.92458 3.1304,-2.925734 1.44001,-0.271059 C 161.19705,74.334178 158,76.771388 158,75.655706 Z"
       style="fill:#a15f31" />
    <path
       id="path32"
       d="m 144,154.62244 c 0,-0.20765 0.7875,-0.99515 1.75,-1.75 1.58606,-1.24387 1.62143,-1.2085 0.37756,0.37756 C 144.82119,154.91575 144,155.44548 144,154.62244 Z M 251.5,79 c 0.99549,-1.1 2.03498,-2 2.30998,-2 0.275,0 -0.31449,0.9 -1.30998,2 -0.99549,1.1 -2.03498,2 -2.30998,2 -0.275,0 0.31449,-0.9 1.30998,-2 z"
       style="fill:#606060" />
    <path
       id="path30"
       d="m 124.8125,224.31689 c 0.72187,-0.28887 1.58437,-0.25335 1.91667,0.0789 0.33229,0.33229 -0.25834,0.56864 -1.3125,0.52522 -1.16495,-0.048 -1.4019,-0.28494 -0.60417,-0.60416 z m 18,0 c 0.72187,-0.28887 1.58437,-0.25335 1.91667,0.0789 0.33229,0.33229 -0.25834,0.56864 -1.3125,0.52522 -1.16495,-0.048 -1.4019,-0.28494 -0.60417,-0.60416 z M 194.37407,135.5 c 0.002,-6.05 0.16696,-8.39607 0.36601,-5.21349 0.19905,3.18258 0.1972,8.13258 -0.004,11 -0.20131,2.86742 -0.36417,0.26349 -0.36191,-5.78651 z M 135.75,140.33772 c 0.6875,-0.27741 1.8125,-0.27741 2.5,0 0.6875,0.27741 0.125,0.50439 -1.25,0.50439 -1.375,0 -1.9375,-0.22698 -1.25,-0.50439 z M 107.15789,127 c 0,-1.375 0.22698,-1.9375 0.50439,-1.25 0.27741,0.6875 0.27741,1.8125 0,2.5 -0.27741,0.6875 -0.50439,0.125 -0.50439,-1.25 z M 50.194949,110.5 c 0.02038,-1.65 0.244498,-2.20394 0.498042,-1.23097 0.253543,0.97297 0.236869,2.32297 -0.03705,3 C 50.382014,112.94606 50.174569,112.15 50.194949,110.5 Z m 205.114921,-6 c 0.006,-3.3 0.1923,-4.529441 0.41486,-2.73209 0.22256,1.79735 0.21797,4.49735 -0.0102,6 -0.22818,1.50265 -0.41027,0.0321 -0.40466,-3.26791 z m -235.114921,-5 c 0.02038,-1.65 0.244498,-2.203936 0.498042,-1.230968 0.253543,0.972967 0.236869,2.322968 -0.03705,2.999998 C 20.382014,101.94606 20.174569,101.15 20.194949,99.5 Z m 245.000001,-26 c 0.0204,-1.65 0.2445,-2.203936 0.49804,-1.230968 0.25354,0.972967 0.23687,2.322967 -0.0371,3 C 265.38201,75.946064 265.17457,75.15 265.19495,73.5 Z M 50.8125,74.316886 c 0.721875,-0.288871 1.584375,-0.253344 1.916667,0.07895 0.332291,0.332292 -0.258334,0.568641 -1.3125,0.52522 -1.164943,-0.04798 -1.4019,-0.284941 -0.604167,-0.604167 z M 158.75,29.294267 c 1.2375,-0.238353 3.2625,-0.238353 4.5,0 1.2375,0.238353 0.225,0.433369 -2.25,0.433369 -2.475,0 -3.4875,-0.195016 -2.25,-0.433369 z"
       style="fill:#94582e" />
    <path
       id="path28"
       d="m 219.5,189 c 2.14824,-2.2 4.1309,-4 4.4059,-4 0.275,0 -1.25766,1.8 -3.4059,4 -2.14824,2.2 -4.1309,4 -4.4059,4 -0.275,0 1.25766,-1.8 3.4059,-4 z"
       style="fill:#7b4926" />
    <path
       id="path26"
       d="m 570.8125,178.31689 c 0.72187,-0.28887 1.58438,-0.25335 1.91667,0.0789 0.33229,0.33229 -0.25834,0.56864 -1.3125,0.52522 -1.16495,-0.048 -1.4019,-0.28494 -0.60417,-0.60416 z M 376.46761,158.5 l 0.0324,-19 h 6.5 c 6.22299,0 6.50698,0.10654 6.6638,2.5 0.14435,2.20304 0.10639,2.23274 -0.31955,0.25 -0.435,-2.02494 -1.07439,-2.25 -6.39221,-2.25 h -5.90885 l -0.30398,18.75 -0.30398,18.75 0.0324,-19 z m 12.72734,17 c 0.0204,-1.65 0.2445,-2.20394 0.49804,-1.23097 0.25354,0.97297 0.23687,2.32297 -0.0371,3 -0.27393,0.67703 -0.48137,-0.11903 -0.46099,-1.76903 z m 126.27266,-17 0.0324,-19 5,-0.078 5,-0.078 -4.72859,0.37955 -4.72859,0.37954 -0.30379,18.69849 -0.3038,18.69848 0.0324,-19 z m 15.8752,12 c 0.004,-4.4 0.17944,-6.07561 0.39069,-3.72357 0.21124,2.35204 0.20827,5.95204 -0.007,8 -0.21487,2.04796 -0.38771,0.12357 -0.38408,-4.27643 z m -56.01467,-4 c 0.004,-3.85 0.18518,-5.30246 0.40166,-3.2277 0.21647,2.07477 0.21284,5.22477 -0.008,7 -0.22091,1.77524 -0.39803,0.0777 -0.39359,-3.7723 z m 166.11801,4.41287 c -1.03052,-1.66742 1.28721,-3.57951 2.66672,-2.2 C 645.26679,169.86679 644.54459,172 643,172 c -0.48508,0 -1.18431,-0.48921 -1.55385,-1.08713 z M 644,170 c 0,-0.55 -0.45,-1 -1,-1 -0.55,0 -1,0.45 -1,1 0,0.55 0.45,1 1,1 0.55,0 1,-0.45 1,-1 z m 15.76791,1.27527 c 1.79735,-0.22256 4.49735,-0.21797 6,0.0102 1.50265,0.22818 0.0321,0.41027 -3.26791,0.40466 -3.3,-0.006 -4.52944,-0.1923 -2.73209,-0.41486 z m 49.71276,0.0106 c 2.73937,-0.22788 5.36112,-0.94793 5.82613,-1.60011 0.58747,-0.82395 0.72196,-0.72807 0.44073,0.31421 -0.29201,1.08222 -1.91468,1.52788 -5.82613,1.60012 L 704.5,171.7002 Z M 96.232003,158 c 0,-1.925 0.205795,-2.7125 0.457323,-1.75 0.251527,0.9625 0.251527,2.5375 0,3.5 -0.251528,0.9625 -0.457323,0.175 -0.457323,-1.75 z m 198.037027,2.30701 c 0.97297,-0.25354 2.32297,-0.23687 3,0.0371 0.67703,0.27393 -0.11903,0.48137 -1.76903,0.46099 -1.65,-0.0204 -2.20394,-0.2445 -1.23097,-0.49804 z m 46.80992,-2.98746 c -0.0519,-1.43246 -0.8508,-2.32911 -2.32895,-2.61382 l -2.25,-0.43337 2.28138,-0.13618 c 2.36895,-0.14141 3.78519,1.85708 2.8919,4.08083 -0.28346,0.70564 -0.55091,0.30179 -0.59433,-0.89746 z m 289.73355,-2.00266 c 0.72187,-0.28887 1.58438,-0.25335 1.91667,0.0789 0.33229,0.33229 -0.25834,0.56864 -1.3125,0.52522 -1.16495,-0.048 -1.4019,-0.28494 -0.60417,-0.60416 z m -247.54347,-1.00988 c 0.97297,-0.25354 2.32297,-0.23687 3,0.0371 0.67703,0.27393 -0.11903,0.48137 -1.76903,0.46099 -1.65,-0.0204 -2.20394,-0.2445 -1.23097,-0.49804 z m 92.13295,-0.70185 c -0.29439,-0.76716 -0.35591,-3.12966 -0.13672,-5.25 0.38398,-3.71438 0.40467,-3.68413 0.56664,0.82842 0.15399,4.29032 0.399,4.71855 2.9181,5.10017 l 2.75,0.41659 -2.78138,0.14983 c -1.57243,0.0847 -3.01404,-0.45645 -3.31664,-1.24501 z M 299.07895,142.29772 c -0.0712,-1.98658 -0.69112,-2.23706 -6.32895,-2.55732 l -6.25,-0.35504 6.28138,-0.19268 c 6.38485,-0.19585 8.16873,0.84579 6.8919,4.02433 -0.28346,0.70564 -0.55091,0.29196 -0.59433,-0.91929 z M 45.232003,140 c 0,-1.925 0.205795,-2.7125 0.457323,-1.75 0.251527,0.9625 0.251527,2.5375 0,3.5 -0.251528,0.9625 -0.457323,0.175 -0.457323,-1.75 z M 333.7277,139.27827 c 1.77523,-0.22091 4.92523,-0.22454 7,-0.008 2.07476,0.21648 0.6223,0.39722 -3.2277,0.40166 -3.85,0.004 -5.54754,-0.17268 -3.7723,-0.39359 z m 90.5223,0.005 c 1.5125,-0.22913 3.9875,-0.22913 5.5,0 1.5125,0.22912 0.275,0.41659 -2.75,0.41659 -3.025,0 -4.2625,-0.18747 -2.75,-0.41659 z m 48.4777,-0.005 c 1.77523,-0.22091 4.92523,-0.22454 7,-0.008 2.07476,0.21648 0.6223,0.39722 -3.2277,0.40166 -3.85,0.004 -5.54754,-0.17268 -3.7723,-0.39359 z M 102.15789,136 c 0,-1.375 0.22698,-1.9375 0.50439,-1.25 0.27741,0.6875 0.27741,1.8125 0,2.5 -0.27741,0.6875 -0.50439,0.125 -0.50439,-1.25 z m -11.905707,-2.5 c 0.0111,-2.2 0.215885,-2.98225 0.455078,-1.73834 0.239193,1.24391 0.230112,3.04391 -0.02018,4 C 90.436788,136.71775 90.241084,135.7 90.252183,133.5 Z M 293.75,131.25749 c 3.9875,-0.18981 10.5125,-0.18981 14.5,0 3.9875,0.18982 0.725,0.34512 -7.25,0.34512 -7.975,0 -11.2375,-0.1553 -7.25,-0.34512 z m 39.25,0.0669 c 13.39247,-0.72438 26.77626,-0.76214 26.34846,-0.0744 -0.25657,0.4125 -7.52744,0.66491 -16.15748,0.56092 -8.63004,-0.104 -13.21598,-0.32296 -10.19098,-0.48657 z m 40.75,-0.0683 c 4.5375,-0.18529 11.9625,-0.18529 16.5,0 4.5375,0.1853 0.825,0.3369 -8.25,0.3369 -9.075,0 -12.7875,-0.1516 -8.25,-0.3369 z m 34,0.0206 c 1.7875,-0.22182 4.7125,-0.22182 6.5,0 1.7875,0.22183 0.325,0.40333 -3.25,0.40333 -3.575,0 -5.0375,-0.1815 -3.25,-0.40333 z m 63,0 c 1.7875,-0.22182 4.7125,-0.22182 6.5,0 1.7875,0.22183 0.325,0.40333 -3.25,0.40333 -3.575,0 -5.0375,-0.1815 -3.25,-0.40333 z m 25.01791,-0.001 c 1.79735,-0.22256 4.49735,-0.21797 6,0.0102 1.50265,0.22818 0.0321,0.41027 -3.26791,0.40466 -3.3,-0.006 -4.52944,-0.1923 -2.73209,-0.41486 z m 26.5186,-0.0154 c 3.18258,-0.19905 8.13258,-0.1972 11,0.004 2.86742,0.20131 0.26349,0.36417 -5.78651,0.36191 -6.05,-0.002 -8.39607,-0.16696 -5.21349,-0.36601 z m 31.44119,0.0183 c 1.77523,-0.22091 4.92523,-0.22454 7,-0.008 2.07476,0.21648 0.6223,0.39722 -3.2277,0.40166 -3.85,0.004 -5.54754,-0.17268 -3.7723,-0.39359 z m 21,0 c 1.77523,-0.22091 4.92523,-0.22454 7,-0.008 2.07476,0.21648 0.6223,0.39722 -3.2277,0.40166 -3.85,0.004 -5.54754,-0.17268 -3.7723,-0.39359 z m 30,0 c 1.77523,-0.22091 4.92523,-0.22454 7,-0.008 2.07476,0.21648 0.6223,0.39722 -3.2277,0.40166 -3.85,0.004 -5.54754,-0.17268 -3.7723,-0.39359 z m 28.7723,0.12786 c 4.68451,-0.75304 11.2731,-0.84789 10.84553,-0.15613 -0.25496,0.4125 -3.24951,0.68872 -6.65455,0.61382 -3.40504,-0.0749 -5.29098,-0.28086 -4.19098,-0.45769 z m 22.2277,-0.12786 c 1.77523,-0.22091 4.92523,-0.22454 7,-0.008 2.07476,0.21648 0.6223,0.39722 -3.2277,0.40166 -3.85,0.004 -5.54754,-0.17268 -3.7723,-0.39359 z m 30.5223,-0.007 c 2.0625,-0.21574 5.4375,-0.21574 7.5,0 2.0625,0.21575 0.375,0.39226 -3.75,0.39226 -4.125,0 -5.8125,-0.17651 -3.75,-0.39226 z m 27,0 c 2.0625,-0.21574 5.4375,-0.21574 7.5,0 2.0625,0.21575 0.375,0.39226 -3.75,0.39226 -4.125,0 -5.8125,-0.17651 -3.75,-0.39226 z m 35.5,-0.0155 c 4.5375,-0.18529 11.9625,-0.18529 16.5,0 4.5375,0.1853 0.825,0.3369 -8.25,0.3369 -9.075,0 -12.7875,-0.1516 -8.25,-0.3369 z m 42.53651,0.004 c 3.18258,-0.19905 8.13258,-0.1972 11,0.004 2.86742,0.20131 0.26349,0.36417 -5.78651,0.36191 -6.05,-0.002 -8.39607,-0.16696 -5.21349,-0.36601 z m 42.46349,0.0167 c 1.7875,-0.22182 4.7125,-0.22182 6.5,0 1.7875,0.22183 0.325,0.40333 -3.25,0.40333 -3.575,0 -5.0375,-0.1815 -3.25,-0.40333 z M 137.232,123 c 0,-1.925 0.2058,-2.7125 0.45733,-1.75 0.25152,0.9625 0.25152,2.5375 0,3.5 -0.25153,0.9625 -0.45733,0.175 -0.45733,-1.75 z m 585.84695,1.41667 c 0.048,-1.16495 0.28494,-1.4019 0.60416,-0.60417 0.28887,0.72187 0.25335,1.58437 -0.0789,1.91667 -0.33229,0.33229 -0.56864,-0.25834 -0.52522,-1.3125 z M 288.46203,78 c 0,-26.125 0.12919,-36.8125 0.28709,-23.75 0.15789,13.0625 0.15789,34.4375 0,47.5 -0.1579,13.0625 -0.28709,2.375 -0.28709,-23.75 z m 255,0 c 0,-26.125 0.12919,-36.8125 0.28709,-23.75 0.15789,13.0625 0.15789,34.4375 0,47.5 -0.1579,13.0625 -0.28709,2.375 -0.28709,-23.75 z m 18.95655,28 c 0,-10.725 0.14711,-15.1125 0.32692,-9.75 0.17981,5.3625 0.17981,14.1375 0,19.5 -0.17981,5.3625 -0.32692,0.975 -0.32692,-9.75 z m 51.0399,-23.5 c 2.3e-4,-23.65 0.13103,-33.182057 0.29066,-21.18235 0.15964,11.999708 0.15944,31.349708 -4.3e-4,43 C 613.58885,115.96794 613.45824,106.15 613.45848,82.5 Z M 742.46203,78 c 0,-26.125 0.12919,-36.8125 0.28709,-23.75 0.15789,13.0625 0.15789,34.4375 0,47.5 -0.1579,13.0625 -0.28709,2.375 -0.28709,-23.75 z m 37.86611,40.5 c 0.004,-3.85 0.18518,-5.30246 0.40166,-3.2277 0.21647,2.07477 0.21284,5.22477 -0.008,7 -0.22091,1.77524 -0.39803,0.0777 -0.39359,-3.7723 z M 13.078947,112.41667 c 0.04798,-1.16495 0.284941,-1.4019 0.604167,-0.60417 0.288871,0.72187 0.253344,1.58437 -0.07895,1.91667 -0.332292,0.33229 -0.568641,-0.25834 -0.52522,-1.3125 z M 388.34941,78 c 0,-4.675 0.17226,-6.5875 0.3828,-4.25 0.21053,2.3375 0.21053,6.1625 0,8.5 -0.21054,2.3375 -0.3828,0.425 -0.3828,-4.25 z m 375,0 c 0,-4.675 0.17226,-6.5875 0.3828,-4.25 0.21053,2.3375 0.21053,6.1625 0,8.5 -0.21054,2.3375 -0.3828,0.425 -0.3828,-4.25 z m -460.58775,6.292739 c 1.24391,-0.239193 3.04391,-0.230112 4,0.02018 0.95609,0.250292 -0.0617,0.445996 -2.26166,0.434897 -2.2,-0.0111 -2.98225,-0.215885 -1.73834,-0.455077 z m 38.98834,0.04498 c 0.6875,-0.277412 1.8125,-0.277412 2.5,0 0.6875,0.277413 0.125,0.504386 -1.25,0.504386 -1.375,0 -1.9375,-0.226973 -1.25,-0.504386 z m 38,0 c 0.6875,-0.277412 1.8125,-0.277412 2.5,0 0.6875,0.277413 0.125,0.504386 -1.25,0.504386 -1.375,0 -1.9375,-0.226973 -1.25,-0.504386 z m 39,0 c 0.6875,-0.277412 1.8125,-0.277412 2.5,0 0.6875,0.277413 0.125,0.504386 -1.25,0.504386 -1.375,0 -1.9375,-0.226973 -1.25,-0.504386 z m 146.0625,-0.02083 c 0.72187,-0.288871 1.58438,-0.253344 1.91667,0.07895 0.33229,0.332292 -0.25834,0.568641 -1.3125,0.52522 -1.16495,-0.04798 -1.4019,-0.284941 -0.60417,-0.604167 z m 81.94916,-0.02415 c 1.24391,-0.239193 3.04391,-0.230112 4,0.02018 0.95609,0.250292 -0.0617,0.445996 -2.26166,0.434897 -2.2,-0.0111 -2.98225,-0.215885 -1.73834,-0.455077 z m 109.05084,0.02415 c 0.72187,-0.288871 1.58438,-0.253344 1.91667,0.07895 0.33229,0.332292 -0.25834,0.568641 -1.3125,0.52522 -1.16495,-0.04798 -1.4019,-0.284941 -0.60417,-0.604167 z m 33.4375,-0.04535 c 2.0625,-0.215745 5.4375,-0.215745 7.5,0 2.0625,0.215744 0.375,0.392262 -3.75,0.392262 -4.125,0 -5.8125,-0.176518 -3.75,-0.392262 z M 780.43125,54.5 c 6.6e-4,-13.2 0.14295,-18.461693 0.31621,-11.692651 0.17326,6.769041 0.17273,17.569041 -0.001,24 C 780.57236,73.238307 780.4306,67.7 780.43125,54.5 Z M 565.75,71.294267 c 1.2375,-0.238353 3.2625,-0.238353 4.5,0 1.2375,0.238353 0.225,0.433369 -2.25,0.433369 -2.475,0 -3.4875,-0.195016 -2.25,-0.433369 z m 81.01166,-0.0015 c 1.24391,-0.239193 3.04391,-0.230112 4,0.02018 0.95609,0.250292 -0.0617,0.445996 -2.26166,0.434897 -2.2,-0.0111 -2.98225,-0.215885 -1.73834,-0.455077 z M 796.25,71.271532 c 2.0625,-0.215745 5.4375,-0.215745 7.5,0 2.0625,0.215744 0.375,0.392262 -3.75,0.392262 -4.125,0 -5.8125,-0.176518 -3.75,-0.392262 z M 573.40249,55 c 0,-8.525 0.15337,-12.0125 0.34082,-7.75 0.18745,4.2625 0.18745,11.2375 0,15.5 -0.18745,4.2625 -0.34082,0.775 -0.34082,-7.75 z m -11.00255,-0.5 c 10e-4,-8.25 0.15629,-11.491932 0.34419,-7.204294 0.1879,4.287638 0.18676,11.037638 -0.003,15 C 562.55228,66.258068 562.39854,62.75 562.39994,54.5 Z M 302.76166,37.292739 c 1.24391,-0.239193 3.04391,-0.230112 4,0.02018 0.95609,0.250292 -0.0617,0.445996 -2.26166,0.434897 -2.2,-0.0111 -2.98225,-0.215885 -1.73834,-0.455077 z m 42.01477,-0.02624 c 2.35204,-0.211245 5.95204,-0.208273 8,0.0066 2.04796,0.214878 0.12357,0.387715 -4.27643,0.384083 -4.4,-0.0036 -6.07561,-0.179441 -3.72357,-0.390687 z m 38,0 c 2.35204,-0.211245 5.95204,-0.208273 8,0.0066 2.04796,0.214878 0.12357,0.387715 -4.27643,0.384083 -4.4,-0.0036 -6.07561,-0.179441 -3.72357,-0.390687 z m 38.47357,0.005 c 2.0625,-0.215745 5.4375,-0.215745 7.5,0 2.0625,0.215744 0.375,0.392262 -3.75,0.392262 -4.125,0 -5.8125,-0.176518 -3.75,-0.392262 z m 337,0 c 2.0625,-0.215745 5.4375,-0.215745 7.5,0 2.0625,0.215744 0.375,0.392262 -3.75,0.392262 -4.125,0 -5.8125,-0.176518 -3.75,-0.392262 z M 343.5,25 l -16,-0.577355 15.69098,-0.211323 C 352.80792,24.081804 359.12121,24.387104 359.5,25 c 0.33992,0.55 0.47898,0.904905 0.30902,0.788678 C 359.63906,25.67245 352.3,25.317545 343.5,25 Z M 491,24.757206 c 0,-0.416463 3.0375,-0.695924 6.75,-0.621024 6.99483,0.141122 6.21716,0.560558 -2,1.078709 -2.6125,0.164736 -4.75,-0.04122 -4.75,-0.457685 z M 638,25 l -6.5,-0.654802 6.19098,-0.172599 C 641.09602,24.07767 644.16008,24.45 644.5,25 c 0.33992,0.55 0.47898,0.92233 0.30902,0.827401 C 644.63906,25.732472 641.575,25.360141 638,25 Z M 293.75,24.257493 c 3.9875,-0.189811 10.5125,-0.189811 14.5,0 3.9875,0.189812 0.725,0.345113 -7.25,0.345113 -7.975,0 -11.2375,-0.155301 -7.25,-0.345113 z m 80,-0.0015 c 4.5375,-0.185293 11.9625,-0.185293 16.5,0 4.5375,0.185294 0.825,0.336897 -8.25,0.336897 -9.075,0 -12.7875,-0.151603 -8.25,-0.336897 z m 39.04748,-7.67e-4 c 4.56362,-0.185715 11.76362,-0.18468 16,0.0023 4.23639,0.186981 0.50252,0.33893 -8.29748,0.337664 -8.8,-0.0013 -12.26613,-0.15425 -7.70252,-0.339964 z m 57.97043,0.02002 c 1.79735,-0.222562 4.49735,-0.217969 6,0.0102 1.50265,0.228174 0.0321,0.41027 -3.26791,0.404657 -3.3,-0.0056 -4.52944,-0.192301 -2.73209,-0.414862 z m 51.5186,-0.01535 c 3.18258,-0.19905 8.13258,-0.197204 11,0.0041 2.86742,0.201306 0.26349,0.364165 -5.78651,0.361909 -6.05,-0.0023 -8.39607,-0.166961 -5.21349,-0.366011 z m 35.46349,-0.0024 c 3.9875,-0.189811 10.5125,-0.189811 14.5,0 3.9875,0.189812 0.725,0.345113 -7.25,0.345113 -7.975,0 -11.2375,-0.155301 -7.25,-0.345113 z m 41.5,-0.0021 c 4.8125,-0.183314 12.6875,-0.183314 17.5,0 4.8125,0.183314 0.875,0.333298 -8.75,0.333298 -9.625,0 -13.5625,-0.149984 -8.75,-0.333298 z m 56.4777,0.02284 c 1.77523,-0.220912 4.92523,-0.224542 7,-0.0081 2.07476,0.216475 0.6223,0.397221 -3.2277,0.401658 -3.85,0.0044 -5.54754,-0.17268 -3.7723,-0.393592 z m 17,0 c 1.77523,-0.220912 4.92523,-0.224542 7,-0.0081 2.07476,0.216475 0.6223,0.397221 -3.2277,0.401658 -3.85,0.0044 -5.54754,-0.17268 -3.7723,-0.393592 z m 27,0 c 1.77523,-0.220912 4.92523,-0.224542 7,-0.0081 2.07476,0.216475 0.6223,0.397221 -3.2277,0.401658 -3.85,0.0044 -5.54754,-0.17268 -3.7723,-0.393592 z m 27,0 c 1.77523,-0.220912 4.92523,-0.224542 7,-0.0081 2.07476,0.216475 0.6223,0.397221 -3.2277,0.401658 -3.85,0.0044 -5.54754,-0.17268 -3.7723,-0.393592 z m 22.0223,-0.02226 c 4.5375,-0.185293 11.9625,-0.185293 16.5,0 4.5375,0.185294 0.825,0.336897 -8.25,0.336897 -9.075,0 -12.7875,-0.151603 -8.25,-0.336897 z m 42.53651,0.0039 c 3.18258,-0.19905 8.13258,-0.197204 11,0.0041 2.86742,0.201306 0.26349,0.364165 -5.78651,0.361909 -6.05,-0.0023 -8.39607,-0.166961 -5.21349,-0.366011 z m 36.96349,-0.0045 c 4.8125,-0.183314 12.6875,-0.183314 17.5,0 4.8125,0.183314 0.875,0.333298 -8.75,0.333298 -9.625,0 -13.5625,-0.149984 -8.75,-0.333298 z m -721.5,-5.917713 c 0.6875,-0.277412 1.8125,-0.277412 2.5,0 0.6875,0.277413 0.125,0.504386 -1.25,0.504386 -1.375,0 -1.9375,-0.226973 -1.25,-0.504386 z m 29.0625,-8.020833 c 0.72187,-0.288871 1.58437,-0.253344 1.91667,0.07895 0.33229,0.332292 -0.25834,0.568641 -1.3125,0.52522 -1.16495,-0.04798 -1.4019,-0.284941 -0.60417,-0.604167 z"
       style="fill:#404040" />
    <path
       id="path24"
       d="m 130.7277,224.27827 c 1.77523,-0.22091 4.92523,-0.22454 7,-0.008 2.07476,0.21648 0.6223,0.39722 -3.2277,0.40166 -3.85,0.004 -5.54754,-0.17268 -3.7723,-0.39359 z m 27.0848,-66.96138 c 0.72187,-0.28887 1.58437,-0.25335 1.91667,0.0789 0.33229,0.33229 -0.25834,0.56864 -1.3125,0.52522 -1.16495,-0.048 -1.4019,-0.28494 -0.60417,-0.60416 z M 74.309869,138.5 c 0.0056,-3.3 0.192301,-4.52944 0.414862,-2.73209 0.222562,1.79735 0.217969,4.49735 -0.0102,6 -0.228174,1.50265 -0.41027,0.0321 -0.404657,-3.26791 z m 32.942311,-5 c 0.0111,-2.2 0.21589,-2.98225 0.45508,-1.73834 0.23919,1.24391 0.23011,3.04391 -0.0202,4 -0.25029,0.95609 -0.446,-0.0617 -0.4349,-2.26166 z m -13.173233,-7.08333 c 0.04798,-1.16495 0.284941,-1.4019 0.604167,-0.60417 0.288871,0.72187 0.253344,1.58438 -0.07895,1.91667 -0.332292,0.33229 -0.568641,-0.25834 -0.52522,-1.3125 z m 12.000003,-13 c 0.048,-1.16495 0.28494,-1.4019 0.60416,-0.60417 0.28887,0.72187 0.25335,1.58437 -0.0789,1.91667 -0.3323,0.33229 -0.56864,-0.25834 -0.52522,-1.3125 z M 45.25,91.310674 c 0.9625,-0.251527 2.5375,-0.251527 3.5,0 0.9625,0.251528 0.175,0.457323 -1.75,0.457323 -1.925,0 -2.7125,-0.205795 -1.75,-0.457323 z m 173.5,-4.972955 c 0.6875,-0.277412 1.8125,-0.277412 2.5,0 0.6875,0.277413 0.125,0.504386 -1.25,0.504386 -1.375,0 -1.9375,-0.226973 -1.25,-0.504386 z M 87.078947,79.416667 c 0.04798,-1.164943 0.284941,-1.4019 0.604167,-0.604167 0.288871,0.721875 0.253344,1.584375 -0.07895,1.916667 -0.332292,0.332291 -0.568641,-0.258334 -0.52522,-1.3125 z M 101.26903,36.307009 c 0.97297,-0.253543 2.32297,-0.236869 3,0.03705 0.67703,0.273923 -0.11903,0.481368 -1.76903,0.460988 -1.65,-0.02038 -2.20394,-0.244498 -1.23097,-0.498042 z"
       style="fill:#633a1e" />
    <path
       id="path22"
       d="m 107.87244,163.25 c -1.24387,-1.58606 -1.2085,-1.62143 0.37756,-0.37756 0.9625,0.75485 1.75,1.54235 1.75,1.75 0,0.82304 -0.82119,0.29331 -2.12756,-1.37244 z M 247,83.622445 c 0,-0.207656 0.7875,-0.995156 1.75,-1.75 1.58606,-1.243871 1.62143,-1.208501 0.37756,0.377555 C 247.82119,83.915748 247,84.445479 247,83.622445 Z M 102.5,24 c 0.99549,-1.1 2.03498,-2 2.30998,-2 0.275,0 -0.31449,0.9 -1.30998,2 -0.99549,1.1 -2.03498,2 -2.30998,2 -0.275,0 0.31449,-0.9 1.30998,-2 z"
       style="fill:#303030" />
    <path
       id="path20"
       d="m 52.078947,166.41667 c 0.04798,-1.16495 0.284941,-1.4019 0.604167,-0.60417 0.288871,0.72187 0.253344,1.58437 -0.07895,1.91667 -0.332292,0.33229 -0.568641,-0.25834 -0.52522,-1.3125 z M 52.157895,162 c 0,-1.375 0.226973,-1.9375 0.504386,-1.25 0.277412,0.6875 0.277412,1.8125 0,2.5 -0.277413,0.6875 -0.504386,0.125 -0.504386,-1.25 z m -2.80294,-33.5 c -0.003,-4.95 0.166052,-7.10108 0.375776,-4.78017 0.209724,2.3209 0.212217,6.3709 0.0055,9 -0.206677,2.62909 -0.378269,0.73017 -0.381317,-4.21983 z m 44.897228,3 c 0.0111,-2.2 0.215885,-2.98225 0.455078,-1.73834 0.239193,1.24391 0.230112,3.04391 -0.02018,4 C 94.436788,134.71775 94.241084,133.7 94.252183,131.5 Z M 74.232003,129 c 0,-1.925 0.205795,-2.7125 0.457323,-1.75 0.251527,0.9625 0.251527,2.5375 0,3.5 -0.251528,0.9625 -0.457323,0.175 -0.457323,-1.75 z m 31.925887,-12 c 0,-1.375 0.22698,-1.9375 0.50439,-1.25 0.27741,0.6875 0.27741,1.8125 0,2.5 -0.27741,0.6875 -0.50439,0.125 -0.50439,-1.25 z M 223.8125,99.316886 c 0.72187,-0.288871 1.58437,-0.253344 1.91667,0.07895 0.33229,0.332292 -0.25834,0.568641 -1.3125,0.52522 -1.16495,-0.04798 -1.4019,-0.284941 -0.60417,-0.604167 z M 83.157895,61 c 0,-1.375 0.226973,-1.9375 0.504386,-1.25 0.277412,0.6875 0.277412,1.8125 0,2.5 -0.277413,0.6875 -0.504386,0.125 -0.504386,-1.25 z m -0.07895,-4.583333 c 0.04798,-1.164943 0.284941,-1.4019 0.604167,-0.604167 0.288871,0.721875 0.253344,1.584375 -0.07895,1.916667 -0.332292,0.332291 -0.568641,-0.258334 -0.52522,-1.3125 z M 126.25,40.310674 c 0.9625,-0.251527 2.5375,-0.251527 3.5,0 0.9625,0.251528 0.175,0.457323 -1.75,0.457323 -1.925,0 -2.7125,-0.205795 -1.75,-0.457323 z m -19.5,-3.972955 c 0.6875,-0.277412 1.8125,-0.277412 2.5,0 0.6875,0.277413 0.125,0.504386 -1.25,0.504386 -1.375,0 -1.9375,-0.226973 -1.25,-0.504386 z"
       style="fill:#311d0f" />
    <path
       id="path18"
       d="m 48,188.5 c -2.429029,-2.475 -4.191416,-4.5 -3.916416,-4.5 0.275,0 2.487387,2.025 4.916416,4.5 2.429029,2.475 4.191416,4.5 3.916416,4.5 -0.275,0 -2.487387,-2.025 -4.916416,-4.5 z"
       style="fill:#101010" />
    <path
       id="path16"
       d="m 259,84.622445 c 0,-0.207656 0.7875,-0.995156 1.75,-1.75 1.58606,-1.243871 1.62143,-1.208501 0.37756,0.377555 C 259.82119,84.915748 259,85.445479 259,84.622445 Z M 160,72.5 c 1.86578,-1.925 3.61733,-3.5 3.89233,-3.5 0.275,0 -1.02655,1.575 -2.89233,3.5 -1.86578,1.925 -3.61733,3.5 -3.89233,3.5 -0.275,0 1.02655,-1.575 2.89233,-3.5 z"
       style="fill:#0b0603" />
    <path
       id="path14"
       d="M 113.59401,222.39285 C 63.734414,213.38913 25.104578,175.1769 15.348903,125.20981 13.190456,114.15457 13.137293,92.401938 15.243483,82.074533 l 1.514363,-7.425467 -5.003923,-4.60112 C 3.5073176,62.465172 5.0644463,58.328167 18.886192,51.09882 23.073786,48.908534 31,44.393046 36.5,41.064403 42,37.735759 47.655824,35.00955 49.068499,35.006161 c 3.435252,-0.0082 11.63616,2.483001 18.137829,5.509842 7.537851,3.509233 10.801575,3.232239 17.783834,-1.509322 C 94.117202,32.808626 105,23.020375 105,21.00935 c 0,-1.483826 1.1347,-1.937949 6.25,-2.501331 9.98411,-1.099618 14.98785,-2.4328 18.97856,-5.056586 5.8021,-3.8147297 8.64469,-3.260646 19.00266,3.704036 8.04269,5.407897 9.70795,6.143211 13.71164,6.054539 4.01863,-0.089 5.70018,0.661883 14.23003,6.354343 9.15882,6.112202 9.76273,6.73377 11.3633,11.695462 C 191.22749,49.602734 192.44496,51 197.023,51 c 2.18729,0 8.09005,-1.322718 13.11724,-2.939373 l 9.14035,-2.939374 8.10971,2.534807 c 11.37041,3.55399 27.30925,11.409322 32.43231,15.984016 7.42849,6.633351 6.84645,13.908981 -1.73274,21.65977 l -4.03961,3.649543 0.61631,9.38253 c 3.10073,47.204151 -26.00714,94.484111 -70.86613,115.107981 -20.45024,9.40197 -48.15519,12.935 -70.20643,8.95295 z m 67.80045,-15.28786 c 4.6369,-2.14225 11.60591,-5.94902 15.48669,-8.45949 C 205.00571,193.38975 218.33453,181.00509 224.48178,173 239.70198,153.17989 248,128.55462 248,103.20715 c 0,-9.497323 -0.15808,-10.388071 -1.75,-9.860973 -0.9625,0.318693 -4.9,1.709559 -8.75,3.090815 -3.85,1.381256 -8.38745,2.522992 -10.08322,2.537191 -1.69577,0.0142 -5.61527,0.534326 -8.71,1.155837 -5.46685,1.0979 -5.84404,1.02684 -13.27057,-2.5 C 201.23212,95.633509 196.97913,94 195.9851,94 193.72637,94 189,99.486341 189,102.10827 c 0,1.07515 0.96695,4.75313 2.14877,8.17328 1.66544,4.81973 2.25542,9.40102 2.62291,20.36754 0.89274,26.64037 -2.94808,43.48464 -15.3248,67.20826 -3.54578,6.79654 -6.44688,12.53404 -6.44688,12.75 0,0.74832 1.00431,0.3739 9.39446,-3.50236 z M 77.770392,189.99856 c 5.930118,-3.61561 6.038647,-5.52015 0.948527,-16.6454 C 72.229573,159.16968 71,154.24781 71,142.45499 c 0,-9.96876 1.302971,-20.15755 2.764863,-21.62027 0.404325,-0.40456 0.751119,5.87963 0.770653,13.96486 0.03367,13.93481 0.204877,15.19282 3.28741,24.15508 3.758362,10.92717 7.319281,16.31149 10.484064,15.85251 1.279424,-0.18555 3.320633,-2.25644 5.155505,-5.23046 2.846651,-4.61395 3.033484,-5.52502 2.97351,-14.5 -0.05697,-8.52605 -0.346449,-10.01555 -2.638556,-13.57671 -1.65055,-2.5644 -2.803036,-6.11381 -3.211159,-9.8897 -0.35013,-3.23933 -1.988519,-8.96993 -3.640867,-12.73465 -2.653338,-6.04539 -2.933516,-7.57681 -2.398568,-13.1103 0.589793,-6.100809 0.505214,-6.399721 -3.220578,-11.381905 -2.104452,-2.814106 -4.325567,-5.964106 -4.93581,-7 C 75.326193,85.576828 75.02449,85.622374 68.994251,88.5 63.089154,91.317908 62.079123,91.483502 52.353785,91.22819 43.420076,90.99366 42,91.175627 42,92.554915 c 0,1.083695 -0.834556,0.606722 -2.591224,-1.480959 -1.747699,-2.077023 -3.843559,-3.279752 -6.438268,-3.694663 -2.115874,-0.338342 -4.0857,-1.237095 -4.377391,-1.99723 -0.881915,-2.298234 -4.434315,-1.55406 -6.320064,1.323958 -2.835377,4.327332 -2.370846,19.805249 1.05926,35.293979 5.016942,22.65413 5.74587,24.86315 10.717112,32.47833 4.665033,7.14612 8.111458,9.76079 10.16241,7.70984 0.569663,-0.56967 1.168182,-8.35664 1.37193,-17.84934 0.458002,-21.33862 1.174804,-30.64075 2.841971,-36.88101 1.209985,-4.52902 1.315066,-3.18478 1.214955,15.54218 -0.07546,14.11497 0.323861,22.52452 1.282064,27 0.76541,3.575 1.295373,9.04083 1.177695,12.14629 -0.276867,7.30641 1.337223,10.98131 8.836335,20.11823 8.251269,10.05335 10.976219,11.3053 16.833607,7.73404 z m 68.891178,-9.08455 c 4.36451,-1.39532 4.83245,-3.42605 1.35933,-5.89913 -8.05987,-5.73913 -20.93187,-7.01522 -28.14185,-2.78988 -5.26082,3.08304 -8.31588,6.25918 -7.41799,7.71199 1.17271,1.89748 3.10784,1.13428 6.31818,-2.49185 2.64843,-2.99146 3.45961,-3.38768 5.11825,-2.5 1.08407,0.58017 3.46311,1.05737 5.28677,1.06044 4.80385,0.008 10.98511,1.91135 10.22129,3.14724 -0.35511,0.57458 -2.05412,1.69656 -3.7756,2.49329 -3.07368,1.42257 -3.03107,1.4381 2.37005,0.86363 3.025,-0.32175 6.92271,-1.03983 8.66157,-1.59573 z m -29.75908,-11.53819 c 5.8504,-2.34053 7.53428,-2.57296 15.57846,-2.1504 6.54712,0.34392 10.17297,1.06315 13.22921,2.62418 7.81549,3.99187 12.26298,2.2456 15.79204,-6.20062 2.9013,-6.94378 -1.25417,-8.50244 -11.08125,-4.15644 C 144.24833,162.22237 143,162.0629 143,158.54458 c 0,-2.59675 4.63237,-7.13282 10.99459,-10.76604 2.1945,-1.2532 3.99347,-2.56145 3.99771,-2.90722 0.0222,-1.81267 -12.19354,-4.81172 -19.7423,-4.84687 -2.8875,-0.0135 -5.25,-0.26738 -5.25,-0.56429 0,-0.29691 0.97063,-2.43441 2.15696,-4.75 2.93675,-5.73221 3.85787,-21.84701 1.50847,-26.39025 -1.54718,-2.99193 -1.51559,-3.12282 1.37551,-5.6988 3.27868,-2.921323 3.49315,-3.749805 1.79572,-6.936851 -1.88984,-3.548303 -4.04024,-4.618988 -9.33666,-4.648718 -5.46251,-0.03066 -11.5,2.830457 -11.5,5.449761 0,2.224667 -1.1527,1.856029 -3.53377,-1.130111 -1.80904,-2.268751 -2.60725,-2.551317 -5.61383,-1.98728 -1.92771,0.361642 -4.27924,1.22372 -5.22563,1.915731 -1.58761,1.160891 -1.6058,1.699298 -0.23517,6.961488 0.81703,3.13681 1.8033,12.23989 2.19171,20.22908 l 0.7062,14.52579 6.10524,0.11831 c 7.25205,0.14054 12.53533,1.15224 11.01984,2.11019 -0.59698,0.37735 -4.64698,1.41621 -9,2.30858 -9.50453,1.94842 -12.46793,3.27956 -13.47351,6.05223 -1.13344,3.12521 0.49806,5.22032 2.90438,3.72967 2.4156,-1.4964 5.08462,0.22136 9.22519,5.93725 3.58634,4.95079 3.66283,6.45245 0.40433,7.93712 -2.24881,1.02463 -2.88301,0.80351 -5.79761,-2.02143 -3.20211,-3.10361 -6.03084,-4.02704 -7.08938,-2.31429 -0.7985,1.29199 1.12375,7.16637 3.03671,9.28016 2.25385,2.49048 4.49573,2.35134 12.27779,-0.76197 z m -14.29192,-30.96036 c 1.07242,-4.27283 -0.29517,-21.58082 -2.10711,-26.66732 C 97.470973,103.2353 89.562003,99.990838 87.710159,106.5 c -0.952822,3.34913 0.05163,6.47972 3.428729,10.68639 1.674574,2.08592 2.324962,4.71857 2.909733,11.77808 C 94.857606,138.73075 95.904934,141 99.603393,141 c 1.702317,0 2.538977,-0.71907 3.007177,-2.58454 z m -1.52902,-51.140412 c 0.36058,-1.773723 1.38975,-4.34539 2.28703,-5.714816 C 104.26586,80.190806 105,78.845033 105,78.569626 105,78.294219 102.7399,77.769073 99.977555,77.402635 97.21521,77.036197 94.737201,76.3838 94.470868,75.952864 94.204535,75.521928 95.114635,73.828782 96.493313,72.190316 99.630294,68.462226 99.617545,68.185293 96.25,66.904931 93.615602,65.903316 93.584074,65.81198 95.5,64.732194 c 2.649715,-1.493338 13.90707,-3.649331 19.29545,-3.695439 3.27894,-0.02806 4.92018,-0.661476 6.9353,-2.676597 l 2.63984,-2.639842 -3.3476,-2.991079 c -4.05963,-3.627282 -3.22793,-6.06562 2.2286,-6.533659 5.76382,-0.494398 10.10159,1.061972 10.75738,3.859688 0.5154,2.198826 1.15721,2.475196 6.38057,2.747578 4.14731,0.216269 6.42258,0.87972 7.95899,2.320781 1.71225,1.605979 3.22356,1.95245 7.40298,1.697156 6.26826,-0.382887 6.26771,0.444818 -0.003,5.129447 -2.54026,1.897626 -4.36169,3.866009 -4.04762,4.374185 0.32257,0.521932 3.34019,0.640249 6.93527,0.271923 C 162.1361,66.237716 165,66.322642 165,66.785059 c 0,0.462417 -1.39112,2.16245 -3.09138,3.77785 -4.64724,4.415306 -6.9868,8.069783 -6.30449,9.847842 0.47471,1.237099 1.24102,0.722633 3.43508,-2.30618 1.55323,-2.144172 4.41266,-5.110184 6.35429,-6.591138 2.65224,-2.022963 4.28585,-4.651997 6.56837,-10.570779 C 175.39563,52.038607 175.63502,49.455575 173.5,44.345757 171.619,39.843883 171.59804,40 174.08333,40 c 2.74808,0 2.35431,-0.669554 -3.68703,-6.269331 C 165.74995,29.423931 164.85222,29 160.37843,29 c -3.59402,0 -5.90251,0.671602 -8.59324,2.5 -2.0235,1.375 -4.00489,2.5 -4.40311,2.5 -0.39821,0 -3.45959,1.330135 -6.80305,2.955856 -4.75925,2.314128 -7.66415,3.009334 -13.38025,3.202181 -6.96864,0.235104 -7.40523,0.115887 -9.58449,-2.617165 -1.61465,-2.024962 -2.69778,-2.606914 -3.69878,-1.987309 -0.77853,0.481899 -4.20501,0.751344 -7.61439,0.598768 -3.40939,-0.152576 -7.151852,0.232599 -8.316586,0.855946 -2.596178,1.389432 -8.504157,7.786518 -12.331127,13.35199 -2.745115,3.992155 -2.823908,4.44275 -2.210221,12.639733 0.496246,6.628321 1.040028,8.783526 2.469519,9.787597 1.443349,1.013806 1.731081,2.193103 1.353157,5.546038 -0.404752,3.59095 -0.04494,4.775464 2.295514,7.556936 5.056816,6.009685 10.448184,6.657612 11.520174,1.384477 z m 123.8589,1.973398 c 5.75312,-2.923752 5.10492,-4.327045 -1.67155,-3.618763 -4.50555,0.470924 -6.66571,0.21648 -9.17398,-1.080597 -3.78324,-1.956388 -4.5726,-1.58844 -3.73675,1.74183 1.14155,4.548302 8.51103,6.042956 14.58228,2.95753 z M 63.768471,84.452272 C 67.41237,82.929754 72,79.312866 72,77.962533 72,76.954408 56.267151,73.998317 50.90655,73.999223 48.380153,73.999651 43.767653,73.124238 40.65655,72.053861 37.545448,70.983485 35,70.351554 35,70.649569 c 0,0.298016 0.760757,1.829706 1.690571,3.403756 2.004082,3.392639 4.756782,4.576311 12.7162,5.468017 7.637817,0.855677 8.294004,1.150314 9.022034,4.051016 0.72027,2.869787 0.617688,2.852883 5.339666,0.879914 z M 252.71855,78.78416 c 2.9048,-2.868712 5.28145,-5.793712 5.28145,-6.5 0,-1.718394 -3.45973,-1.640067 -4.91318,0.111233 -0.63694,0.767466 -2.67139,1.679293 -4.521,2.026282 C 243.33828,75.402366 237.22164,81 241.37756,81 c 0.75765,0 1.93775,0.675 2.62244,1.5 1.94552,2.344205 3.06572,1.866776 8.71855,-3.71584 z M 24,66.5 C 24,64.317691 23.562732,64 20.559017,64 18.666476,64 16.827736,64.469712 16.472927,65.043805 15.411644,66.760998 18.043031,69 21.122445,69 23.52517,69 24,68.587471 24,66.5 Z m 180.92482,-6 c 0.005,-0.55 -0.87639,0.06235 -1.95809,1.360784 -1.0817,1.298431 -1.94787,3.323431 -1.92481,4.5 0.034,1.737497 0.40174,1.481958 1.95808,-1.360784 1.05389,-1.925 1.92006,-3.95 1.92482,-4.5 z M 287,159 v -19 h 6 c 5.33333,0 6,0.22222 6,2 0,1.61905 -0.66667,2 -3.5,2 H 292 v 6 6 h 3 c 2.33333,0 3,0.44444 3,2 0,1.55556 -0.66667,2 -3,2 h -3 v 9 c 0,8.93333 -0.0185,9 -2.5,9 H 287 Z m 44,0 v -19 h 6.5 c 5.83333,0 6.5,0.20513 6.5,2 0,1.66667 -0.66667,2 -4,2 h -4 v 5.5 c 0,5.2 0.13636,5.5 2.5,5.5 1.83333,0 2.5,0.53333 2.5,2 0,1.46667 -0.66667,2 -2.5,2 -2.42857,0 -2.5,0.2 -2.5,7 v 7 h 4 c 3.6,0 4,0.25 4,2.5 0,2.41026 -0.23333,2.5 -6.5,2.5 H 331 Z m 46,0 v -19 h 6 c 5.33333,0 6,0.22222 6,2 0,1.61905 -0.66667,2 -3.5,2 H 382 v 5.5 c 0,5.2 0.13636,5.5 2.5,5.5 1.83333,0 2.5,0.53333 2.5,2 0,1.46667 -0.66667,2 -2.5,2 -2.42857,0 -2.5,0.2 -2.5,7 v 7 h 3.5 c 3.06667,0 3.5,0.30952 3.5,2.5 0,2.38889 -0.26667,2.5 -6,2.5 h -6 z m 45,0 v -19 h 5.80887 c 9.4859,0 9.63632,0.26878 10.01277,17.89109 0.31964,14.96269 0.3059,15.07228 -2.20454,17.58272 C 433.5229,177.56801 432.1426,178 427.54545,178 H 422 Z m 10.5,-0.5 v -14 l -2.75,-0.31642 -2.75,-0.31642 V 158.5 173.13284 l 2.75,-0.31642 L 432.5,172.5 Z M 470,159 v -19 h 6.5 c 5.83333,0 6.5,0.20513 6.5,2 0,1.66667 -0.66667,2 -4,2 h -4 v 5.5 c 0,5.44444 0.0303,5.5 3,5.5 2.33333,0 3,0.44444 3,2 0,1.55556 -0.66667,2 -3,2 h -3 v 7 7 h 4 c 3.6,0 4,0.25 4,2.5 0,2.41026 -0.23333,2.5 -6.5,2.5 H 470 Z m 46,0 v -19 h 5.92742 c 5.21242,0 6.17743,0.31783 8,2.63486 2.55797,3.25193 2.83682,10.86318 0.49288,13.45321 -1.22106,1.34925 -1.33458,2.20359 -0.5,3.763 0.59383,1.1096 1.0797,5.64703 1.0797,10.08319 0,7.93679 -0.04,8.06574 -2.5,8.06574 -2.47059,0 -2.5,-0.1 -2.5,-8.5 0,-8.4 -0.0294,-8.5 -2.5,-8.5 -2.47059,0 -2.5,0.1 -2.5,8.5 0,8.4 -0.0294,8.5 -2.5,8.5 H 516 Z m 10.5,-9 c 0,-5.25662 -0.12169,-5.514 -2.75,-5.81642 -2.73546,-0.31475 -2.75,-0.284 -2.75,5.81642 0,6.10042 0.0145,6.13117 2.75,5.81642 2.62831,-0.30242 2.75,-0.5598 2.75,-5.81642 z m 39.5,26 c -1.11111,-1.11111 -2,-3.33333 -2,-5 0,-2.5115 0.39627,-3 2.43358,-3 1.91143,0 2.50147,0.59003 2.75,2.75 0.40029,3.47891 4.29676,4.46265 5.28931,1.3354 0.67988,-2.14211 -0.94907,-6.10493 -6.95507,-16.91995 -4.15646,-7.48455 -4.38195,-10.39223 -1.06327,-13.7109 4.56148,-4.56149 12.54545,-1.86694 12.54545,4.23401 0,3.27608 -4.71595,3.33201 -5.18045,0.0614 -0.20974,-1.47682 -1.00682,-2.25 -2.31955,-2.25 -3.07769,0 -3.17804,4.87702 -0.19317,9.38747 7.46162,11.27527 9.6506,20.03111 5.86443,23.45754 C 574.6049,178.66754 568.47833,178.47833 566,176 Z m 106.66667,0.33333 c -1.38466,-1.38465 -0.57099,-1.9729 2.17207,-1.57031 3.06086,0.44924 6.16126,-1.78644 6.16126,-4.44286 0,-1.10757 -0.6471,-1.37456 -2.31617,-0.95566 -5.23237,1.31325 -8.81954,-5.12174 -4.85509,-8.70951 3.55668,-3.21875 7.96501,-1.33608 9.62535,4.11071 0.92965,3.04974 -1.10918,8.87931 -3.75312,10.7312 -2.22784,1.56044 -5.87645,1.99428 -7.0343,0.83643 z m 7.21868,-9.24131 C 682.21522,165.61649 680.44424,161 677.54834,161 c -2.83733,0 -4.3452,3.33491 -2.50851,5.54799 1.36972,1.65042 2.83819,1.81529 4.84552,0.54403 z M 689.5,176 c -0.35843,-0.57995 0.61547,-1 2.31854,-1 2.94659,0 4.36727,-1.08035 5.4561,-4.14903 0.47388,-1.33558 -0.0672,-1.63055 -2.84653,-1.55177 -4.07218,0.11543 -5.67811,-1.21984 -5.67811,-4.72112 0,-3.5273 1.95433,-5.57808 5.31574,-5.57808 5.2944,0 7.73783,7.6116 4.47125,13.92848 -1.95936,3.78898 -7.44191,5.65241 -9.03699,3.07152 z m 7.44314,-8.9437 c 1.18061,-0.74697 1.22433,-1.39332 0.24033,-3.55297 -1.55777,-3.41893 -5.519,-3.16657 -6.02096,0.38358 -0.48527,3.43206 2.64922,5.15063 5.78063,3.16939 z m -93.18088,3.87046 c -3.05499,-1.77986 -4.0686,-4.77297 -2.71941,-8.03021 2.209,-5.333 9.12069,-5.01172 9.77357,0.45431 0.29659,2.48308 0.0615,2.64914 -3.75,2.64914 -2.92468,0 -4.06642,0.41581 -4.06642,1.48095 0,1.65657 4.18377,3.04624 6.49776,2.15828 0.82623,-0.31705 1.50224,-0.19307 1.50224,0.27552 0,0.46859 -1.0125,1.12333 -2.25,1.45496 -2.86671,0.76825 -2.91638,0.76384 -4.98774,-0.44295 z M 608.75,162.75 c -0.22917,-0.6875 -1.46667,-1.25 -2.75,-1.25 -1.28333,0 -2.52083,0.5625 -2.75,1.25 -0.27485,0.82456 0.66111,1.25 2.75,1.25 2.08889,0 3.02485,-0.42544 2.75,-1.25 z m 8.32567,8.31793 c -1.06934,-0.67678 -0.71472,-0.9845 1.42289,-1.23469 3.74906,-0.4388 4.33852,-2.56449 1.0571,-3.81208 -3.15276,-1.19868 -4.21897,-3.51699 -2.54509,-5.53389 C 618.38764,158.82799 624,158.43673 624,160 c 0,0.55 -1.35,1 -3,1 -3.85013,0 -3.86511,1.84719 -0.0267,3.29601 3.83841,1.44884 4.47184,3.25888 2.00405,5.72667 -2.15811,2.15811 -3.7092,2.43283 -5.90165,1.04525 z M 631.75,170.9199 c -1.24391,-0.72451 -1.75,-2.2822 -1.75,-5.38626 0,-2.5158 -0.52988,-4.61425 -1.25,-4.95031 -1,-0.46666 -1,-0.7 0,-1.16666 0.6875,-0.32084 1.25,-1.22084 1.25,-2 0,-0.77917 0.675,-1.41667 1.5,-1.41667 0.825,0 1.5,0.675 1.5,1.5 0,0.825 0.675,1.5 1.5,1.5 0.825,0 1.5,0.45 1.5,1 0,0.55 -0.675,1 -1.5,1 -1.11111,0 -1.5,1.16667 -1.5,4.5 0,3.87633 0.28537,4.5 2.05902,4.5 1.13246,0 1.7809,0.45 1.44098,1 -0.77875,1.26005 -2.49891,1.23104 -4.75,-0.0801 z M 642,170 c 0,-0.55 0.45,-1 1,-1 0.55,0 1,0.45 1,1 0,0.55 -0.45,1 -1,1 -0.55,0 -1,-0.45 -1,-1 z m 15,0 c 0,-0.55 0.9,-1 2,-1 1.63133,0 2,-0.66667 2,-3.61663 0,-3.1243 -0.27226,-3.54544 -2,-3.09362 -2.92019,0.76365 -2.44838,-1.16878 0.5651,-2.3145 C 663.66187,158.41766 664,158.72452 664,164 c 0,4.33333 0.26667,5 2,5 1.1,0 2,0.45 2,1 0,0.55 -2.475,1 -5.5,1 -3.025,0 -5.5,-0.45 -5.5,-1 z m 48,0 c 0,-0.55 0.9,-1 2,-1 1.63133,0 2,-0.66667 2,-3.61663 0,-3.1243 -0.27226,-3.54544 -2,-3.09362 -2.92019,0.76365 -2.44838,-1.16878 0.5651,-2.3145 C 711.66187,158.41766 712,158.72452 712,164 c 0,3.77778 0.36667,5 1.5,5 0.825,0 1.5,0.45 1.5,1 0,0.55 -2.25,1 -5,1 -2.75,0 -5,-0.45 -5,-1 z M 288.08145,127.25 c 0.47896,-2.0625 0.87084,-24.225 0.87084,-49.25 0,-25.025 -0.39188,-47.1875 -0.87084,-49.25 L 287.21062,25 h 13.8058 13.80579 l 2.5889,3.076725 L 320,31.153451 v 20.24896 20.248961 L 317.5,74 c -1.375,1.291745 -2.5,2.91066 -2.5,3.597589 0,0.686928 1.125,2.585947 2.5,4.220042 2.48456,2.952732 2.5,3.094775 2.5,22.999999 v 20.02892 l -2.58889,3.07672 -2.5889,3.07673 h -13.80579 -13.8058 z M 309.5,101 V 84.5 h -5 -5 l -0.27442,16.80311 -0.27442,16.8031 5.27442,-0.3031 L 309.5,117.5 Z m 0.28707,-45 c 0.37953,-19.170479 0.37497,-19.185859 -5.56954,-18.803465 L 299.5,37.5 299.22558,54.303106 298.95116,71.106213 304.22558,70.803106 309.5,70.5 Z M 328.5,78 V 25 h 15.23095 c 17.23414,0 15.45137,-0.976526 16.76576,9.18356 l 0.60591,4.68356 -3.54053,-0.977587 c -1.94729,-0.537673 -6.80788,-0.845275 -10.80131,-0.68356 L 339.5,37.5 V 54 70.5 l 5.25,-0.0427 5.25,-0.0427 v 7.653766 7.653767 l -3.84692,-1.026801 c -7.18653,-1.918196 -7.23759,-1.796361 -6.92796,16.532818 L 339.5,117.5 h 10.77511 10.7751 l -0.5797,4.5 c -1.28096,9.9436 0.4741,9 -16.73956,9 H 328.5 Z m 38,0 V 25 h 15.61408 15.61407 l 0.63593,4.639571 C 398.71383,32.191335 399,35.317927 399,36.587552 c 0,2.104303 -0.25231,2.220455 -2.85353,1.313663 -1.56944,-0.547111 -6.18194,-0.861202 -10.25,-0.697981 L 378.5,37.5 378.22538,54.348174 377.95075,71.196348 382.976,70.848174 388.00124,70.5 l -6.2e-4,7.656399 -6.2e-4,7.6564 -3.41198,-1.047166 C 378.10811,82.776891 378,83.052481 378,101.55964 v 16.62241 l 10.50112,-0.34103 c 11.75342,-0.38169 10.92647,-1.04562 9.8509,7.90898 l -0.6306,5.25 H 382.11071 366.5 Z m 39,0 V 25 h 15.20469 15.20468 l 0.54532,3.5 c 0.29992,1.925 0.78464,5.042683 1.07715,6.928184 l 0.53184,3.428184 -3.52106,-0.972211 c -1.93658,-0.534716 -6.78841,-0.839899 -10.78184,-0.678184 L 416.5,37.5 416.22525,54.375883 415.9505,71.251765 421.47525,70.79361 427,70.335455 v 7.89966 c 0,7.753989 -0.0415,7.885445 -2.25,7.128759 -1.2375,-0.423995 -3.6,-0.791819 -5.25,-0.817387 l -3,-0.04649 v 23.250813 23.25081 L 411,131.00081 405.5,131 V 77.999997 Z m 63,0 V 25 h 5.18261 c 4.07304,0 5.29283,0.374666 5.69741,1.75 0.28314,0.9625 3.03346,13.9 6.11183,28.75 3.07837,14.85 6.01319,27.9 6.52182,29 0.58444,1.263951 0.8441,-9.317025 0.70555,-28.750735 L 492.5,24.99853 498,24.999265 503.5,25 v 53.042444 53.042446 l -5.43491,-0.29245 -5.4349,-0.29244 -6.1702,-29.27177 c -3.39361,-16.09947 -6.48563,-29.587201 -6.87116,-29.972732 -0.38553,-0.385532 -0.56323,12.899606 -0.3949,29.522532 L 479.5,131.00152 474,131.00076 468.5,131 Z M 514.58889,127.92327 512,124.84655 V 78 31.153451 L 514.58889,28.076725 517.17779,25 h 10.72305 C 544.32747,25 543,20.340396 543,78 c 0,57.6596 1.32747,53 -15.09916,53 H 517.17779 Z M 532.76147,78.25 532.5,38.5 h -5 -5 l -0.26212,38.49723 c -0.14416,21.173477 -0.0458,39.06098 0.21862,39.75 0.29721,0.77452 2.40585,1.25277 5.52359,1.25277 h 5.04286 z M 551.5,78 V 25 h 13.69911 13.69911 l 2.55089,3.344391 L 584,31.688782 V 54.5 c 0,22.791254 -0.002,22.814087 -2.5,26.088887 -1.375,1.802718 -2.5,4.618697 -2.5,6.257732 0,3.194521 3.66205,35.502591 4.63631,40.903381 l 0.58627,3.25 h -6.13034 c -5.94604,0 -6.1125,-0.0711 -5.53688,-2.36454 0.51163,-2.03851 -2.79308,-36.000852 -4.12432,-42.38546 -0.51199,-2.455486 -3.27163,-3.009414 -5.23104,-1.05 -1.46815,1.468155 -1.6971,37.57991 -0.26981,42.5566 L 563.86039,131 H 557.68019 551.5 Z m 22.01802,-8.25 c 0.30586,-1.2375 0.42693,-8.775 0.26905,-16.75 L 573.5,38.5 h -5.5 -5.5 l -0.27667,15.365404 c -0.18871,10.480509 0.0886,15.805588 0.87245,16.75 C 563.753,71.407315 566.11057,72 568.60339,72 c 3.68849,0 4.444,-0.345884 4.91463,-2.25 z m 29.27013,14.613332 0.28814,-46.637526 -6.82482,0.488314 -6.82481,0.488313 0.92741,-6.851217 L 591.28148,25 h 16.81395 16.81394 l 0.49842,3.25 c 0.27412,1.7875 0.74387,4.825 1.04387,6.75 l 0.54546,3.5 H 620.24856 613.5 v 46.250435 46.250435 l -5.5,-1e-5 h -5.5 z M 632.5,78 V 25 l 5.5,-7.3e-4 5.5,-7.31e-4 -0.33846,21.080215 c -0.18615,11.594118 -0.059,22.193506 0.28247,23.554196 0.56581,2.254355 1.03973,2.44704 5.33846,2.170515 L 653.5,71.5 V 48.249559 24.999118 l 6,4.41e-4 6,4.41e-4 v 53 53 l -6,4.4e-4 -6,4.4e-4 V 107.75044 84.5 l -4.71753,-0.303465 c -4.29873,-0.276525 -4.77265,-0.08384 -5.33846,2.170515 -0.34151,1.36069 -0.46862,11.960078 -0.28247,23.5542 L 643.5,131.00146 638,131.00073 632.5,131 Z m 51.2767,48.25062 C 684.02421,122.00124 673.05851,34.53268 671.42795,27.75 L 670.76685,25 h 6.22356 c 4.99309,0 6.1148,0.283439 5.67345,1.433594 -0.62527,1.629407 6.07015,62.06466 7.19476,64.942514 0.42145,1.078484 2.35817,-12.166708 4.55541,-31.154329 2.10224,-18.16674 3.51754,-33.523488 3.1451,-34.126108 C 697.09414,25.343298 698.97057,25 703.54797,25 c 5.72596,0 6.5786,0.227791 6.04616,1.615291 -0.67888,1.769143 6.36649,64.419738 7.38105,65.635581 0.85055,1.019295 8.37012,-64.883147 7.55395,-66.203742 C 724.1038,25.358936 726.09439,25 730.3363,25 h 6.45434 l -1.45162,5.75 c -2.04051,8.082703 -12.2078,93.05236 -11.6068,97 L 724.227,131 h -6.99066 -6.99067 l 0.43106,-4.25 c 0.42217,-4.16228 -6.08026,-57.486868 -7.13909,-58.545697 -0.2957,-0.2957 -0.54102,0.09986 -0.54516,0.87903 C 702.98834,69.8625 701.46162,82.65 699.59977,97.5 c -1.86185,14.85 -3.15739,28.4625 -2.87898,30.25 l 0.50621,3.25 -6.8635,6.2e-4 -6.8635,6.2e-4 z M 742.5,78 V 25 h 15.25 c 13.82933,0 15.2568,0.163027 15.323,1.75 0.0402,0.9625 0.41011,4.117419 0.82213,7.010932 0.71734,5.037765 0.66122,5.228653 -1.32301,4.5 C 771.43246,37.842419 766.675,37.5 762,37.5 h -8.5 l -0.27462,16.848174 -0.27463,16.848174 5.02525,-0.348174 5.02524,-0.348174 -6.2e-4,7.656399 -6.2e-4,7.6564 -3.41198,-1.047166 C 753.10729,82.776639 753,83.050457 753,101.57924 v 16.64201 l 10.77407,-0.36877 10.77408,-0.36878 -0.91482,6.75815 L 772.71852,131 H 757.60926 742.5 Z m 40.75,50.03651 c -1.78863,-2.26785 -2.25489,-4.15325 -2.27386,-9.19467 -0.0131,-3.48801 -0.41573,-8.02934 -0.89469,-10.09184 L 779.21062,105 h 6.27954 6.27953 l -0.52634,6.55717 -0.52635,6.55716 5.3915,-0.30716 L 801.5,117.5 V 101 84.5 L 793.33414,84 c -7.35497,-0.450349 -8.37282,-0.763917 -10.25,-3.157729 -1.98183,-2.52726 -2.08259,-3.828163 -2.05254,-26.5 0.0315,-23.777875 0.0381,-23.849699 2.45204,-26.592271 2.36639,-2.688604 2.6615,-2.748765 13.21839,-2.694671 10.51009,0.05385 10.85399,0.12717 12.8993,2.75 1.71152,2.194788 2.20416,4.596127 2.65562,12.944671 L 812.81123,51 h -5.75233 -5.75234 l 0.0967,-6.25 0.0967,-6.25 -5.27442,-0.303106 -5.27442,-0.303107 0.27442,16.803107 L 791.5,71.5 l 7.83547,0.293603 c 7.08012,0.265299 8.06519,0.554505 10.2184,3 2.3692,2.690806 2.38293,2.844658 2.38293,26.706397 0,23.96551 -0.003,24.00395 -2.42044,26.75 -2.36639,2.6886 -2.6615,2.74876 -13.21839,2.69467 -10.65344,-0.0546 -10.82809,-0.0935 -13.04797,-2.90816 z M 831.5,84.750398 V 38.5 h -6.74856 -6.74856 l 0.49856,-3.25 c 0.27421,-1.7875 0.74395,-4.825 1.04387,-6.75 l 0.54532,-3.5 h 16.81394 16.81395 l 0.91416,6.75 0.91416,6.75 H 849.02342 842.5 v 46.250337 46.250333 l -5.5,6e-5 -5.5,7e-5 z"
       style="fill:#000000" />
  </g>
</svg>
