<?xml version="1.0" encoding="UTF-8" standalone="no"?>
<svg
   xmlns:dc="http://purl.org/dc/elements/1.1/"
   xmlns:cc="http://creativecommons.org/ns#"
   xmlns:rdf="http://www.w3.org/1999/02/22-rdf-syntax-ns#"
   xmlns:svg="http://www.w3.org/2000/svg"
   xmlns="http://www.w3.org/2000/svg"
   xmlns:sodipodi="http://sodipodi.sourceforge.net/DTD/sodipodi-0.dtd"
   xmlns:inkscape="http://www.inkscape.org/namespaces/inkscape"
   inkscape:version="1.0 (4035a4fb49, 2020-05-01)"
   sodipodi:docname="Beef Northwest Feeders - Logo - Horizontal Version.ai.svg"
   viewBox="0 0 1152 318.66666"
   height="318.66666"
   width="1152"
   xml:space="preserve"
   id="svg256"
   version="1.1"><metadata
     id="metadata262"><rdf:RDF><cc:Work
         rdf:about=""><dc:format>image/svg+xml</dc:format><dc:type
           rdf:resource="http://purl.org/dc/dcmitype/StillImage" /><dc:title></dc:title></cc:Work></rdf:RDF></metadata><defs
     id="defs260"><clipPath
       id="clipPath272"
       clipPathUnits="userSpaceOnUse"><path
         id="path270"
         d="M 0,239 H 864 V 0 H 0 Z" /></clipPath><clipPath
       id="clipPath292"
       clipPathUnits="userSpaceOnUse"><path
         id="path290"
         d="M 0,239 H 864 V 0 H 0 Z" /></clipPath><clipPath
       id="clipPath308"
       clipPathUnits="userSpaceOnUse"><path
         id="path306"
         d="M 0,239 H 864 V 0 H 0 Z" /></clipPath></defs><sodipodi:namedview
     inkscape:current-layer="g264"
     inkscape:window-maximized="1"
     inkscape:window-y="27"
     inkscape:window-x="56"
     inkscape:cy="159.33333"
     inkscape:cx="576"
     inkscape:zoom="1.2942708"
     showgrid="false"
     id="namedview258"
     inkscape:window-height="1016"
     inkscape:window-width="1864"
     inkscape:pageshadow="2"
     inkscape:pageopacity="0"
     guidetolerance="10"
     gridtolerance="10"
     objecttolerance="10"
     borderopacity="1"
     bordercolor="#666666"
     pagecolor="#ffffff" /><g
     transform="matrix(1.3333333,0,0,-1.3333333,0,318.66667)"
     inkscape:label="Beef Northwest Feeders - Logo - Horizontal Version"
     inkscape:groupmode="layer"
     id="g264"><g
       id="g266"><g
         clip-path="url(#clipPath272)"
         id="g268"><g
           transform="translate(259.4541,163.3784)"
           id="g274"><path
             id="path276"
             style="fill:#c7763e;fill-opacity:1;fill-rule:nonzero;stroke:none"
             d="m 0,0 c -0.663,-0.719 -1.436,-1.335 -2.148,-2.01 -2.65,-2.51 -5.301,-5.018 -7.937,-7.542 -0.851,-0.814 -1.218,-0.821 -1.829,0.186 -1.29,2.124 -3.242,3.051 -5.637,3.226 -0.071,0.005 -0.138,0.039 -0.309,0.089 2.225,2.547 4.756,4.46 8.069,5.167 0.799,0.171 1.602,0.326 2.399,0.503 1.528,0.339 2.797,1.047 3.901,2.222 0.648,0.69 1.683,1.022 2.557,1.491 0.112,0.06 0.332,0.022 0.451,-0.053 C 0.634,2.578 0.897,0.974 0,0 m -22.82,-82.823 c -14.03,-25.976 -35.185,-43.786 -63.015,-54.04 2.169,3.701 4.299,7.163 6.265,10.717 5.936,10.73 10.716,21.933 13.635,33.882 1.488,6.091 2.35,12.268 2.539,18.529 0.167,5.562 0.338,11.13 0.275,16.692 -0.069,6.165 -0.371,12.336 -1.901,18.354 -0.733,2.882 -1.847,5.63 -3.218,8.288 -0.335,0.65 -0.142,1.656 0.014,2.459 0.681,3.503 2.857,5.942 5.816,7.733 1.117,0.676 2.379,0.441 3.477,-0.076 2.316,-1.09 4.568,-2.315 6.858,-3.461 1.655,-0.828 3.292,-1.71 5.004,-2.402 2.173,-0.88 4.463,-1.033 6.752,-0.478 2.58,0.626 5.186,0.96 7.837,1.126 7.065,0.442 13.693,2.536 20.063,5.534 0.786,0.37 1.566,0.755 2.512,1.212 1.946,-22.701 -2.132,-44.107 -12.913,-64.069 m -68.336,86.42 c -1.583,-1.337 -3.303,-2.513 -4.886,-3.85 -0.733,-0.62 -1.374,-1.4 -1.891,-2.213 -1.05,-1.652 -1.989,-3.375 -2.985,-5.089 -1.008,1.295 -1.039,2.998 0.111,4.481 1.015,1.309 2.207,2.486 3.362,3.68 1.1,1.138 2.267,2.21 3.38,3.335 1.306,1.32 1.836,2.966 2.011,4.866 -4.725,-0.966 -9.361,-1.956 -14.273,-0.618 0.587,0.416 1.027,0.725 1.463,1.038 1.994,1.433 3.999,2.851 5.976,4.308 1.622,1.194 2.679,2.838 3.615,4.74 -0.3,-0.04 -0.495,-0.056 -0.686,-0.093 -1.899,-0.361 -3.795,-0.745 -5.698,-1.086 -3.785,-0.677 -6.644,0.9 -8.912,3.781 -0.402,0.512 -0.799,0.688 -1.427,0.681 -2.512,-0.034 -5.025,-0.015 -7.537,-0.013 -0.327,0 -0.655,0 -0.982,0.022 -1.907,0.127 -2.443,0.73 -2.354,2.632 0.09,1.908 0.002,2.152 -1.735,2.705 -3.76,1.197 -7.618,1.638 -11.552,1.196 -1.134,-0.127 -2.164,-0.565 -2.976,-1.407 -1.145,-1.186 -1.059,-2.667 0.222,-3.698 1.274,-1.026 2.626,-1.964 3.833,-3.061 1.357,-1.232 1.358,-2.009 0.099,-3.322 -2.001,-2.086 -4.356,-3.443 -7.372,-3.292 -1.551,0.077 -3.108,0.151 -4.763,0.231 -2.024,-1.22 -4.217,-1.863 -6.612,-1.542 -0.98,-0.29 -1.984,-0.495 -3.016,-0.602 -2.226,-0.231 -6.003,-1.711 -7.983,-3.22 1.187,-0.434 2.318,-0.845 3.448,-1.259 1.117,-0.41 2.234,-0.824 3.436,-1.266 -2.337,-2.662 -4.598,-5.237 -6.965,-7.933 4.399,-0.752 8.612,-1.474 13.093,-2.241 -3.968,-3.392 -5.416,-7.697 -5.396,-12.699 -0.829,0.163 -1.496,0.26 -2.145,0.428 -3.226,0.838 -6.241,2.115 -8.345,4.825 -2.13,2.744 -2.974,5.835 -2.044,9.303 0.716,2.668 0.26,3.533 -2.339,4.609 -0.804,0.332 -0.928,1.025 -1.012,1.728 -0.168,1.408 -0.312,2.82 -0.424,4.234 -0.292,3.726 -0.638,7.452 -0.248,11.194 0.121,1.156 0.411,2.24 1.1,3.209 3.327,4.685 7.076,9.001 11.068,13.134 2.189,2.266 4.775,2.444 7.596,2.244 2.503,-0.177 5.012,-0.27 7.517,-0.429 1.359,-0.087 2.431,0.375 3.318,1.413 0.712,0.834 1.069,0.757 1.686,-0.164 0.711,-1.064 1.387,-2.161 2.188,-3.154 1.16,-1.436 2.676,-2.139 4.582,-2.084 3.79,0.111 7.59,0.031 11.338,0.735 0.797,0.15 1.56,0.472 2.345,0.692 0.853,0.239 1.702,0.508 2.561,0.721 2.731,2.326 6.787,3.992 10.116,4.811 0.019,0.017 0.036,0.042 0.056,0.057 1.247,0.97 2.576,1.833 3.855,2.764 1.611,1.171 3.402,1.868 5.386,1.94 1.957,0.07 3.92,0.081 5.876,10e-4 1.11,-0.046 1.88,-0.714 2.581,-1.639 2.151,-2.836 4.554,-5.433 7.834,-7.036 0.63,-0.308 1.221,-0.697 1.955,-1.12 -1.942,-0.547 -3.743,-1.055 -5.6,-1.577 0.362,-0.547 0.702,-1.037 1.019,-1.541 2.542,-4.049 3.308,-8.31 1.873,-12.98 -1.367,-4.45 -3.183,-8.705 -5.247,-12.852 -0.52,-1.045 -1.567,-1.875 -2.494,-2.658 m -3.916,-89.969 c -0.27,-1.294 -0.668,-2.592 -1.221,-3.791 -1.093,-2.37 -2.631,-4.453 -4.507,-6.286 -1.504,-1.468 -3.243,-2.018 -5.244,-1.336 -1.388,0.473 -2.798,0.976 -4.059,1.706 -3.968,2.3 -8.281,3.14 -12.782,3.268 -3.055,0.088 -6.113,0.086 -9.168,0.164 -2.12,0.054 -4.095,-0.47 -6.03,-1.282 -2.713,-1.139 -5.439,-2.248 -8.174,-3.336 -3.337,-1.326 -5.249,-0.329 -7.242,2.538 -1.345,1.935 -1.91,4.148 -2.107,6.461 -0.071,0.826 -0.041,1.697 0.821,2.157 0.905,0.483 1.901,0.525 2.714,-0.111 0.806,-0.632 1.479,-1.436 2.188,-2.186 0.767,-0.812 1.433,-1.735 2.274,-2.458 2.203,-1.893 5.737,-1.284 7.293,1.176 0.421,0.668 0.409,1.374 0.1,2.038 -0.515,1.109 -1.036,2.229 -1.69,3.258 -1.478,2.327 -2.962,4.674 -5.192,6.382 -0.902,0.69 -1.894,1.28 -2.898,1.816 -0.715,0.381 -1.418,0.301 -2.1,-0.312 -0.862,-0.775 -1.946,-1.154 -3.097,-1.281 -0.925,2.493 -0.399,6.008 2.841,7.227 2.54,0.956 5.18,1.693 7.826,2.307 3.159,0.731 6.376,1.212 9.561,1.837 0.577,0.114 1.152,0.338 1.675,0.613 0.716,0.377 1.046,1.009 0.889,1.906 -5.735,1.322 -11.567,1.042 -17.599,0.819 0,1.971 0.074,3.821 -0.014,5.663 -0.323,6.812 -0.59,13.63 -1.096,20.429 -0.353,4.741 -1.437,9.378 -2.936,13.898 -0.229,0.692 -0.077,1.024 0.507,1.36 2.557,1.479 5.313,2.268 8.253,2.353 2.057,0.059 3.049,-0.656 3.799,-2.573 0.408,-1.044 0.772,-2.096 1.733,-2.809 0.527,-0.391 0.828,-0.32 1.011,0.3 0.015,0.052 0.041,0.102 0.054,0.154 0.995,4.105 3.945,6.033 7.784,6.922 2.552,0.59 5.148,0.792 7.701,0.092 3.408,-0.933 5.667,-3.054 6.335,-6.64 0.252,-1.353 -0.159,-2.504 -1.22,-3.361 -0.783,-0.631 -1.651,-1.158 -2.475,-1.739 -1.49,-1.051 -1.879,-2.012 -1.258,-3.734 0.45,-1.248 1.062,-2.451 1.715,-3.611 0.759,-1.349 0.986,-2.761 0.809,-4.261 -0.446,-3.767 -0.795,-7.53 -0.772,-11.34 0.02,-3.363 -1.299,-6.442 -2.749,-9.425 -0.758,-1.561 -1.622,-3.07 -2.436,-4.598 1.489,0 2.977,0.05 4.461,-0.009 5.712,-0.223 11.38,-0.797 16.855,-2.563 1.106,-0.357 2.155,-0.909 3.194,-1.444 0.492,-0.253 0.897,-0.676 1.438,-1.098 -1.075,-0.557 -2.007,-1.055 -2.952,-1.529 -3.991,-2.004 -7.52,-4.639 -10.603,-7.859 -1.532,-1.601 -2.388,-3.454 -1.631,-5.738 0.518,-1.561 1.407,-2.075 2.951,-1.486 2.061,0.786 4.091,1.659 6.103,2.565 1.792,0.808 3.545,1.741 5.537,1.899 0.961,0.076 1.966,0.008 2.908,-0.197 1.515,-0.33 2.238,-1.397 1.922,-2.915 m -12.791,-18.782 c -0.953,-1.005 -2.167,-1.496 -3.454,-1.731 -4.18,-0.762 -8.374,-1.444 -12.564,-2.152 -0.372,-0.063 -0.75,-0.088 -1.144,-0.054 1.142,0.393 2.298,0.749 3.422,1.19 0.936,0.367 1.845,0.809 2.743,1.263 0.383,0.195 0.737,0.472 1.056,0.764 0.982,0.9 0.929,1.831 -0.259,2.408 -1.017,0.495 -2.121,0.945 -3.229,1.095 -3.156,0.43 -6.336,0.67 -9.5,1.046 -0.815,0.097 -1.72,0.243 -2.38,0.677 -1.504,0.989 -2.54,1.106 -4.394,-0.695 -0.477,-0.464 -0.847,-1.076 -1.142,-1.681 -0.886,-1.815 -2.434,-2.898 -4.097,-3.873 -0.445,-0.261 -0.827,-0.199 -1.147,0.219 -0.462,0.605 -0.928,1.206 -1.519,1.972 1.701,1.431 3.327,2.923 5.081,4.246 2.965,2.238 6.203,3.947 9.914,4.623 2.182,0.397 4.353,0.167 6.518,-0.085 4.878,-0.569 9.5,-1.934 13.662,-4.621 0.822,-0.531 1.62,-1.115 2.365,-1.749 1.199,-1.021 1.162,-1.708 0.068,-2.862 m -52.581,38.984 c -0.553,0.108 -1.185,0.926 -1.377,1.546 -0.425,1.366 -0.731,2.802 -0.835,4.227 -0.17,2.335 -0.143,4.686 -0.196,7.03 -0.054,2.382 -0.352,4.723 -1.102,6.998 -0.73,2.215 -1.902,4.13 -3.546,5.802 -2.338,2.377 -2.927,5.232 -1.882,8.376 0.559,1.68 1.641,3.063 3.541,3.023 1.191,-0.025 2.455,-0.506 3.534,-1.072 1.908,-1 3.095,-2.756 3.915,-4.688 2.08,-4.898 3.497,-9.969 3.619,-15.334 0.035,-1.551 0.005,-3.105 0.005,-4.657 0.05,-0.002 0.099,-0.003 0.149,-0.005 -0.175,-3.648 -0.358,-7.296 -0.515,-10.945 -0.019,-0.452 -0.193,-0.686 -0.615,-0.664 -1.57,0.083 -3.164,0.065 -4.695,0.363 m -4.88,-30.803 c -0.104,-0.192 -0.213,-0.384 -0.327,-0.576 -0.591,-0.992 -1.359,-1.923 -2.211,-2.701 -1.155,-1.055 -2.2,-1.087 -3.38,-0.059 -0.972,0.848 -1.852,1.862 -2.561,2.941 -1.945,2.958 -3.191,6.257 -4.358,9.579 -1.854,5.278 -3.386,10.653 -4.513,16.132 -0.305,1.481 -0.361,3.037 -0.341,4.557 0.067,4.962 0.189,9.924 0.363,14.884 0.048,1.383 0.363,2.756 0.527,4.137 0.077,0.648 0.144,1.309 0.1,1.957 -0.026,0.39 -0.273,0.765 -0.42,1.146 -0.38,-0.18 -0.899,-0.263 -1.111,-0.563 -0.447,-0.633 -0.904,-1.345 -1.058,-2.086 -0.605,-2.933 -1.238,-5.872 -1.596,-8.84 -0.665,-5.508 -0.668,-11.049 -0.548,-16.594 0.169,-7.833 2.529,-15.063 5.854,-22.045 1.443,-3.027 2.91,-6.042 4.357,-9.067 0.294,-0.614 0.566,-1.241 0.809,-1.877 0.242,-0.632 0.342,-1.153 0.303,-1.59 2.436,-3.029 -3.794,-8.405 -6.477,-9.312 -3.307,-1.118 -6.098,0.242 -8.547,2.464 -0.822,0.214 -1.418,0.887 -1.686,1.7 -2.238,2.477 -4.189,5.412 -6.009,7.315 -2.552,2.667 -5.118,5.607 -6.062,9.279 -1.066,4.148 -0.512,8.74 -0.238,13.094 -1.351,5.242 -2.289,10.583 -2.839,16.017 -0.705,6.972 -0.589,13.951 -0.33,20.933 0.188,5.044 0.393,10.086 0.598,15.128 0.05,1.247 0.131,2.492 0.197,3.737 -0.067,0.035 -0.133,0.07 -0.2,0.105 -0.355,-0.584 -0.848,-1.127 -1.038,-1.76 -0.655,-2.187 -1.347,-4.377 -1.766,-6.615 -1.337,-7.152 -1.853,-14.373 -1.895,-21.655 -0.027,-4.834 -0.259,-9.666 -0.475,-14.498 0.036,-0.178 0.057,-0.367 0.057,-0.571 v -2.701 c 0.472,-2.141 0.692,-5.056 0,-7.12 v -3.737 c 0,-2.064 -2.076,-3.391 -3.939,-2.462 -3.019,1.503 -4.862,4.248 -6.04,7.29 -3.483,3.473 -5.772,8.644 -7.087,12.849 -1.393,4.451 -2.036,9.086 -2.827,13.669 -0.871,5.052 -2.242,10.004 -3.318,15.013 -1.854,8.627 -3.071,17.428 0.115,25.878 0.129,0.342 0.345,0.613 0.611,0.823 0.112,1.06 0.788,2.013 2.049,2.183 1.343,0.724 3.28,0.449 3.883,-1.429 0.209,-0.648 0.501,-1.204 0.85,-1.702 0.056,-0.009 0.11,-0.023 0.165,-0.031 0.713,0.819 1.845,1.188 3.047,0.412 0.298,-0.191 0.611,-0.368 0.929,-0.539 0.188,0.012 0.374,0.021 0.564,0.037 1.305,0.114 2.136,-0.588 2.487,-1.515 2.315,-1.128 4.383,-2.471 4.662,-5.413 0.025,-0.262 0.029,-0.529 0.034,-0.795 0.031,-0.025 0.067,-0.044 0.097,-0.071 0.086,0.515 0.173,1.03 0.257,1.545 0.052,0.321 0.157,0.635 0.251,0.948 0.488,1.635 0.667,1.861 2.395,1.837 3.054,-0.043 6.143,0.051 9.152,-0.376 5.854,-0.83 11.199,0.478 16.341,3.124 1.768,0.91 3.562,1.772 5.428,2.698 0.24,-0.444 0.495,-0.911 0.747,-1.379 1.98,-3.688 4.149,-7.238 7.097,-10.265 1.947,-2.001 2.316,-4.431 1.649,-7.07 -0.154,-0.608 -0.274,-1.229 -0.486,-1.817 -0.973,-2.71 -0.765,-5.389 0.311,-7.991 1.196,-2.895 2.452,-5.769 3.797,-8.597 1.366,-2.874 1.95,-5.881 1.93,-9.035 -0.006,-1.038 0.054,-2.079 -0.014,-3.112 -0.101,-1.556 0.398,-2.88 1.299,-4.114 1.061,-1.455 2.16,-2.892 3.083,-4.433 0.649,-1.083 1.144,-2.292 1.5,-3.506 0.361,-1.235 -0.111,-2.351 -1.005,-3.288 -0.02,-0.02 -0.04,-0.029 -0.06,-0.048 2.527,-6.037 1.521,-15.799 -3.133,-20.456 M -239.002,5.725 c -1.022,0.401 -1.642,1.125 -1.76,2.254 -0.132,1.26 0.41,1.988 1.694,2.104 0.702,0.063 1.414,0.011 2.121,0.011 v 0.004 c 0.545,0 1.092,0.008 1.637,-0.002 1.132,-0.021 1.827,-0.624 1.804,-1.762 -0.018,-0.858 -0.238,-1.716 -0.421,-2.563 -0.038,-0.175 -0.297,-0.409 -0.476,-0.431 -1.556,-0.192 -3.108,-0.201 -4.599,0.385 m 20.542,-3.568 c 1.904,-0.649 3.808,-1.367 5.772,-1.755 1.64,-0.324 3.367,-0.188 5.052,-0.305 4.324,-0.3 8.648,-0.604 12.885,-1.619 3.122,-0.749 6.255,-1.451 9.377,-2.172 -3.11,-4.681 -8.179,-6.473 -13.179,-8.297 0,0.735 0.011,1.409 -0.002,2.084 -0.034,1.805 -0.917,3.227 -2.655,3.711 -1.775,0.494 -3.619,0.771 -5.45,1.017 -2.538,0.343 -5.094,0.554 -7.639,0.848 -1.9,0.221 -3.455,1.086 -4.682,2.567 -1.327,1.602 -2.347,3.375 -3.251,5.453 1.373,-0.563 2.549,-1.115 3.772,-1.532 m 166.58,11.874 c -2.097,-2.064 -2.308,-5.183 -4.142,-7.604 -0.659,2.433 1.834,6.947 4.142,7.604 m 4.539,-24.437 c 0.18,0.815 0.639,1.134 1.428,0.877 0.799,-0.26 1.613,-0.553 2.32,-0.993 2.956,-1.843 6.109,-2.124 9.447,-1.425 1.223,0.257 2.479,0.381 3.726,0.491 0.6,0.053 1.48,0.18 1.626,-0.529 0.101,-0.492 -0.314,-1.265 -0.737,-1.648 -0.65,-0.591 -1.471,-1.028 -2.28,-1.4 -1.967,-0.905 -5.463,-1.612 -8.095,-1.635 -2.423,0.078 -4.852,1.107 -6.624,3.448 -0.619,0.819 -1.05,1.736 -0.811,2.814 M 7.892,1.587 C 7.754,4.547 7.041,6.963 4.874,8.944 4.451,9.33 4.045,9.737 3.608,10.107 c -5.167,4.379 -11.059,7.58 -17.15,10.428 -2.538,1.187 -5.252,2.001 -7.776,3.215 -1.74,0.836 -3.518,1.443 -5.366,1.915 -0.317,0.081 -0.631,0.173 -0.943,0.272 -2.987,0.947 -5.971,1.903 -8.961,2.842 -1.05,0.33 -2.082,0.224 -3.132,-0.111 -4.178,-1.331 -8.347,-2.699 -12.561,-3.91 -2.56,-0.735 -5.173,-1.353 -7.803,-1.757 -3.043,-0.467 -4.592,0.42 -5.855,3.175 -0.86,1.876 -1.509,3.852 -2.209,5.799 -0.683,1.896 -1.27,3.827 -1.992,5.708 -0.207,0.539 -0.663,1.054 -1.135,1.402 -0.696,0.511 -1.553,0.8 -2.265,1.291 -2.201,1.52 -4.342,3.125 -6.55,4.634 -2.768,1.891 -5.556,3.757 -8.382,5.559 -1.319,0.842 -2.794,0.941 -4.338,0.55 -2.682,-0.681 -5.273,-0.397 -7.621,1.136 -2.352,1.536 -4.636,3.174 -6.974,4.731 -2.789,1.859 -5.562,3.748 -8.424,5.489 -1.576,0.959 -3.398,1.288 -5.265,1.263 -2.159,-0.029 -3.841,-1.135 -5.437,-2.398 -2.372,-1.876 -4.98,-3.295 -7.96,-3.827 -3.459,-0.617 -6.943,-1.119 -10.432,-1.533 -2.08,-0.246 -4.195,-0.196 -6.29,-0.334 -1.266,-0.084 -1.514,-0.446 -1.131,-1.62 0.34,-1.041 0.079,-1.824 -0.69,-2.573 -5.6,-5.458 -11.558,-10.5 -17.87,-15.106 -2.458,-1.794 -5.122,-3.312 -7.737,-4.883 -1.055,-0.634 -2.256,-0.694 -3.491,-0.462 -2.822,0.531 -5.383,1.76 -7.977,2.895 -3.847,1.684 -7.674,3.417 -11.764,4.454 -2.764,0.701 -5.544,1.098 -8.424,0.774 -2.155,-0.242 -3.781,-1.469 -5.513,-2.531 -6.178,-3.789 -12.19,-7.86 -18.715,-11.067 -1.835,-0.902 -3.648,-1.851 -5.444,-2.827 -2.928,-1.593 -5.784,-3.292 -8.248,-5.581 -3.553,-3.301 -3.842,-6.65 -0.822,-10.443 2.131,-2.676 4.796,-4.765 7.568,-6.719 0.515,-0.363 0.58,-0.683 0.474,-1.268 -0.89,-4.936 -1.936,-9.854 -2.552,-14.825 -1.061,-8.557 -0.987,-17.147 -0.105,-25.731 0.967,-9.404 2.983,-18.571 6.125,-27.481 6.381,-18.095 16.487,-33.81 30.289,-47.144 9.643,-9.317 20.54,-16.823 32.683,-22.508 16.652,-7.794 34.191,-11.529 52.566,-11.334 0.546,0 1.092,-0.007 1.637,0.001 7.747,0.118 15.408,1.023 22.965,2.701 23.448,5.204 43.627,16.363 60.515,33.438 10.141,10.251 18.157,21.978 24.085,35.119 7.019,15.559 10.594,31.893 10.619,48.956 0.007,4.928 -0.495,9.856 -0.792,14.783 -0.027,0.444 0.072,0.678 0.43,0.934 1.375,0.985 2.763,1.959 4.067,3.033 4.067,3.348 6.62,7.342 6.357,12.956" /></g><g
           transform="translate(257.3384,164.9258)"
           id="g278"><path
             id="path280"
             style="fill:#000000;fill-opacity:1;fill-rule:nonzero;stroke:none"
             d="m 0,0 c -0.663,-0.719 -1.436,-1.335 -2.148,-2.01 -2.65,-2.51 -5.301,-5.018 -7.937,-7.542 -0.852,-0.814 -1.218,-0.821 -1.829,0.186 -1.29,2.124 -3.242,3.052 -5.637,3.226 -0.071,0.005 -0.138,0.039 -0.309,0.089 2.225,2.547 4.756,4.46 8.069,5.167 0.799,0.171 1.602,0.326 2.399,0.503 1.528,0.339 2.797,1.047 3.901,2.222 0.648,0.69 1.683,1.022 2.557,1.491 0.112,0.06 0.332,0.022 0.451,-0.053 C 0.634,2.578 0.897,0.974 0,0 m -22.82,-82.823 c -14.03,-25.976 -35.185,-43.786 -63.015,-54.04 2.169,3.701 4.299,7.164 6.265,10.717 5.936,10.73 10.716,21.933 13.635,33.882 1.488,6.091 2.35,12.268 2.539,18.529 0.167,5.562 0.338,11.13 0.275,16.692 -0.069,6.165 -0.371,12.336 -1.901,18.354 -0.733,2.882 -1.847,5.63 -3.218,8.288 -0.335,0.65 -0.142,1.656 0.014,2.459 0.681,3.503 2.857,5.942 5.816,7.733 1.117,0.676 2.378,0.441 3.477,-0.076 2.316,-1.09 4.568,-2.315 6.858,-3.461 1.655,-0.828 3.292,-1.71 5.004,-2.402 2.173,-0.88 4.462,-1.033 6.752,-0.478 2.58,0.626 5.186,0.96 7.837,1.126 7.065,0.442 13.693,2.536 20.063,5.534 0.786,0.37 1.566,0.755 2.512,1.212 1.946,-22.701 -2.132,-44.107 -12.913,-64.069 m -68.336,86.42 c -1.583,-1.337 -3.303,-2.513 -4.886,-3.85 -0.733,-0.62 -1.374,-1.4 -1.891,-2.213 -1.05,-1.652 -1.989,-3.375 -2.985,-5.089 -1.008,1.295 -1.039,2.998 0.111,4.481 1.015,1.309 2.207,2.486 3.362,3.68 1.1,1.138 2.267,2.21 3.38,3.335 1.306,1.32 1.836,2.966 2.011,4.866 -4.725,-0.966 -9.361,-1.956 -14.273,-0.618 0.586,0.416 1.026,0.725 1.462,1.038 1.994,1.433 4,2.851 5.977,4.308 1.622,1.194 2.679,2.838 3.615,4.74 -0.301,-0.04 -0.495,-0.056 -0.686,-0.093 -1.899,-0.361 -3.795,-0.745 -5.698,-1.086 -3.785,-0.677 -6.644,0.9 -8.912,3.781 -0.402,0.512 -0.799,0.689 -1.427,0.681 -2.512,-0.034 -5.025,-0.015 -7.537,-0.013 -0.327,0 -0.655,0 -0.982,0.022 -1.907,0.127 -2.443,0.73 -2.354,2.632 0.09,1.908 0.002,2.152 -1.735,2.705 -3.76,1.197 -7.618,1.638 -11.552,1.196 -1.134,-0.127 -2.164,-0.565 -2.976,-1.407 -1.145,-1.186 -1.06,-2.667 0.222,-3.698 1.274,-1.026 2.625,-1.964 3.833,-3.061 1.357,-1.232 1.358,-2.009 0.099,-3.322 -2.001,-2.086 -4.356,-3.443 -7.372,-3.292 -1.551,0.077 -3.108,0.151 -4.763,0.231 -2.025,-1.22 -4.217,-1.863 -6.612,-1.542 -0.98,-0.29 -1.984,-0.495 -3.016,-0.602 -2.226,-0.231 -6.003,-1.711 -7.983,-3.22 1.187,-0.434 2.318,-0.845 3.448,-1.259 1.117,-0.41 2.234,-0.823 3.436,-1.266 -2.337,-2.661 -4.598,-5.236 -6.965,-7.933 4.399,-0.752 8.612,-1.474 13.093,-2.241 -3.968,-3.392 -5.416,-7.697 -5.396,-12.698 -0.829,0.162 -1.496,0.259 -2.145,0.427 -3.226,0.838 -6.241,2.115 -8.345,4.825 -2.13,2.744 -2.974,5.835 -2.044,9.303 0.715,2.668 0.26,3.533 -2.339,4.609 -0.804,0.332 -0.928,1.025 -1.012,1.728 -0.168,1.408 -0.312,2.82 -0.424,4.234 -0.292,3.726 -0.638,7.452 -0.248,11.194 0.12,1.156 0.411,2.24 1.1,3.209 3.327,4.685 7.075,9.001 11.068,13.134 2.189,2.266 4.775,2.444 7.596,2.244 2.503,-0.177 5.012,-0.269 7.517,-0.429 1.359,-0.087 2.431,0.375 3.318,1.413 0.712,0.834 1.069,0.757 1.686,-0.164 0.711,-1.064 1.386,-2.161 2.188,-3.153 1.159,-1.437 2.676,-2.14 4.582,-2.085 3.79,0.111 7.59,0.031 11.338,0.735 0.797,0.15 1.56,0.472 2.345,0.692 0.853,0.239 1.702,0.508 2.561,0.721 2.731,2.326 6.786,3.992 10.116,4.811 0.019,0.017 0.036,0.042 0.056,0.057 1.247,0.97 2.576,1.833 3.855,2.764 1.611,1.171 3.402,1.868 5.386,1.94 1.956,0.07 3.92,0.081 5.876,10e-4 1.11,-0.046 1.88,-0.714 2.581,-1.639 2.151,-2.836 4.554,-5.433 7.834,-7.036 0.63,-0.308 1.221,-0.697 1.955,-1.12 -1.942,-0.547 -3.744,-1.055 -5.6,-1.577 0.362,-0.547 0.702,-1.037 1.019,-1.541 2.541,-4.049 3.308,-8.31 1.873,-12.98 -1.367,-4.45 -3.183,-8.705 -5.247,-12.852 -0.52,-1.045 -1.567,-1.875 -2.494,-2.658 m -3.916,-89.969 c -0.27,-1.294 -0.668,-2.592 -1.221,-3.791 -1.093,-2.37 -2.631,-4.453 -4.508,-6.286 -1.503,-1.468 -3.243,-2.018 -5.243,-1.336 -1.388,0.473 -2.798,0.976 -4.059,1.706 -3.968,2.3 -8.281,3.14 -12.782,3.268 -3.055,0.088 -6.113,0.086 -9.168,0.164 -2.12,0.054 -4.095,-0.47 -6.03,-1.282 -2.713,-1.139 -5.439,-2.248 -8.174,-3.336 -3.337,-1.326 -5.25,-0.329 -7.242,2.538 -1.345,1.935 -1.91,4.148 -2.107,6.461 -0.071,0.826 -0.042,1.697 0.821,2.157 0.905,0.483 1.901,0.525 2.714,-0.111 0.806,-0.632 1.479,-1.436 2.188,-2.186 0.767,-0.812 1.433,-1.735 2.274,-2.458 2.202,-1.893 5.737,-1.284 7.293,1.176 0.421,0.668 0.409,1.374 0.1,2.038 -0.515,1.109 -1.036,2.229 -1.69,3.258 -1.478,2.327 -2.962,4.674 -5.192,6.382 -0.902,0.691 -1.894,1.28 -2.898,1.816 -0.716,0.381 -1.418,0.301 -2.1,-0.312 -0.862,-0.775 -1.946,-1.153 -3.097,-1.281 -0.926,2.493 -0.399,6.008 2.841,7.227 2.54,0.956 5.18,1.693 7.826,2.307 3.159,0.731 6.376,1.212 9.561,1.837 0.577,0.114 1.152,0.338 1.675,0.613 0.716,0.377 1.046,1.009 0.889,1.906 -5.735,1.322 -11.567,1.042 -17.599,0.819 0,1.971 0.074,3.821 -0.014,5.663 -0.323,6.812 -0.59,13.63 -1.096,20.429 -0.353,4.741 -1.437,9.378 -2.936,13.898 -0.23,0.692 -0.077,1.024 0.507,1.361 2.557,1.478 5.313,2.267 8.253,2.352 2.057,0.059 3.049,-0.656 3.799,-2.573 0.407,-1.044 0.772,-2.096 1.733,-2.809 0.527,-0.391 0.828,-0.32 1.011,0.3 0.015,0.052 0.041,0.102 0.054,0.155 0.995,4.104 3.945,6.032 7.784,6.921 2.552,0.59 5.148,0.792 7.701,0.092 3.408,-0.933 5.667,-3.054 6.335,-6.64 0.252,-1.353 -0.159,-2.504 -1.22,-3.361 -0.783,-0.631 -1.651,-1.158 -2.475,-1.739 -1.49,-1.051 -1.88,-2.012 -1.258,-3.734 0.45,-1.248 1.062,-2.451 1.715,-3.611 0.759,-1.349 0.986,-2.761 0.808,-4.261 -0.445,-3.767 -0.794,-7.53 -0.771,-11.34 0.02,-3.363 -1.299,-6.442 -2.749,-9.425 -0.759,-1.561 -1.622,-3.07 -2.436,-4.598 1.489,0 2.977,0.05 4.461,-0.008 5.712,-0.224 11.38,-0.798 16.855,-2.564 1.106,-0.357 2.155,-0.909 3.194,-1.444 0.492,-0.253 0.897,-0.676 1.438,-1.097 -1.075,-0.558 -2.007,-1.056 -2.952,-1.53 -3.991,-2.004 -7.521,-4.639 -10.603,-7.859 -1.533,-1.601 -2.388,-3.454 -1.631,-5.738 0.518,-1.561 1.407,-2.075 2.951,-1.486 2.061,0.786 4.091,1.659 6.103,2.565 1.792,0.808 3.545,1.741 5.537,1.899 0.961,0.076 1.966,0.008 2.908,-0.197 1.515,-0.33 2.238,-1.397 1.922,-2.915 m -12.791,-18.782 c -0.953,-1.005 -2.167,-1.496 -3.454,-1.731 -4.18,-0.762 -8.375,-1.444 -12.565,-2.152 -0.371,-0.063 -0.749,-0.088 -1.143,-0.054 1.142,0.393 2.298,0.749 3.422,1.19 0.936,0.367 1.845,0.81 2.743,1.263 0.383,0.195 0.737,0.472 1.056,0.764 0.982,0.9 0.929,1.831 -0.259,2.409 -1.017,0.494 -2.121,0.944 -3.229,1.094 -3.156,0.43 -6.337,0.67 -9.5,1.046 -0.815,0.097 -1.72,0.243 -2.38,0.677 -1.504,0.989 -2.54,1.106 -4.394,-0.695 -0.477,-0.464 -0.847,-1.076 -1.142,-1.681 -0.886,-1.815 -2.434,-2.898 -4.097,-3.873 -0.445,-0.261 -0.828,-0.199 -1.147,0.219 -0.462,0.605 -0.928,1.206 -1.519,1.972 1.701,1.431 3.327,2.923 5.081,4.246 2.965,2.238 6.203,3.947 9.914,4.623 2.182,0.397 4.353,0.167 6.518,-0.085 4.878,-0.569 9.5,-1.934 13.662,-4.621 0.822,-0.531 1.62,-1.115 2.365,-1.749 1.199,-1.021 1.162,-1.708 0.068,-2.862 m -52.581,38.984 c -0.553,0.108 -1.185,0.926 -1.377,1.546 -0.425,1.366 -0.731,2.802 -0.835,4.227 -0.171,2.335 -0.143,4.686 -0.196,7.03 -0.054,2.382 -0.352,4.723 -1.102,6.998 -0.73,2.215 -1.902,4.13 -3.546,5.802 -2.338,2.377 -2.927,5.232 -1.882,8.376 0.559,1.68 1.641,3.063 3.541,3.023 1.191,-0.025 2.455,-0.506 3.534,-1.072 1.907,-1 3.095,-2.756 3.915,-4.688 2.08,-4.898 3.497,-9.969 3.619,-15.334 0.035,-1.551 0.005,-3.105 0.005,-4.657 0.05,-0.002 0.099,-0.003 0.149,-0.004 -0.175,-3.649 -0.358,-7.297 -0.515,-10.946 -0.02,-0.452 -0.193,-0.686 -0.615,-0.664 -1.57,0.083 -3.164,0.065 -4.695,0.363 m -4.88,-30.803 c -0.104,-0.192 -0.213,-0.384 -0.327,-0.576 -0.591,-0.992 -1.359,-1.923 -2.211,-2.701 -1.155,-1.055 -2.2,-1.087 -3.38,-0.059 -0.972,0.848 -1.852,1.862 -2.561,2.941 -1.945,2.958 -3.191,6.257 -4.358,9.579 -1.854,5.278 -3.386,10.653 -4.514,16.132 -0.304,1.481 -0.36,3.037 -0.34,4.557 0.067,4.962 0.189,9.924 0.363,14.884 0.048,1.383 0.363,2.756 0.527,4.137 0.077,0.648 0.144,1.309 0.1,1.957 -0.026,0.39 -0.273,0.765 -0.42,1.147 -0.38,-0.181 -0.899,-0.264 -1.111,-0.564 -0.447,-0.633 -0.904,-1.345 -1.058,-2.086 -0.605,-2.933 -1.239,-5.872 -1.596,-8.84 -0.665,-5.508 -0.668,-11.049 -0.548,-16.594 0.169,-7.833 2.528,-15.063 5.854,-22.045 1.442,-3.026 2.91,-6.042 4.357,-9.067 0.294,-0.614 0.566,-1.241 0.809,-1.877 0.242,-0.632 0.342,-1.153 0.303,-1.59 2.436,-3.029 -3.794,-8.405 -6.477,-9.312 -3.307,-1.118 -6.098,0.242 -8.547,2.464 -0.822,0.214 -1.418,0.887 -1.686,1.7 -2.238,2.477 -4.189,5.413 -6.009,7.315 -2.553,2.667 -5.118,5.607 -6.062,9.279 -1.066,4.148 -0.512,8.74 -0.239,13.095 -1.35,5.241 -2.288,10.582 -2.838,16.017 -0.706,6.971 -0.589,13.95 -0.33,20.932 0.188,5.044 0.393,10.086 0.598,15.128 0.05,1.247 0.131,2.492 0.197,3.737 -0.067,0.035 -0.133,0.07 -0.2,0.105 -0.355,-0.584 -0.848,-1.127 -1.038,-1.76 -0.655,-2.187 -1.347,-4.377 -1.766,-6.615 -1.337,-7.152 -1.853,-14.373 -1.895,-21.655 -0.027,-4.834 -0.259,-9.666 -0.475,-14.498 0.036,-0.178 0.057,-0.367 0.057,-0.571 v -2.701 c 0.472,-2.141 0.692,-5.056 0,-7.12 v -3.737 c 0,-2.064 -2.076,-3.391 -3.939,-2.462 -3.019,1.503 -4.862,4.248 -6.041,7.29 -3.482,3.473 -5.771,8.644 -7.086,12.849 -1.393,4.451 -2.036,9.086 -2.827,13.669 -0.872,5.052 -2.242,10.004 -3.318,15.013 -1.854,8.627 -3.071,17.428 0.115,25.878 0.129,0.342 0.345,0.613 0.611,0.823 0.112,1.06 0.788,2.013 2.049,2.183 1.343,0.724 3.28,0.449 3.883,-1.429 0.209,-0.648 0.501,-1.204 0.85,-1.702 0.056,-0.009 0.11,-0.023 0.165,-0.031 0.713,0.819 1.845,1.188 3.047,0.412 0.297,-0.191 0.611,-0.368 0.929,-0.539 0.188,0.012 0.374,0.021 0.564,0.037 1.305,0.114 2.136,-0.588 2.487,-1.515 2.315,-1.128 4.383,-2.471 4.662,-5.413 0.025,-0.262 0.029,-0.529 0.034,-0.795 0.031,-0.025 0.067,-0.044 0.097,-0.071 0.086,0.515 0.173,1.03 0.257,1.545 0.052,0.321 0.157,0.635 0.251,0.948 0.488,1.635 0.667,1.861 2.395,1.837 3.054,-0.043 6.143,0.051 9.152,-0.376 5.854,-0.83 11.198,0.478 16.341,3.124 1.768,0.91 3.562,1.772 5.428,2.698 0.24,-0.444 0.495,-0.911 0.747,-1.379 1.98,-3.688 4.149,-7.238 7.097,-10.265 1.947,-2.001 2.316,-4.431 1.649,-7.07 -0.154,-0.608 -0.274,-1.229 -0.486,-1.817 -0.973,-2.71 -0.765,-5.389 0.311,-7.991 1.196,-2.895 2.452,-5.768 3.797,-8.597 1.366,-2.874 1.95,-5.881 1.93,-9.035 -0.006,-1.037 0.054,-2.079 -0.014,-3.112 -0.101,-1.556 0.398,-2.88 1.299,-4.114 1.061,-1.455 2.16,-2.892 3.083,-4.433 0.648,-1.083 1.144,-2.292 1.5,-3.506 0.361,-1.235 -0.111,-2.351 -1.006,-3.288 -0.019,-0.02 -0.039,-0.029 -0.059,-0.048 2.526,-6.037 1.521,-15.799 -3.133,-20.456 M -239.002,5.725 c -1.022,0.401 -1.642,1.125 -1.76,2.254 -0.133,1.26 0.409,1.988 1.694,2.104 0.702,0.063 1.414,0.011 2.121,0.011 v 0.004 c 0.545,0 1.091,0.008 1.637,-0.002 1.132,-0.021 1.827,-0.624 1.804,-1.762 -0.018,-0.858 -0.238,-1.716 -0.421,-2.563 -0.038,-0.175 -0.297,-0.409 -0.476,-0.431 -1.556,-0.191 -3.109,-0.201 -4.599,0.385 m 20.542,-3.568 c 1.904,-0.649 3.808,-1.367 5.772,-1.755 1.64,-0.324 3.367,-0.188 5.052,-0.305 4.324,-0.3 8.648,-0.604 12.885,-1.619 3.122,-0.748 6.255,-1.451 9.377,-2.172 -3.11,-4.681 -8.179,-6.473 -13.179,-8.297 0,0.735 0.011,1.409 -0.002,2.084 -0.034,1.805 -0.918,3.227 -2.656,3.711 -1.774,0.494 -3.619,0.771 -5.449,1.017 -2.538,0.343 -5.094,0.554 -7.639,0.848 -1.9,0.221 -3.455,1.086 -4.682,2.567 -1.327,1.602 -2.347,3.375 -3.251,5.453 1.373,-0.563 2.549,-1.115 3.772,-1.532 m 166.58,11.874 c -2.097,-2.064 -2.308,-5.183 -4.142,-7.604 -0.659,2.433 1.834,6.947 4.142,7.604 m 4.539,-24.436 c 0.18,0.814 0.639,1.133 1.428,0.876 0.798,-0.26 1.613,-0.553 2.32,-0.993 2.956,-1.843 6.109,-2.124 9.447,-1.425 1.223,0.257 2.478,0.381 3.726,0.491 0.599,0.053 1.48,0.18 1.626,-0.529 0.101,-0.492 -0.314,-1.265 -0.737,-1.648 -0.65,-0.59 -1.471,-1.028 -2.28,-1.4 -1.967,-0.905 -5.463,-1.612 -8.095,-1.634 -2.423,0.077 -4.852,1.106 -6.624,3.447 -0.619,0.819 -1.05,1.736 -0.811,2.815 M 7.892,1.587 C 7.754,4.547 7.041,6.963 4.874,8.944 4.451,9.331 4.045,9.737 3.608,10.107 c -5.167,4.379 -11.059,7.58 -17.15,10.428 -2.538,1.187 -5.252,2.001 -7.776,3.215 -1.74,0.836 -3.518,1.443 -5.366,1.915 -0.317,0.081 -0.631,0.173 -0.943,0.272 -2.987,0.947 -5.971,1.903 -8.961,2.842 -1.05,0.33 -2.083,0.224 -3.132,-0.111 -4.178,-1.331 -8.347,-2.699 -12.561,-3.91 -2.56,-0.735 -5.173,-1.352 -7.803,-1.757 -3.043,-0.467 -4.592,0.421 -5.855,3.175 -0.86,1.876 -1.509,3.852 -2.209,5.799 -0.684,1.896 -1.27,3.827 -1.992,5.708 -0.207,0.539 -0.663,1.054 -1.135,1.402 -0.696,0.511 -1.553,0.8 -2.265,1.292 -2.201,1.519 -4.343,3.124 -6.55,4.633 -2.768,1.891 -5.556,3.757 -8.382,5.559 -1.319,0.842 -2.794,0.941 -4.338,0.55 -2.682,-0.681 -5.273,-0.397 -7.621,1.136 -2.352,1.536 -4.637,3.174 -6.974,4.731 -2.789,1.859 -5.562,3.748 -8.424,5.489 -1.576,0.959 -3.398,1.288 -5.265,1.263 -2.159,-0.029 -3.841,-1.135 -5.437,-2.398 -2.372,-1.876 -4.98,-3.295 -7.96,-3.827 -3.459,-0.617 -6.943,-1.119 -10.432,-1.533 -2.08,-0.246 -4.195,-0.196 -6.29,-0.334 -1.266,-0.084 -1.514,-0.446 -1.131,-1.62 0.34,-1.041 0.079,-1.824 -0.69,-2.573 -5.6,-5.458 -11.558,-10.5 -17.87,-15.106 -2.458,-1.794 -5.122,-3.312 -7.737,-4.883 -1.055,-0.634 -2.256,-0.693 -3.491,-0.462 -2.822,0.531 -5.383,1.76 -7.977,2.895 -3.848,1.684 -7.675,3.417 -11.764,4.454 -2.764,0.701 -5.544,1.098 -8.424,0.774 -2.155,-0.242 -3.781,-1.469 -5.513,-2.531 -6.179,-3.789 -12.19,-7.86 -18.715,-11.067 -1.835,-0.902 -3.648,-1.851 -5.444,-2.827 -2.928,-1.593 -5.784,-3.292 -8.248,-5.581 -3.553,-3.301 -3.842,-6.65 -0.822,-10.443 2.131,-2.676 4.796,-4.765 7.568,-6.719 0.515,-0.363 0.58,-0.683 0.474,-1.268 -0.89,-4.936 -1.937,-9.854 -2.552,-14.825 -1.061,-8.557 -0.987,-17.147 -0.105,-25.731 0.967,-9.404 2.982,-18.571 6.125,-27.481 6.381,-18.095 16.487,-33.81 30.289,-47.144 9.643,-9.317 20.54,-16.823 32.683,-22.508 16.652,-7.794 34.191,-11.529 52.566,-11.334 0.546,0 1.092,-0.007 1.637,0.001 7.747,0.118 15.408,1.023 22.965,2.701 23.448,5.204 43.627,16.363 60.515,33.438 10.141,10.251 18.157,21.978 24.085,35.119 7.019,15.559 10.594,31.893 10.619,48.956 0.007,4.928 -0.495,9.856 -0.792,14.783 -0.027,0.444 0.072,0.678 0.43,0.934 1.375,0.985 2.763,1.959 4.067,3.033 4.067,3.348 6.62,7.342 6.357,12.956" /></g></g></g><text
       id="text284"
       style="font-variant:normal;font-weight:normal;font-stretch:normal;font-size:55.8886px;font-family:'Milkstore 2 Clean';-inkscape-font-specification:Milkstore02-Clean;writing-mode:lr-tb;fill:#000000;fill-opacity:1;fill-rule:nonzero;stroke:none"
       transform="matrix(1,0,0,-1,284.8125,60.8442)"><tspan
         id="tspan282"
         sodipodi:role="line"
         y="0"
         x="0 44.040218 89.365868 134.69153 183.09105 228.4167 277.26334">Feeders</tspan></text><g
       id="g286"><g
         clip-path="url(#clipPath292)"
         id="g288"><g
           transform="translate(736.7461,92.0718)"
           id="g294"><path
             id="path296"
             style="fill:#c7763e;fill-opacity:1;fill-rule:nonzero;stroke:none"
             d="M 0,0 C 0.36,0.032 0.78,0.026 1.238,-0.015 2.309,-0.104 2.173,-0.241 2.104,-0.281 1.893,-0.406 1.026,-0.446 0.375,-0.443 0.159,-0.442 -0.034,-0.436 -0.169,-0.428 -0.782,-0.386 -0.943,-0.282 -0.841,-0.2 -0.646,-0.094 -0.372,-0.031 0,0 m 15.195,-0.177 0.184,0.07 0.392,0.003 c 0.367,-0.002 1.179,0.005 1.405,-0.128 0.225,-0.132 -0.405,-0.22 -0.648,-0.253 l -0.296,-0.024 c -0.09,-0.001 -0.176,-0.002 -0.257,-0.002 -0.448,0.003 -0.69,0.043 -0.819,0.081 -0.236,0.066 -0.219,0.152 0.039,0.253 m -148.788,0.55 c 2.46,0.017 4.968,-0.044 7.396,-0.102 2.147,-0.052 4.359,-0.111 6.545,-0.104 1.131,0.001 2.251,0.005 3.37,0.01 3.526,0.012 7.18,0.024 10.867,-0.044 6.82,-0.131 13.818,-0.157 20.558,-0.185 1.802,-0.008 3.563,-0.014 5.409,-0.024 6.256,-0.032 12.154,-0.153 18.403,-0.279 1.825,-0.037 3.666,-0.074 5.518,-0.109 4.978,-0.095 10.108,-0.093 15.066,-0.091 3.816,0.003 7.768,0.005 11.638,-0.038 3.881,-0.043 7.778,-0.13 11.551,-0.214 4.101,-0.092 8.342,-0.187 12.551,-0.224 5.195,-0.047 10.401,-0.058 15.417,-0.072 3.052,-0.008 6.105,-0.016 9.183,-0.031 0.689,-0.003 1.384,-0.007 2.078,-0.011 7.478,-0.043 15.109,-0.162 22.494,-0.276 9.145,-0.144 18.619,-0.289 27.807,-0.295 2.778,0 5.663,-0.021 8.441,-0.038 5.313,-0.034 10.787,-0.07 15.944,0.006 0.226,0.005 0.603,0.008 1.093,0.012 9.178,0.079 14.267,0.327 15.124,0.736 0.297,0.144 -0.004,0.323 -0.89,0.536 -1.909,0.46 -10.195,0.333 -15.674,0.251 -2.245,-0.035 -4.146,-0.056 -5.389,-0.052 -2.089,0.021 -4.199,0.038 -6.319,0.057 -6.966,0.059 -14.168,0.12 -21.079,0.273 -28.371,0.629 -57.471,0.721 -85.651,0.812 -5.167,0.016 -10.324,0.034 -15.475,0.053 -8.284,0.028 -16.697,0.11 -24.847,0.186 -10.356,0.096 -21.085,0.196 -31.549,0.2 -5.082,0.002 -10.233,0.032 -15.196,0.058 -4.14,0.023 -8.284,0.048 -12.456,0.055 -0.871,0.005 -1.873,0.017 -3.003,0.036 -3.074,0.05 -6.885,0.11 -8.915,-0.1 -1.347,-0.138 -2.409,-0.545 -2.071,-0.792 0.193,-0.141 0.839,-0.204 2.061,-0.2" /></g></g></g><text
       id="text300"
       style="font-variant:normal;font-weight:bold;font-stretch:normal;font-size:27.3076px;font-family:Corbel;-inkscape-font-specification:Corbel-Bold;writing-mode:lr-tb;fill:#000000;fill-opacity:1;fill-rule:nonzero;stroke:none"
       transform="matrix(1,0,0,-1,598.9941,67.1504)"><tspan
         id="tspan298"
         sodipodi:role="line"
         y="0"
         x="0 15.374179 28.317982 40.03294 49.372139 56.362885 71.245529 87.657394 104.06927">est. 1991</tspan></text><g
       id="g302"><g
         clip-path="url(#clipPath308)"
         id="g304"><text
           id="text312"
           style="font-variant:normal;font-weight:normal;font-stretch:normal;font-size:140.932px;font-family:Bourbon;-inkscape-font-specification:Bourbon-Regular;writing-mode:lr-tb;fill:#000000;fill-opacity:1;fill-rule:nonzero;stroke:none"
           transform="matrix(0.79674,0,0,-1,283.6777,107.4658)"><tspan
             id="tspan310"
             sodipodi:role="line"
             y="0"
             x="0 50.87656 99.075409 147.27425 195.4731 226.47821 281.15994 331.19092 382.06747 432.52124 484.10245 569.93024 618.12909 669.14655">BEEF NORTHWEST</tspan></text></g></g></g></svg>
