<?xml version="1.0" encoding="UTF-8" standalone="no"?>
<svg
   xmlns:dc="http://purl.org/dc/elements/1.1/"
   xmlns:cc="http://creativecommons.org/ns#"
   xmlns:rdf="http://www.w3.org/1999/02/22-rdf-syntax-ns#"
   xmlns:svg="http://www.w3.org/2000/svg"
   xmlns="http://www.w3.org/2000/svg"
   viewBox="0 0 786.66669 325.33334"
   height="325.33334"
   width="786.66669"
   id="svg2"
   version="1.1">
  <metadata
     id="metadata8">
    <rdf:RDF>
      <cc:Work
         rdf:about="">
        <dc:format>image/svg+xml</dc:format>
        <dc:type
           rdf:resource="http://purl.org/dc/dcmitype/StillImage" />
        <dc:title></dc:title>
      </cc:Work>
    </rdf:RDF>
  </metadata>
  <defs
     id="defs6" />
  <path
     id="path108"
     d="m 237.33334,323.33334 c 0,-1.76628 18.07408,-2 154.66667,-2 136.59259,0 154.66667,0.23372 154.66667,2 0,1.76628 -18.07408,2 -154.66667,2 -136.59259,0 -154.66667,-0.23372 -154.66667,-2 z m 357.14142,-17.27989 c -1.93888,-1.09472 -4.13792,-3.74795 -4.88674,-5.89603 -1.20623,-3.46018 -1.03227,-3.99394 1.52524,-4.67997 4.72418,-1.26724 5.9978,-0.94496 6.84766,1.73272 1.58346,4.98903 9.20511,4.80543 8.44292,-0.20337 -0.27982,-1.8389 -2.57781,-3.46226 -7.48356,-5.28656 -7.65626,-2.84715 -10.26238,-6.56478 -8.77009,-12.51054 1.18225,-4.71048 5.54332,-7.20969 12.58075,-7.20969 6.53838,0 11.93574,3.80721 11.93574,8.41927 0,3.21069 -6.81905,2.93449 -9.66689,-0.39154 -1.28192,-1.49718 -3.14076,-2.30078 -4.29632,-1.85736 -3.95009,1.5158 -1.96093,4.30718 4.62916,6.49606 10.60388,3.52204 13.84726,11.48805 7.62339,18.72372 -3.76418,4.37612 -13.072,5.71745 -18.48126,2.66329 z M 168,289.33334 v -17.33333 h 11.33334 11.33333 v 4 c 0,3.96565 -0.0637,4 -7.42606,4 -6.87006,0 -7.39418,0.21745 -7,2.90421 0.36273,2.47255 1.31786,2.91846 6.42606,3 5.48558,0.0876 6,0.38159 6,3.42912 0,3.0125 -0.58772,3.37156 -6.10604,3.73044 l -6.10604,0.39711 0.39498,6.60289 0.39497,6.6029 H 172.62227 168 Z m 66.96017,0.33334 0.37317,-17 12.33333,-0.38338 12.33334,-0.38336 v 4.05003 4.05004 h -8.09776 c -6.99244,0 -8.03716,0.31849 -7.65372,2.33333 0.35029,1.84059 2.06034,2.41778 8.09777,2.7332 7.07913,0.36986 7.65371,0.64012 7.65371,3.60014 0,2.96072 -0.57386,3.23018 -7.66667,3.60013 -7.08947,0.36976 -7.66667,0.64044 -7.66667,3.59536 0,3.00141 0.48592,3.20388 8,3.33333 7.6968,0.13267 8.01599,0.2768 8.4219,3.80451 l 0.42189,3.66667 h -13.46172 -13.46173 z m 70.37317,-0.33334 v -17.33333 h 12.66667 12.66667 v 4 4 h -8 c -7.11111,0 -8,0.29629 -8,2.66667 0,2.34344 0.88889,2.66666 7.33333,2.66666 6.93333,0 7.33333,0.18182 7.33333,3.33334 0,3.15152 -0.4,3.33333 -7.33333,3.33333 -6.93333,0 -7.33333,0.18181 -7.33333,3.33333 0,3.18519 0.35556,3.33334 8,3.33334 h 8 v 4 4 h -12.66667 -12.66667 z m 69.62683,0.33334 0.37317,-17 7.88111,-0.40627 c 14.50548,-0.74776 19.45223,3.94224 19.45223,18.44261 0,7.25088 -0.43795,8.60674 -3.89744,12.06622 -3.62453,3.62454 -4.60759,3.89744 -14.03983,3.89744 h -10.1424 z m 18.44626,4.91476 c 1.94833,-7.72007 -1.34301,-14.58143 -6.99459,-14.58143 -2.09158,0 -2.41183,1.20979 -2.41183,9.11111 0,5.01112 0.33796,9.44908 0.75101,9.86213 1.78366,1.78364 7.8772,-1.30827 8.65541,-4.39181 z m 54.59358,-5.2481 v -17.33333 h 12.66667 12.66667 v 4 4 h -8 c -7.11111,0 -8,0.29629 -8,2.66667 0,2.34344 0.88889,2.66666 7.33333,2.66666 6.93333,0 7.33333,0.18182 7.33333,3.33334 0,3.15633 -0.39409,3.33333 -7.42189,3.33333 -7.27808,0 -7.41372,0.0697 -7,3.59895 0.40944,3.49277 0.64809,3.58826 8.08856,3.23666 l 7.66667,-0.36228 v 4.09667 4.09667 h -12.66667 -12.66667 z m 69.62683,0.33334 0.37318,-17 10.33777,-0.3895 c 9.51051,-0.35833 10.60416,-0.12306 13.66667,2.93939 4.25256,4.25256 4.24444,9.32244 -0.0217,13.58864 -3.01816,3.01816 -3.14673,3.55456 -1.2957,5.40557 1.71405,1.71407 5.97969,10.24011 5.97969,11.95206 0,0.27712 -2.25,0.48969 -5,0.47241 -4.70783,-0.0296 -5.17033,-0.41915 -7.91503,-6.66667 -3.94721,-8.98469 -7.085,-8.97077 -7.085,0.0314 v 6.66667 h -4.7065 -4.7065 z m 16.26412,-3.80932 c 3.32703,-1.2767 2.56132,-5.69303 -1.14849,-6.62414 -3.97172,-0.99684 -6.07579,0.14247 -6.07579,3.28992 0,3.9639 2.53476,5.13376 7.22428,3.33422 z M 17.666667,256.38372 0,255.92261 v -6.47245 c 0,-5.35113 0.4619941,-6.59329 2.666667,-7.16982 2.564593,-0.67065 2.666667,-1.81868 2.666667,-29.99225 0,-24.41331 -0.333273,-29.57148 -2,-30.95475 -1.283811,-1.06547 -2,-4.01821 -2,-8.24572 v -6.58585 l 24.644301,0.41578 24.644302,0.41579 4.3557,4.35897 c 4.24277,4.24596 4.3557,4.65611 4.3557,15.81911 v 11.46012 l -5.62026,4.98755 -5.62026,4.98753 4.95359,3.19336 c 6.50942,4.19633 9.6156,10.65003 9.61819,19.98365 0.003,9.56198 -4.26908,18.07078 -10.71749,21.34799 -5.80662,2.95104 -12.14828,3.48976 -34.28044,2.9121 z m 17.57143,-19.81229 c 2.40761,-2.4076 2.8482,-12.67316 0.71499,-16.65908 -0.79149,-1.47892 -2.78208,-2.57901 -4.66666,-2.57901 -3.219142,0 -3.286426,0.21839 -3.286426,10.66667 0,9.64609 0.246032,10.66666 2.571426,10.66666 1.41429,0 3.51429,-0.94285 4.66667,-2.09524 z m -1.3137,-38.20144 c 3.92622,-5.60546 1.47457,-14.36998 -4.01963,-14.36998 -1.455438,0 -1.904766,2.04444 -1.904766,8.66666 0,9.46492 1.964816,11.35642 5.924396,5.70332 z m 299.408943,57.40157 c -12.23624,-3.44758 -16.59778,-14.22974 -15.76649,-38.97633 0.46836,-13.94288 0.97424,-16.89646 3.73292,-21.7951 7.72685,-13.72066 26.68864,-14.54894 36.27187,-1.5844 6.97154,9.43136 6.7589,44.75761 -0.32934,54.71213 -4.8889,6.86584 -15.09218,10.12783 -23.90896,7.6437 z m 9.28643,-15.6839 c 2.16759,-4.05017 1.77808,-36.36724 -0.47548,-39.44915 -1.57669,-2.15625 -2.17813,-2.27026 -4,-0.75825 -1.78564,1.48196 -2.14428,4.94127 -2.14428,20.683 0,12.92488 0.50603,19.40944 1.6,20.50341 2.23573,2.23574 3.42323,2.00414 5.01976,-0.97901 z m 70.54296,12.89047 c -9.30352,-4.72121 -13.69541,-9.95692 -16.19913,-19.31146 -0.83416,-3.11666 -1.93533,-5.66666 -2.44703,-5.66666 -1.36097,0 0.32078,16.52197 1.77856,17.47314 0.67983,0.44358 1.04152,2.84358 0.80379,5.33334 l -0.43224,4.52685 h -12 -12 l -0.4345,-4.55705 c -0.29598,-3.10427 0.23535,-4.93191 1.66667,-5.73292 3.14115,-1.75787 3.14773,-46.99183 0.007,-48.74942 -1.4519,-0.81253 -1.96299,-2.6686 -1.66667,-6.0526 l 0.4274,-4.88072 17.08617,-0.6622 c 20.37415,-0.78962 25.23982,0.56499 28.29515,7.87743 3.79726,9.08811 1.40723,22.81448 -4.52528,25.98947 -2.68258,1.43568 -2.67692,1.50458 0.74975,9.10732 1.89903,4.21338 5.18147,10.26574 7.29429,13.44972 3.0952,4.66433 3.67535,6.67473 2.98623,10.34805 -0.4704,2.50747 -1.31404,4.84258 -1.87473,5.18911 -0.56071,0.34653 -4.8427,-1.31009 -9.51552,-3.6814 z m -13.97204,-43.08718 c 2.08134,-5.42386 -0.0499,-11.22428 -4.12401,-11.22428 -1.19111,0 -1.73334,2.08547 -1.73334,6.66667 0,5.65219 0.38409,6.66667 2.52402,6.66667 1.38821,0 2.88821,-0.94907 3.33333,-2.10906 z m 295.82072,46.06895 c -11.42458,-1.6334 -11.01139,-1.08613 -11.01139,-14.58472 v -12.04184 h 5.81056 c 5.73292,0 5.82645,0.0739 7,5.52793 1.38465,6.43516 4.64321,9.21875 8.18944,6.99575 5.32392,-3.33737 3.72371,-7.17187 -7.40443,-17.74281 -5.85602,-5.56282 -11.31068,-11.42476 -12.12145,-13.02655 -2.12288,-4.19407 -1.81319,-13.23105 0.61431,-17.92531 4.07389,-7.87805 18.92261,-11.29632 33.32114,-7.67073 l 5.92376,1.49163 v 9.8417 9.84172 h -5.92724 c -5.15117,0 -6.15736,-0.48009 -7.68464,-3.66666 -2.14857,-4.48284 -6.86518,-4.99642 -7.46174,-0.81248 -0.30826,2.16194 1.99216,4.81458 9.4849,10.93713 5.74115,4.69125 10.87098,10.14624 12.22524,13.00013 2.91367,6.14011 2.17382,16.56146 -1.53638,21.64121 -5.08484,6.9618 -16.26403,10.07514 -29.42208,8.1939 z M 74.253317,255.14221 c -1.76933,-1.76933 -0.95704,-9.50935 1.08002,-10.29104 1.67485,-0.6427 2,-4.65292 2,-24.66667 0,-20.01373 -0.32515,-24.02396 -2,-24.66667 -1.25533,-0.4817 -2,-2.52062 -2,-5.47598 v -4.70851 H 94.666667 116 v 11.33333 11.33334 l -5.66666,-0.0288 c -5.07164,-0.0259 -5.87668,-0.48086 -7.66667,-4.33334 -1.1,-2.36746 -3.050007,-4.49848 -4.333333,-4.73557 -1.97226,-0.36439 -2.33333,0.61567 -2.33333,6.33333 v 6.76438 H 104 h 8 v 6.66666 6.66667 h -8 -7.999993 v 8 c 0,7.87301 0.0592,8 3.733326,8 4.909407,0 6.933337,-2.21853 6.933337,-7.6 0,-4.39533 0.007,-4.4 6.71495,-4.4 h 6.71495 l -0.38162,13 -0.38161,13 -22.080023,0.36443 c -12.14401,0.20043 -22.49401,-0.0496 -23,-0.55556 z m 54.635573,-0.0311 c -1.74513,-1.74513 -0.90687,-9.48557 1.11111,-10.25995 1.67485,-0.64269 2,-4.65292 2,-24.66666 0,-20.01374 -0.32515,-24.02396 -2,-24.66667 -1.25532,-0.48173 -2,-2.52065 -2,-5.47601 v -4.70851 h 21.33334 21.33333 v 11.33336 11.33334 L 165,207.97121 c -5.07164,-0.0259 -5.87668,-0.48086 -7.66666,-4.33334 -1.27724,-2.74892 -2.96368,-4.30448 -4.66667,-4.30448 -2.2716,0 -2.66667,0.8889 -2.66667,6 v 6 l 8.40372,0.39879 8.40371,0.39879 -0.40371,6.26788 -0.40372,6.26782 -7.85116,0.66667 -7.85116,0.66667 -0.001,7.33333 c -0.001,7.06263 0.13863,7.34987 3.78542,7.78105 4.49202,0.53114 7.2514,-2.52676 7.2514,-8.03589 0,-3.54981 0.31294,-3.74516 6,-3.74516 h 6 v 13.33333 13.33334 h -21.77778 c -11.97778,0 -22.17778,-0.4 -22.66667,-0.88889 z m 53.77778,-4.28332 c 0,-2.89974 0.62804,-5.4816 1.39566,-5.73748 1.92598,-0.64199 1.93442,-48.20253 0.008,-48.84445 -0.77171,-0.25746 -1.40366,-2.81811 -1.40366,-5.69032 v -5.22223 h 21.38726 21.38725 l -0.38725,11 -0.38726,11 h -5.98173 c -4.93816,0 -6.06271,-0.46523 -6.44581,-2.66667 -0.52063,-2.99161 -3.81331,-6 -6.56702,-6 -1.33508,0 -1.71022,1.66466 -1.41182,6.26462 l 0.40638,6.26462 7.66667,-0.36129 7.66667,-0.36128 v 7.43 7.43 h -8 -8 v 9.26708 c 0,7.04937 0.50282,9.54848 2.10116,10.44295 1.43132,0.80101 1.96265,2.62865 1.66666,5.73292 l -0.43449,4.55705 -12.33333,0.38338 -12.33334,0.38336 z m 59.60204,4.32978 c -1.85681,-1.8568 -1.00988,-12.17703 1.06463,-12.9731 1.69551,-0.65063 2,-5.31959 2,-30.66667 0,-25.34706 -0.30449,-30.01604 -2,-30.66666 -1.37063,-0.52595 -2,-2.66878 -2,-6.80932 v -6.04184 h 14.6102 14.61021 l 2.64182,9 c 1.45298,4.95 4.25176,14.7 6.21949,21.66666 1.96774,6.96667 3.80432,12.91667 4.08132,13.22223 0.277,0.30555 0.50363,-6.37447 0.50363,-14.84449 0,-14.27871 -0.19417,-15.45083 -2.66667,-16.0974 -2.17845,-0.56968 -2.66667,-1.81868 -2.66667,-6.82218 v -6.12482 h 14.00001 14 v 5.95309 c 0,4.58848 -0.61127,6.28023 -2.66667,7.38024 -2.56729,1.37397 -2.66667,2.79176 -2.66667,38.04691 v 36.61976 h -12.56326 -12.56327 l -1.34654,-4.33333 c -0.7406,-2.38334 -3.25393,-11.23334 -5.58518,-19.66667 -2.33127,-8.43334 -4.72282,-16.22112 -5.31456,-17.3062 -0.59175,-1.08508 -0.75702,4.31492 -0.36727,12 0.50337,9.92518 1.26828,14.41922 2.64051,15.51374 1.29146,1.03008 1.7939,3.46102 1.51572,7.33334 l -0.41615,5.79245 -12.06463,0.37982 c -6.63556,0.20889 -12.48556,-0.0411 -13,-0.55556 z m 200.39797,-4.44088 c 0,-2.96086 0.57383,-5.38338 1.27517,-5.38338 0.7496,0 1.43652,-9.89221 1.66667,-24.00159 0.29616,-18.15714 -0.003,-24.0012 -1.22827,-24 -2.28348,0.002 -4.38024,4.42878 -4.38024,9.24727 0,3.88004 -0.27088,4.08765 -5.33333,4.08765 h -5.33333 v -12.66666 -12.66667 h 25.33333 25.33333 v 12.6667 12.66666 h -5.33333 -5.33333 v -5.95309 c 0,-4.58848 -0.61127,-6.28023 -2.66667,-7.38024 -2.62072,-1.40257 -2.66667,-1.01399 -2.66667,22.55351 0,20.44294 0.30998,24.15412 2.10116,25.15652 1.43132,0.80101 1.96266,2.62865 1.66667,5.73292 l -0.43449,4.55705 -12.33334,0.38338 -12.33333,0.38336 z m 44.93685,4.44237 c -1.78246,-1.78248 -0.9842,-9.52228 1.06315,-10.30792 1.67484,-0.6427 2,-4.65292 2,-24.66667 0,-20.01373 -0.32516,-24.02396 -2,-24.66667 -1.25532,-0.4817 -2,-2.52062 -2,-5.47598 v -4.70851 h 12.66667 12.66667 v 5.33336 c 0,2.93334 -0.62995,5.33334 -1.39987,5.33334 -0.86167,0 -1.24613,2.9476 -1,7.66666 0.34655,6.6445 0.75541,7.66667 3.06653,7.66667 2.31112,0 2.71999,-1.02217 3.06654,-7.66667 0.24613,-4.71906 -0.13834,-7.66666 -1,-7.66666 -0.76992,0 -1.39987,-2.4 -1.39987,-5.33334 v -5.33333 h 12 12 v 5.33333 c 0,2.93334 -0.6,5.33334 -1.33333,5.33334 -0.83938,0 -1.33334,8.8668 -1.33334,23.93374 0,20.40026 0.31022,24.10735 2.10116,25.10962 1.43132,0.80101 1.96266,2.62865 1.66667,5.73292 l -0.43449,4.55705 h -12 -12 l -0.43046,-4.50288 c -0.23676,-2.47657 0.21324,-5.14657 1,-5.93333 0.78675,-0.78675 1.43046,-5.51046 1.43046,-10.49712 0,-8.78223 -0.10454,-9.06667 -3.33334,-9.06667 -3.22876,0 -3.33333,0.28444 -3.33333,9.06667 0,4.98666 0.64371,9.71037 1.43045,10.49712 0.78676,0.78676 1.23676,3.45676 1,5.93333 l -0.43045,4.50288 -11.39648,0.38131 c -6.26806,0.20971 -11.81806,-0.0403 -12.33334,-0.55556 z m 70.3905,-0.82575 c -0.32392,-0.91666 -2.46268,-13.96667 -4.7528,-29 -2.45544,-16.1186 -4.93192,-28.197 -6.03585,-29.43832 -1.02962,-1.15775 -1.87203,-4.00775 -1.87203,-6.33333 v -4.22835 h 12 12 v 5.33336 c 0,2.93334 -0.57079,5.33334 -1.26843,5.33334 -1.44613,0 -0.29312,22.7049 1.23914,24.40094 0.53049,0.58719 1.30849,-3.01281 1.72889,-8 0.4204,-4.98718 1.47157,-13.11761 2.33592,-18.06761 l 1.57156,-9 h 9.05959 9.05958 l 1.46275,8.39972 c 0.80452,4.61985 1.85352,12.13847 2.33115,16.70804 0.47761,4.56957 1.29386,8.57128 1.81389,8.89268 0.52004,0.3214 1.34727,-4.64233 1.83831,-11.03052 0.57861,-7.52761 0.41213,-11.77509 -0.47311,-12.07017 -0.75125,-0.25042 -1.36591,-2.80531 -1.36591,-5.67752 v -5.22223 h 10.66667 10.66667 v 5.22223 c 0,2.87221 -0.68715,5.45126 -1.527,5.73121 -0.90314,0.30105 -3.2468,12.46707 -5.73643,29.77779 l -4.20943,29.26877 -9.1314,0.39884 c -5.02226,0.21936 -9.7088,-0.17856 -10.41449,-0.88425 -0.70571,-0.70571 -2.33285,-9.28519 -3.61588,-19.06551 -1.28304,-9.78033 -2.64853,-16.88241 -3.03443,-15.78241 -0.3859,1.1 -1.41084,8.6 -2.27762,16.66666 -2.23459,20.79598 -1.31275,19.33334 -12.18502,19.33334 -6.22526,0 -9.47942,-0.54927 -9.87429,-1.66667 z m 70.92596,0.80887 c -1.76932,-1.76933 -0.95702,-9.50935 1.08003,-10.29104 1.67484,-0.6427 2,-4.65292 2,-24.66667 0,-20.01373 -0.32516,-24.02396 -2,-24.66667 -1.25532,-0.4817 -2,-2.52062 -2,-5.47598 v -4.70851 h 21.33333 21.33334 v 11.33336 11.33334 l -5.66667,-0.0288 c -5.07164,-0.0259 -5.87668,-0.48086 -7.66667,-4.33334 -1.22792,-2.64278 -2.97994,-4.30448 -4.53846,-4.30448 -2.11895,0 -2.53924,0.99158 -2.54323,6 l -0.005,6 8.2099,0.39696 8.2099,0.39695 v 6.60305 6.60304 h -8 -8 v 8 c 0,7.87302 0.0592,8 3.73333,8 4.9094,0 6.93333,-2.21853 6.93333,-7.6 0,-4.39533 0.007,-4.4 6.71495,-4.4 h 6.71495 l -0.38162,13 -0.38161,13.00001 -22.08003,0.36442 c -12.144,0.20043 -22.494,-0.0496 -23,-0.55556 z m 118.63559,-0.0311 c -1.74513,-1.74513 -0.90688,-9.48557 1.11111,-10.25995 2.8708,-1.10165 3.01015,-47.51785 0.14265,-47.51785 -2.32649,0 -3.47598,2.90209 -3.47598,8.77572 0,4.42833 -0.1513,4.55761 -5.33334,4.55761 h -5.33333 v -12.66666 -12.66667 h 25.33333 25.33334 v 12.66673 12.66666 h -5.33334 c -5.27044,0 -5.33357,-0.0589 -5.35374,-5 -0.0224,-5.47198 -1.07552,-7.8835 -3.73827,-8.55976 -1.37691,-0.34969 -1.70525,4.35707 -1.59643,22.88404 0.0756,12.86691 0.70898,23.89626 1.41272,24.6 0.70166,0.70166 1.27572,3.55573 1.27572,6.34239 v 5.06667 h -11.77777 c -6.47779,0 -12.17779,-0.4 -12.66667,-0.88889 z m -366.8889,-90.64359 c -28.69979,-4.59286 -51.68682,-19.67682 -66.37175,-43.55279 -10.10621,-16.43153 -15.15631,-42.192256 -11.78715,-60.126796 1.36624,-7.2727 1.27624,-8.0215 -1.17018,-9.73504 -4.0075,-2.80696 -5.65991,-6.62596 -4.11552,-9.51168 0.72374,-1.35232 7.91848,-6.1878 15.98832,-10.74552 16.14142,-9.11642 14.93496,-8.9813 29.72733,-3.3294 l 6.27105,2.39605 7.40684,-5.10129 c 4.07378,-2.8057 9.18347,-7.12474 11.35488,-9.59785 2.42878,-2.76621 5.1823,-4.49656 7.15544,-4.49656 6.2566,0 11.54666,-1.6996905 14.86682,-4.7767105 l 3.36397,-3.11763 8.50751,5.94717 c 5.2382,3.6618305 9.96879,5.9472405 12.31009,5.9472405 6.1077,0 17.0849,8.38201 19.14263,14.61701 0.95184,2.88411 2.54392,5.55594 3.53796,5.93739 0.99403,0.38144 5.6632,-0.49742 10.37592,-1.95303 l 8.56857,-2.64657 10.67695,3.89661 c 5.87231,2.14313 13.41745,5.78212 16.76696,8.08665 5.35209,3.68233 6.09003,4.7793 6.09003,9.05303 0,3.43584 -1.03015,5.93823 -3.5102,8.52686 -3.2198,3.36074 -3.53475,4.69048 -3.80684,16.07296 -0.36634,15.32408 -3.27304,26.584446 -10.409,40.323686 -11.48988,22.12203 -32.82014,39.16849 -56.7807,45.37729 -8.77086,2.27276 -27.18481,3.62522 -34.15993,2.50898 z m 50.47169,-14.73837 c 19.35548,-10.02984 37.38066,-32.43183 42.69539,-53.062496 2.12839,-8.26201 3.91737,-27.80443 2.66039,-29.06142 -0.3914,-0.3914 -2.69996,0.11914 -5.13014,1.13453 -2.43017,1.0154 -7.93124,2.41042 -12.22458,3.10006 -6.59798,1.05983 -8.70931,0.85973 -13.64224,-1.29297 -7.07783,-3.08872 -8.66475,-3.15645 -10.89836,-0.46511 -1.38387,1.66746 -1.40948,3.32592 -0.1288,8.33333 0.87942,3.43837 1.61164,13.45158 1.62714,22.251576 0.0327,18.56217 -2.41776,28.60005 -10.82272,44.33339 -2.84022,5.31666 -4.82665,9.66666 -4.41426,9.66666 0.4124,0 5.03754,-2.22186 10.27812,-4.93749 z m -79.52676,-15.78158 c 1.10296,-0.33419 0.27577,-3.34872 -2.62088,-9.55128 -3.83683,-8.21578 -4.23397,-10.27475 -4.24855,-22.02602 -0.0107,-8.756876 0.53631,-13.515426 1.68635,-14.665466 1.38103,-1.38102 1.63672,0.31116 1.3544,8.96304 -0.3808,11.669446 2.35971,23.409616 6.72204,28.796876 2.16301,2.6712 2.82971,2.86067 4.67555,1.32875 3.07706,-2.55373 2.66773,-7.19937 -1.32936,-15.08725 -3.57787,-7.06057 -6.34939,-20.869696 -4.57171,-22.778606 0.54925,-0.58981 1.36271,2.00156 1.80767,5.75859 0.92137,7.779566 5.8122,16.947796 7.91769,14.842306 0.88889,-0.88889 0.38809,-2.86277 -1.5024,-5.92165 -1.55965,-2.52356 -2.857,-6.617476 -2.88299,-9.097586 -0.026,-2.48011 -0.90472,-6.00929 -1.95274,-7.84262 -1.04803,-1.83333 -1.92678,-5.8962 -1.95275,-9.02859 -0.032,-3.85085 -1.17655,-7.40173 -3.53436,-10.96462 -3.14817,-4.75721 -3.76373,-5.11254 -6.33333,-3.65587 -1.56543,0.88743 -7.02424,1.92151 -12.13071,2.29796 l -9.28448,0.68445 -1.06161,4.66667 c -2.22088,9.7626 -1.14062,36.287296 1.54548,37.947396 0.55892,0.34543 1.40072,-5.80143 1.87066,-13.659666 1.35987,-22.73899 3.29426,-25.51769 3.44899,-4.9544 0.1292,17.175016 1.48812,25.364366 5.96553,35.951196 4.05687,9.59247 6.7742,10.91648 16.41151,7.99639 z m 49.89548,-2.04058 c 2.12159,-1.13544 2.34395,-1.81328 1.09036,-3.32376 -2.2232,-2.67879 -11.58805,-4.95012 -16.47641,-3.99615 -4.85018,0.94653 -11.19215,5.45289 -9.73074,6.9143 0.55942,0.55941 2.2397,-0.20546 3.73395,-1.69972 2.42055,-2.42055 3.44195,-2.57346 9.36587,-1.40215 4.72019,0.93329 6.4476,1.83962 5.95465,3.12424 -0.83613,2.17891 2.33276,2.37924 6.06232,0.38324 z m 11.82626,-14.63656 c 0,-2.58659 -4.2683,-2.96975 -8.8331,-0.79295 -5.7199,2.72764 -5.83357,2.72287 -5.83357,-0.24509 0,-2.49025 3.99603,-6.80239 8.54653,-9.22264 2.48583,-1.32212 2.48243,-1.38873 -0.14257,-2.79358 -1.47901,-0.79155 -5.7724,-1.614 -9.54084,-1.82768 -3.76844,-0.21368 -6.85428,-0.46523 -6.85742,-0.55901 -0.003,-0.0938 0.8943,-2.324496 1.9943,-4.957166 2.27881,-5.45399 2.62665,-14.5434 0.69468,-18.15331 -0.94826,-1.77182 -0.76588,-2.88669 0.66667,-4.0756 2.38321,-1.97789 2.55448,-5.52759 0.37198,-7.71008 -2.53245,-2.53245 -8.80095,-1.86573 -11.93621,1.26954 -2.66243,2.66242 -2.98902,2.70614 -4.52491,0.60568 -1.19897,-1.63969 -2.64965,-2.0143 -5.26164,-1.35874 -3.21315,0.80645 -3.51537,1.35814 -2.7726,5.06098 0.45851,2.28573 1.20737,9.40587 1.66416,15.82254 l 0.83052,11.66666 h 6.54569 c 7.72358,0 7.47163,1.939406 -0.41578,3.200646 -3.04144,0.48635 -6.65474,1.48627 -8.02955,2.22205 -3.29535,1.76361 -3.30701,5.20543 -0.0147,4.34448 2.87076,-0.75072 8.18172,5.14288 8.18172,9.07929 0,3.03666 -4.29048,3.34999 -6.66666,0.48686 -2.2659,-2.73024 -4,-2.512 -4,0.50341 0,5.07064 3.45956,6.15394 11.52925,3.61019 8.07087,-2.54411 17.22931,-2.04022 23.13742,1.27301 3.10298,1.74013 3.5867,1.59412 7,-2.11302 2.01666,-2.19028 3.66666,-4.59169 3.66666,-5.33647 z M 367.99794,93.666684 c -0.003,-9.89337 -3.03593,-18.02184 -7.00196,-18.76129 -3.74364,-0.69799 -4.25718,3.51728 -1.17933,9.68008 1.56752,3.13865 2.85003,8.09091 2.85003,11.00503 0,5.648126 0.71754,7.076176 3.55556,7.076176 1.30609,0 1.77722,-2.38785 1.7757,-8.999996 z m -49.5468,-12.65586 c 0.12187,-3.11072 0.86291,-7.59899 1.64671,-9.97393 1.67228,-5.06706 0.59452,-7.93801 -2.13084,-5.67616 -2.57589,2.13781 -3.70503,8.62636 -2.68492,15.42893 1.12009,7.46927 2.88023,7.59211 3.16905,0.22116 z m 48.21554,-18.07747 c 0,-1.32 0.74498,-3.14499 1.65552,-4.05553 1.31848,-1.31847 1.25061,-1.91151 -0.33334,-2.91291 -1.09386,-0.69157 -3.10785,-1.26658 -4.47553,-1.27781 -2.3202,-0.0191 -2.34587,-0.23532 -0.38347,-3.23034 1.93447,-2.95237 1.92003,-3.28462 -0.17998,-4.14101 -2.43104,-0.99139 -1.60003,-1.56811 5.7168,-3.96745 2.53162,-0.83018 2.49788,-0.96846 -0.66667,-2.73079 -1.83333,-1.02099 -4.68333,-1.8776 -6.33333,-1.90359 -3.9959,-0.0629 -3.80406,-1.91952 0.39606,-3.83323 7.26358,-3.3095 14.45688,-0.48902 12.9964,5.09587 -0.8043,3.07568 2.04314,3.62118 6.48719,1.2428 l 2.70435,-1.44732 -2.8042,-2.98494 c -3.45759,-3.68044 -2.498,-4.78709 4.15093,-4.78709 3.35043,0 5.42143,0.69961 5.92043,2 0.46573,1.21366 2.48199,2 5.12823,2 2.39842,0 5.15009,0.95109 6.11484,2.11354 1.09809,1.32312 3.15372,1.90812 5.4966,1.56426 4.73085,-0.69434 4.75581,0.67711 0.0759,4.16875 l -3.66666,2.73564 5,0.0422 c 5.86924,0.0496 6.20008,1.11665 1.66666,5.37557 -1.83333,1.72233 -3.33333,3.6558 -3.33333,4.29661 0,1.72358 8.67873,-7.11429 10.62103,-10.81579 3.03968,-5.7928 3.95286,-10.88457 2.59338,-14.46026 -0.87201,-2.29357 -0.86809,-3.74388 0.012,-4.28756 1.80639,-1.1167 -7.10248,-8.06634 -10.34086,-8.06634 -3.23478,0 -9.25558,4.73255 -7.83472,6.15835 0.57798,0.58 2.82616,0.38445 4.99594,-0.43455 3.77476,-1.42481 3.91022,-1.35027 3.1379,1.72689 -0.68106,2.71358 -0.31591,3.22055 2.33738,3.24526 2.39876,0.0223 1.72155,0.67495 -2.85545,2.75169 -4.08275,1.85248 -7.38468,2.4629 -10.33333,1.9103 -3.71812,-0.69681 -4.33334,-1.36674 -4.33334,-4.71869 0,-3.64251 -0.23117,-3.81868 -3.42013,-2.60624 -4.77318,1.81476 -10.65379,1.62112 -12.33632,-0.40621 -0.77898,-0.93861 -4.37894,-1.83546 -7.9999,-1.99301 -6.23328,-0.27121 -6.87606,0.0308 -12.08028,5.67675 -3.02318,3.27977 -5.58393,7.02663 -5.69053,8.32634 -0.40008,4.87783 0.47033,11.74099 1.64404,12.96313 0.66905,0.69667 1.22564,2.79667 1.23687,4.66667 0.0243,4.03691 1.0563,5.77101 4.64625,7.80674 3.73085,2.11562 4.66667,1.95385 4.66667,-0.80674 z m 95.225,-0.29167 c 0.85556,-0.85556 -0.2836,-1.31464 -3.29167,-1.32654 -2.53,-0.01 -6.1,-0.40421 -7.93333,-0.87599 l -3.33333,-0.85778 2.63602,2.98211 c 2.04018,2.30803 3.53772,2.80178 6.625,2.18433 2.19394,-0.43879 4.57772,-1.38655 5.29731,-2.10613 z m -118.59086,-5.27241 c 2.02662,-2.23937 1.4474,-2.47252 -10.91364,-4.3929 -7.17961,-1.11541 -13.17121,-1.92402 -13.31468,-1.79691 -0.14345,0.12711 0.23112,1.02711 0.8324,1.99999 0.60127,0.97289 4.01866,2.30262 7.59416,2.95496 3.57552,0.65234 7.04666,2.00776 7.71364,3.01206 1.48031,2.22895 5.20286,1.411 8.08812,-1.7772 z m 137.35254,-1.35535 c 4.78149,-4.9908 3.91139,-5.99936 -2.78196,-3.22462 -6.57223,2.72454 -6.58725,2.74158 -4.5648,5.17849 2.31437,2.78865 2.97024,2.61422 7.34676,-1.95387 z m -171.32002,-9.42593 c 0,-0.69005 -1.2,-1.25464 -2.66666,-1.25464 -2.9414,0 -3.63116,2.09846 -1,3.04229 2.0168,0.72345 3.66666,-0.0809 3.66666,-1.78765 z"
     style="fill:#000000;stroke-width:1.33333337" />
</svg>
