<?xml version="1.0" encoding="UTF-8" standalone="no"?>
<svg
   xmlns:dc="http://purl.org/dc/elements/1.1/"
   xmlns:cc="http://creativecommons.org/ns#"
   xmlns:rdf="http://www.w3.org/1999/02/22-rdf-syntax-ns#"
   xmlns:svg="http://www.w3.org/2000/svg"
   xmlns="http://www.w3.org/2000/svg"
   xmlns:sodipodi="http://sodipodi.sourceforge.net/DTD/sodipodi-0.dtd"
   xmlns:inkscape="http://www.inkscape.org/namespaces/inkscape"
   inkscape:version="1.0 (4035a4fb49, 2020-05-01)"
   sodipodi:docname="Beef Northwest Feeders - Logo - Graphic Only Version.ai.svg"
   viewBox="0 0 1152 973.33331"
   height="973.33331"
   width="1152"
   xml:space="preserve"
   id="svg332"
   version="1.1"><metadata
     id="metadata338"><rdf:RDF><cc:Work
         rdf:about=""><dc:format>image/svg+xml</dc:format><dc:type
           rdf:resource="http://purl.org/dc/dcmitype/StillImage" /><dc:title></dc:title></cc:Work></rdf:RDF></metadata><defs
     id="defs336"><clipPath
       id="clipPath348"
       clipPathUnits="userSpaceOnUse"><path
         id="path346"
         d="M 0,730 H 864 V 0 H 0 Z" /></clipPath></defs><sodipodi:namedview
     inkscape:current-layer="g340"
     inkscape:window-maximized="1"
     inkscape:window-y="27"
     inkscape:window-x="56"
     inkscape:cy="486.66666"
     inkscape:cx="576"
     inkscape:zoom="0.89383564"
     showgrid="false"
     id="namedview334"
     inkscape:window-height="1016"
     inkscape:window-width="1864"
     inkscape:pageshadow="2"
     inkscape:pageopacity="0"
     guidetolerance="10"
     gridtolerance="10"
     objecttolerance="10"
     borderopacity="1"
     bordercolor="#666666"
     pagecolor="#ffffff" /><g
     transform="matrix(1.3333333,0,0,-1.3333333,0,973.33333)"
     inkscape:label="Beef Northwest Feeders - Logo - Graphic Only Version"
     inkscape:groupmode="layer"
     id="g340"><g
       id="g342"><g
         clip-path="url(#clipPath348)"
         id="g344"><g
           transform="translate(831.2461,501.7651)"
           id="g350"><path
             id="path352"
             style="fill:#c7763e;fill-opacity:1;fill-rule:nonzero;stroke:none"
             d="m 0,0 c -2.154,-2.338 -4.669,-4.341 -6.984,-6.535 -8.614,-8.159 -17.233,-16.313 -25.803,-24.518 -2.767,-2.649 -3.958,-2.668 -5.943,0.603 -4.195,6.907 -10.542,9.921 -18.33,10.488 -0.228,0.016 -0.449,0.127 -1.004,0.291 7.234,8.28 15.463,14.498 26.236,16.798 2.597,0.555 5.205,1.061 7.797,1.635 4.968,1.1 9.093,3.401 12.682,7.223 2.108,2.244 5.473,3.322 8.314,4.847 0.363,0.194 1.08,0.071 1.466,-0.171 C 2.062,8.379 2.918,3.167 0,0 m -74.188,-269.259 c -45.613,-84.449 -114.387,-142.35 -204.866,-175.686 7.055,12.03 13.98,23.288 20.37,34.84 19.297,34.884 34.835,71.305 44.328,110.153 4.837,19.799 7.639,39.883 8.252,60.236 0.546,18.084 1.101,36.183 0.897,54.268 -0.226,20.042 -1.207,40.105 -6.183,59.668 -2.382,9.37 -6.004,18.306 -10.46,26.946 -1.088,2.111 -0.462,5.384 0.045,7.993 2.214,11.39 9.29,19.316 18.909,25.14 3.63,2.199 7.732,1.434 11.303,-0.247 7.529,-3.545 14.852,-7.524 22.296,-11.249 5.381,-2.693 10.702,-5.56 16.267,-7.813 7.064,-2.859 14.509,-3.358 21.952,-1.553 8.387,2.035 16.858,3.124 25.476,3.662 22.969,1.436 44.518,8.244 65.226,17.99 2.558,1.203 5.093,2.454 8.169,3.939 6.324,-73.799 -6.931,-143.391 -41.981,-208.287 M -296.351,11.694 c -5.147,-4.347 -10.738,-8.17 -15.884,-12.519 -2.383,-2.013 -4.466,-4.55 -6.147,-7.191 -3.416,-5.37 -6.468,-10.973 -9.706,-16.544 -3.277,4.208 -3.378,9.744 0.362,14.567 3.3,4.256 7.174,8.08 10.93,11.965 3.575,3.697 7.368,7.184 10.987,10.841 4.247,4.29 5.971,9.642 6.54,15.82 -15.364,-3.143 -30.433,-6.362 -46.403,-2.008 1.906,1.351 3.337,2.353 4.755,3.372 6.482,4.659 13.003,9.269 19.431,14.004 5.273,3.885 8.708,9.228 11.749,15.413 -0.975,-0.13 -1.608,-0.185 -2.228,-0.303 -6.176,-1.175 -12.338,-2.424 -18.525,-3.53 -12.307,-2.201 -21.601,2.923 -28.972,12.293 -1.309,1.663 -2.598,2.236 -4.641,2.209 -8.166,-0.107 -16.334,-0.046 -24.501,-0.041 -1.065,0.001 -2.132,0.002 -3.194,0.073 -6.198,0.414 -7.944,2.375 -7.653,8.557 0.292,6.202 0.007,6.994 -5.642,8.792 -12.223,3.892 -24.766,5.326 -37.554,3.89 -3.686,-0.413 -7.036,-1.838 -9.675,-4.574 -3.722,-3.857 -3.445,-8.67 0.722,-12.024 4.142,-3.334 8.536,-6.383 12.462,-9.95 4.41,-4.005 4.414,-6.533 0.321,-10.8 -6.506,-6.78 -14.164,-11.193 -23.965,-10.703 -5.046,0.252 -10.104,0.492 -15.487,0.753 -6.582,-3.969 -13.708,-6.058 -21.496,-5.015 -3.184,-0.942 -6.45,-1.608 -9.805,-1.957 -7.237,-0.751 -19.515,-5.563 -25.953,-10.468 3.859,-1.409 7.536,-2.746 11.209,-4.094 3.633,-1.333 7.262,-2.675 11.17,-4.116 -7.596,-8.651 -14.947,-17.023 -22.642,-25.787 14.301,-2.449 27.998,-4.794 42.566,-7.288 -12.9,-11.029 -17.608,-25.022 -17.543,-41.284 -2.694,0.53 -4.865,0.844 -6.975,1.391 -10.486,2.725 -20.286,6.876 -27.128,15.688 -6.924,8.918 -9.669,18.969 -6.645,30.243 2.326,8.673 0.844,11.486 -7.604,14.982 -2.614,1.082 -3.016,3.333 -3.29,5.618 -0.548,4.578 -1.016,9.169 -1.377,13.766 -0.951,12.114 -2.076,24.228 -0.808,36.393 0.391,3.756 1.336,7.282 3.574,10.433 10.817,15.229 23.005,29.261 35.984,42.697 7.116,7.366 15.524,7.946 24.695,7.296 8.138,-0.577 16.295,-0.876 24.438,-1.397 4.417,-0.282 7.904,1.221 10.786,4.595 2.316,2.711 3.478,2.464 5.483,-0.534 2.312,-3.458 4.507,-7.022 7.113,-10.25 3.769,-4.67 8.7,-6.957 14.895,-6.776 12.321,0.361 24.678,0.099 36.861,2.389 2.59,0.487 5.071,1.534 7.622,2.249 2.775,0.777 5.536,1.651 8.328,2.345 8.877,7.561 22.063,12.979 32.885,15.641 0.063,0.056 0.119,0.136 0.183,0.185 4.055,3.153 8.377,5.96 12.535,8.984 5.236,3.809 11.06,6.074 17.509,6.307 6.361,0.23 12.745,0.265 19.102,0.002 3.611,-0.148 6.113,-2.319 8.393,-5.326 6.993,-9.219 14.804,-17.662 25.468,-22.874 2.049,-1.001 3.969,-2.266 6.355,-3.643 -6.313,-1.778 -12.17,-3.427 -18.206,-5.125 1.179,-1.779 2.283,-3.371 3.313,-5.011 8.263,-13.163 10.753,-27.017 6.089,-42.198 -4.443,-14.467 -10.347,-28.301 -17.058,-41.783 -1.69,-3.395 -5.093,-6.094 -8.108,-8.64 m -12.732,-292.491 c -0.877,-4.208 -2.172,-8.427 -3.969,-12.324 -3.553,-7.708 -8.552,-14.479 -14.653,-20.437 -4.888,-4.772 -10.544,-6.562 -17.048,-4.345 -4.511,1.537 -9.097,3.173 -13.195,5.548 -12.9,7.475 -26.922,10.206 -41.553,10.624 -9.933,0.284 -19.874,0.28 -29.808,0.533 -6.893,0.176 -13.314,-1.527 -19.603,-4.168 -8.821,-3.704 -17.684,-7.309 -26.574,-10.844 -10.848,-4.313 -17.066,-1.073 -23.544,8.249 -4.371,6.289 -6.209,13.485 -6.85,21.004 -0.229,2.684 -0.136,5.517 2.671,7.014 2.94,1.568 6.178,1.707 8.822,-0.362 2.621,-2.052 4.809,-4.667 7.113,-7.106 2.493,-2.639 4.658,-5.641 7.392,-7.991 7.161,-6.154 18.653,-4.174 23.71,3.825 1.371,2.169 1.33,4.464 0.327,6.622 -1.677,3.607 -3.369,7.248 -5.496,10.594 -4.805,7.564 -9.627,15.196 -16.878,20.747 -2.932,2.245 -6.157,4.163 -9.423,5.904 -2.326,1.24 -4.609,0.979 -6.828,-1.015 -2.802,-2.519 -6.325,-3.748 -10.068,-4.162 -3.007,8.101 -1.297,19.532 9.238,23.495 8.257,3.106 16.838,5.505 25.442,7.497 10.271,2.379 20.728,3.943 31.082,5.975 1.878,0.369 3.747,1.099 5.446,1.993 2.327,1.223 3.4,3.28 2.891,6.194 -18.645,4.301 -37.604,3.39 -57.217,2.666 0,6.404 0.241,12.419 -0.043,18.409 -1.053,22.146 -1.917,44.311 -3.565,66.415 -1.149,15.412 -4.67,30.489 -9.545,45.183 -0.746,2.248 -0.248,3.327 1.648,4.424 8.313,4.807 17.273,7.371 26.833,7.645 6.687,0.192 9.912,-2.13 12.349,-8.363 1.326,-3.393 2.51,-6.813 5.635,-9.133 1.712,-1.271 2.69,-1.039 3.286,0.976 0.051,0.17 0.133,0.331 0.175,0.503 3.237,13.344 12.826,19.612 25.306,22.501 8.299,1.92 16.737,2.574 25.039,0.3 11.077,-3.034 18.421,-9.929 20.593,-21.586 0.82,-4.399 -0.517,-8.142 -3.966,-10.927 -2.545,-2.053 -5.366,-3.764 -8.046,-5.655 -4.844,-3.416 -6.11,-6.54 -4.091,-12.138 1.465,-4.059 3.453,-7.97 5.576,-11.74 2.469,-4.385 3.205,-8.975 2.629,-13.851 -1.448,-12.248 -2.583,-24.482 -2.51,-36.868 0.066,-10.933 -4.22,-20.945 -8.934,-30.643 -2.467,-5.073 -5.275,-9.98 -7.92,-14.946 4.84,0 9.678,0.16 14.502,-0.028 18.572,-0.729 36.996,-2.593 54.795,-8.334 3.596,-1.16 7.009,-2.956 10.385,-4.694 1.6,-0.823 2.916,-2.199 4.675,-3.569 -3.495,-1.814 -6.526,-3.432 -9.596,-4.974 -12.978,-6.513 -24.45,-15.081 -34.471,-25.548 -4.982,-5.204 -7.764,-11.23 -5.302,-18.656 1.683,-5.073 4.572,-6.743 9.592,-4.828 6.7,2.555 13.302,5.391 19.841,8.338 5.825,2.626 11.526,5.657 18.001,6.173 3.123,0.249 6.394,0.025 9.456,-0.641 4.924,-1.071 7.274,-4.542 6.246,-9.475 m -41.582,-61.062 c -3.1,-3.268 -7.047,-4.863 -11.23,-5.626 -13.588,-2.479 -27.226,-4.696 -40.848,-6.998 -1.208,-0.204 -2.437,-0.285 -3.718,-0.177 3.713,1.278 7.474,2.438 11.127,3.869 3.042,1.193 5.996,2.632 8.915,4.109 1.247,0.631 2.398,1.534 3.435,2.484 3.191,2.925 3.019,5.95 -0.841,7.828 -3.309,1.609 -6.896,3.069 -10.501,3.559 -10.258,1.397 -20.599,2.178 -30.883,3.401 -2.65,0.316 -5.592,0.79 -7.737,2.201 -4.889,3.214 -8.26,3.596 -14.284,-2.26 -1.552,-1.509 -2.755,-3.5 -3.715,-5.467 -2.878,-5.899 -7.91,-9.42 -13.317,-12.59 -1.449,-0.849 -2.692,-0.646 -3.729,0.713 -1.502,1.967 -3.02,3.922 -4.939,6.412 5.529,4.651 10.818,9.5 16.519,13.803 9.639,7.274 20.165,12.832 32.229,15.027 7.093,1.29 14.152,0.545 21.191,-0.276 15.859,-1.849 30.883,-6.286 44.415,-15.022 2.674,-1.726 5.266,-3.624 7.688,-5.687 3.898,-3.319 3.779,-5.554 0.223,-9.303 m -170.943,126.738 c -1.799,0.351 -3.852,3.012 -4.478,5.026 -1.381,4.44 -2.376,9.108 -2.714,13.742 -0.554,7.594 -0.463,15.234 -0.636,22.855 -0.175,7.745 -1.145,15.355 -3.583,22.751 -2.373,7.201 -6.184,13.425 -11.529,18.861 -7.6,7.728 -9.515,17.011 -6.118,27.232 1.816,5.462 5.335,9.959 11.51,9.828 3.874,-0.082 7.983,-1.646 11.492,-3.487 6.2,-3.25 10.061,-8.958 12.727,-15.24 6.76,-15.923 11.369,-32.409 11.764,-49.849 0.114,-5.046 0.018,-10.096 0.018,-15.143 0.161,-0.004 0.322,-0.009 0.484,-0.013 -0.569,-11.861 -1.164,-23.722 -1.675,-35.585 -0.063,-1.468 -0.626,-2.231 -1.998,-2.157 -5.105,0.27 -10.287,0.212 -15.264,1.179 m -15.864,-100.139 c -0.34,-0.626 -0.693,-1.251 -1.065,-1.875 -1.92,-3.223 -4.418,-6.25 -7.187,-8.781 -3.755,-3.431 -7.151,-3.533 -10.988,-0.19 -3.162,2.756 -6.021,6.051 -8.327,9.559 -6.321,9.619 -10.375,20.342 -14.168,31.141 -6.027,17.161 -11.007,34.634 -14.673,52.446 -0.992,4.815 -1.173,9.876 -1.107,14.816 0.217,16.132 0.614,32.264 1.179,48.387 0.158,4.498 1.183,8.96 1.714,13.45 0.249,2.108 0.466,4.257 0.325,6.362 -0.085,1.268 -0.887,2.487 -1.366,3.729 -1.235,-0.589 -2.922,-0.858 -3.61,-1.831 -1.456,-2.06 -2.942,-4.373 -3.44,-6.784 -1.968,-9.534 -4.026,-19.089 -5.191,-28.74 -2.161,-17.905 -2.169,-35.921 -1.78,-53.946 0.55,-25.464 8.219,-48.969 19.032,-71.667 4.689,-9.842 9.461,-19.644 14.164,-29.48 0.954,-1.997 1.839,-4.034 2.63,-6.101 0.787,-2.056 1.112,-3.75 0.986,-5.168 7.919,-9.85 -12.337,-27.328 -21.056,-30.275 -10.752,-3.634 -19.827,0.788 -27.789,8.009 -2.672,0.696 -4.611,2.884 -5.478,5.527 -7.279,8.053 -13.621,17.598 -19.538,23.782 -8.297,8.671 -16.639,18.229 -19.708,30.165 -3.466,13.485 -1.664,28.415 -0.774,42.572 -4.391,17.041 -7.44,34.404 -9.228,52.072 -2.294,22.665 -1.916,45.352 -1.072,68.053 0.61,16.395 1.276,32.789 1.942,49.182 0.165,4.052 0.426,8.099 0.642,12.148 -0.217,0.114 -0.434,0.228 -0.652,0.342 -1.152,-1.9 -2.757,-3.664 -3.375,-5.723 -2.128,-7.108 -4.378,-14.231 -5.739,-21.505 -4.349,-23.249 -6.023,-46.729 -6.16,-70.402 -0.09,-15.714 -0.845,-31.424 -1.545,-47.134 0.116,-0.579 0.186,-1.193 0.186,-1.856 v -8.779 c 1.533,-6.959 2.249,-16.437 0,-23.147 v -12.152 c 0,-6.709 -6.751,-11.022 -12.81,-8.004 -9.811,4.887 -15.805,13.812 -19.635,23.7 -11.322,11.291 -18.763,28.102 -23.04,41.775 -4.526,14.47 -6.617,29.539 -9.188,44.438 -2.835,16.426 -7.289,32.522 -10.79,48.809 -6.028,28.044 -9.983,56.656 0.376,84.127 0.419,1.112 1.119,1.995 1.985,2.676 0.365,3.446 2.563,6.547 6.664,7.097 4.365,2.354 10.662,1.461 12.623,-4.643 0.677,-2.109 1.629,-3.915 2.764,-5.534 0.178,-0.03 0.355,-0.074 0.533,-0.101 2.32,2.664 5.999,3.86 9.909,1.34 0.965,-0.623 1.983,-1.197 3.019,-1.755 0.611,0.041 1.214,0.068 1.833,0.122 4.242,0.369 6.945,-1.911 8.086,-4.925 7.526,-3.667 14.247,-8.033 15.157,-17.598 0.081,-0.851 0.093,-1.719 0.109,-2.585 0.101,-0.083 0.218,-0.143 0.316,-0.23 0.277,1.674 0.561,3.346 0.834,5.021 0.17,1.044 0.511,2.064 0.816,3.082 1.589,5.316 2.17,6.051 7.787,5.972 9.93,-0.139 19.972,0.166 29.754,-1.221 19.033,-2.699 36.406,1.554 53.124,10.156 5.751,2.959 11.582,5.761 17.649,8.77 0.78,-1.442 1.607,-2.96 2.425,-4.483 6.439,-11.989 13.492,-23.53 23.073,-33.373 6.333,-6.505 7.531,-14.401 5.362,-22.984 -0.5,-1.976 -0.891,-3.994 -1.578,-5.905 -3.166,-8.811 -2.488,-17.522 1.009,-25.98 3.89,-9.411 7.974,-18.753 12.344,-27.95 4.442,-9.344 6.342,-19.119 6.276,-29.372 -0.022,-3.373 0.174,-6.758 -0.045,-10.117 -0.33,-5.057 1.294,-9.363 4.22,-13.376 3.45,-4.729 7.024,-9.402 10.025,-14.411 2.109,-3.521 3.72,-7.452 4.875,-11.399 1.175,-4.012 -0.359,-7.641 -3.268,-10.688 -0.063,-0.065 -0.129,-0.093 -0.192,-0.154 8.214,-19.628 4.943,-51.366 -10.185,-66.503 M -777.003,18.611 c -3.322,1.305 -5.336,3.659 -5.722,7.33 -0.43,4.097 1.332,6.463 5.508,6.839 2.281,0.205 4.595,0.036 6.895,0.036 -10e-4,0.004 -10e-4,0.008 -10e-4,0.012 1.774,0 3.549,0.026 5.323,-0.006 3.68,-0.067 5.939,-2.028 5.864,-5.727 -0.057,-2.79 -0.774,-5.581 -1.369,-8.334 -0.123,-0.57 -0.964,-1.327 -1.548,-1.4 -5.058,-0.623 -10.104,-0.653 -14.95,1.25 M -710.22,7.013 c 6.191,-2.112 12.38,-4.446 18.763,-5.706 5.332,-1.054 10.948,-0.613 16.427,-0.993 14.057,-0.974 28.113,-1.962 41.887,-5.263 10.151,-2.432 20.338,-4.717 30.488,-7.062 -10.111,-15.218 -26.592,-21.042 -42.847,-26.972 0,2.389 0.035,4.582 -0.006,6.774 -0.112,5.869 -2.983,10.493 -8.634,12.066 -5.768,1.605 -11.764,2.505 -17.715,3.307 -8.253,1.112 -16.562,1.798 -24.836,2.757 -6.176,0.717 -11.232,3.53 -15.222,8.345 -4.314,5.206 -7.63,10.972 -10.569,17.728 4.464,-1.832 8.289,-3.625 12.264,-4.981 m 541.555,38.602 c -6.816,-6.709 -7.499,-16.85 -13.463,-24.719 -2.144,7.908 5.962,22.582 13.463,24.719 m 14.758,-79.444 c 0.586,2.648 2.079,3.684 4.644,2.85 2.595,-0.844 5.243,-1.798 7.54,-3.229 9.611,-5.99 19.861,-6.906 30.712,-4.631 3.977,0.834 8.059,1.235 12.114,1.594 1.95,0.173 4.811,0.586 5.286,-1.72 0.329,-1.598 -1.019,-4.11 -2.395,-5.358 -2.113,-1.918 -4.783,-3.339 -7.412,-4.549 -6.395,-2.943 -17.762,-5.241 -26.318,-5.316 -7.876,0.251 -15.774,3.6 -21.535,11.21 -2.013,2.661 -3.412,5.643 -2.636,9.149 M 25.658,5.16 c -0.449,9.622 -2.769,17.478 -9.812,23.916 -1.376,1.257 -2.695,2.58 -4.115,3.784 -16.797,14.233 -35.954,24.64 -55.755,33.898 -8.252,3.859 -17.077,6.508 -25.282,10.452 -5.655,2.719 -11.436,4.693 -17.445,6.228 -1.029,0.263 -2.052,0.562 -3.064,0.883 -9.711,3.079 -19.414,6.188 -29.132,9.241 -3.414,1.072 -6.773,0.727 -10.183,-0.36 -13.583,-4.328 -27.137,-8.777 -40.836,-12.712 -8.322,-2.39 -16.819,-4.398 -25.371,-5.711 -9.892,-1.52 -14.928,1.366 -19.033,10.32 -2.797,6.1 -4.904,12.524 -7.183,18.852 -2.219,6.164 -4.128,12.444 -6.474,18.556 -0.673,1.752 -2.154,3.429 -3.692,4.559 -2.261,1.662 -5.045,2.6 -7.362,4.2 -7.154,4.94 -14.117,10.157 -21.295,15.062 -8.999,6.149 -18.061,12.215 -27.25,18.075 -4.287,2.734 -9.082,3.058 -14.102,1.786 -8.719,-2.212 -17.143,-1.29 -24.777,3.695 -7.645,4.992 -15.073,10.317 -22.673,15.38 -9.067,6.041 -18.082,12.183 -27.385,17.844 -5.124,3.117 -11.046,4.187 -17.118,4.106 -7.019,-0.093 -12.487,-3.692 -17.674,-7.795 -7.713,-6.101 -16.192,-10.712 -25.88,-12.442 -11.244,-2.007 -22.57,-3.64 -33.913,-4.983 -6.765,-0.801 -13.639,-0.639 -20.452,-1.089 -4.112,-0.272 -4.92,-1.449 -3.674,-5.265 1.104,-3.383 0.255,-5.931 -2.243,-8.365 -18.208,-17.743 -37.577,-34.135 -58.096,-49.11 -7.992,-5.833 -16.654,-10.768 -25.153,-15.875 -3.431,-2.063 -7.335,-2.255 -11.352,-1.5 -9.173,1.725 -17.499,5.719 -25.933,9.411 -12.507,5.474 -24.949,11.11 -38.244,14.48 -8.985,2.277 -18.023,3.57 -27.386,2.518 -7.005,-0.788 -12.293,-4.779 -17.922,-8.231 -20.088,-12.32 -39.633,-25.551 -60.844,-35.979 -5.966,-2.933 -11.861,-6.016 -17.701,-9.192 -9.519,-5.177 -18.804,-10.701 -26.814,-18.144 -11.549,-10.73 -12.49,-21.618 -2.67,-33.95 6.926,-8.698 15.592,-15.489 24.603,-21.842 1.675,-1.181 1.884,-2.219 1.541,-4.123 -2.895,-16.046 -6.296,-32.036 -8.299,-48.198 -3.448,-27.819 -3.207,-55.745 -0.339,-83.652 3.141,-30.57 9.695,-60.373 19.91,-89.34 20.746,-58.827 53.603,-109.919 98.471,-153.266 31.352,-30.289 66.779,-54.695 106.256,-73.173 54.136,-25.341 111.154,-37.485 170.893,-36.851 1.775,0 3.548,-0.023 5.322,0.004 25.186,0.384 50.092,3.326 74.661,8.78 76.229,16.92 141.831,53.2 196.737,108.708 32.966,33.327 59.026,71.454 78.299,114.173 22.818,50.584 34.441,103.687 34.522,159.159 0.024,16.02 -1.607,32.043 -2.575,48.06 -0.088,1.444 0.236,2.205 1.399,3.037 4.469,3.202 8.982,6.368 13.222,9.86 13.222,10.886 21.521,23.87 20.667,42.121" /></g><g
           transform="translate(824.3672,506.7959)"
           id="g354"><path
             id="path356"
             style="fill:#000000;fill-opacity:1;fill-rule:nonzero;stroke:none"
             d="m 0,0 c -2.154,-2.338 -4.669,-4.341 -6.983,-6.535 -8.615,-8.159 -17.234,-16.313 -25.804,-24.518 -2.767,-2.649 -3.957,-2.668 -5.943,0.602 -4.194,6.908 -10.541,9.921 -18.33,10.489 -0.227,0.016 -0.449,0.126 -1.003,0.291 7.234,8.279 15.462,14.498 26.235,16.798 2.597,0.555 5.205,1.061 7.798,1.635 4.968,1.1 9.092,3.401 12.681,7.223 2.109,2.244 5.473,3.322 8.315,4.847 0.362,0.194 1.079,0.071 1.465,-0.171 C 2.062,8.379 2.918,3.167 0,0 m -74.188,-269.26 c -45.612,-84.449 -114.386,-142.349 -204.865,-175.685 7.055,12.031 13.979,23.288 20.369,34.84 19.298,34.883 34.836,71.304 44.329,110.153 4.836,19.8 7.638,39.883 8.252,60.235 0.545,18.084 1.1,36.184 0.897,54.269 -0.227,20.042 -1.207,40.104 -6.183,59.667 -2.383,9.371 -6.004,18.307 -10.461,26.947 -1.087,2.111 -0.462,5.384 0.046,7.992 2.213,11.39 9.289,19.317 18.908,25.14 3.631,2.2 7.732,1.435 11.304,-0.246 7.529,-3.545 14.851,-7.524 22.296,-11.25 5.38,-2.692 10.701,-5.559 16.266,-7.812 7.064,-2.859 14.509,-3.358 21.952,-1.553 8.387,2.035 16.858,3.124 25.476,3.662 22.969,1.435 44.519,8.244 65.226,17.989 2.558,1.204 5.094,2.455 8.17,3.94 6.323,-73.799 -6.932,-143.39 -41.982,-208.288 M -296.351,11.693 c -5.147,-4.347 -10.738,-8.17 -15.884,-12.518 -2.383,-2.013 -4.465,-4.55 -6.146,-7.192 -3.417,-5.37 -6.468,-10.972 -9.707,-16.544 -3.277,4.209 -3.377,9.745 0.362,14.567 3.3,4.256 7.174,8.081 10.93,11.965 3.575,3.698 7.369,7.185 10.988,10.842 4.246,4.29 5.97,9.642 6.539,15.819 -15.363,-3.142 -30.433,-6.361 -46.402,-2.007 1.906,1.351 3.336,2.353 4.754,3.372 6.483,4.659 13.003,9.269 19.431,14.004 5.274,3.885 8.708,9.228 11.75,15.413 -0.976,-0.131 -1.608,-0.185 -2.228,-0.304 -6.176,-1.174 -12.339,-2.423 -18.526,-3.53 -12.307,-2.2 -21.6,2.924 -28.972,12.293 -1.309,1.664 -2.597,2.237 -4.64,2.21 -8.166,-0.107 -16.335,-0.046 -24.502,-0.041 -1.064,0.001 -2.132,0.002 -3.193,0.073 -6.199,0.414 -7.945,2.375 -7.654,8.556 0.292,6.203 0.007,6.995 -5.641,8.793 -12.223,3.891 -24.766,5.326 -37.555,3.89 -3.686,-0.414 -7.036,-1.838 -9.675,-4.574 -3.722,-3.858 -3.445,-8.67 0.722,-12.024 4.142,-3.334 8.536,-6.383 12.463,-9.95 4.409,-4.005 4.414,-6.533 0.32,-10.8 -6.506,-6.781 -14.163,-11.193 -23.965,-10.704 -5.046,0.253 -10.104,0.493 -15.486,0.754 -6.582,-3.969 -13.708,-6.058 -21.497,-5.015 -3.184,-0.942 -6.449,-1.608 -9.805,-1.957 -7.237,-0.751 -19.515,-5.563 -25.952,-10.468 3.859,-1.409 7.536,-2.746 11.209,-4.094 3.632,-1.333 7.261,-2.676 11.169,-4.116 -7.595,-8.651 -14.946,-17.023 -22.642,-25.787 14.301,-2.449 27.998,-4.794 42.567,-7.288 -12.901,-11.029 -17.609,-25.022 -17.543,-41.284 -2.694,0.53 -4.865,0.843 -6.975,1.391 -10.487,2.725 -20.287,6.876 -27.129,15.687 -6.924,8.919 -9.669,18.97 -6.645,30.244 2.326,8.673 0.845,11.486 -7.603,14.982 -2.614,1.082 -3.017,3.333 -3.29,5.618 -0.548,4.578 -1.016,9.169 -1.378,13.766 -0.951,12.114 -2.075,24.227 -0.808,36.393 0.391,3.755 1.337,7.282 3.574,10.433 10.817,15.229 23.005,29.261 35.985,42.696 7.116,7.367 15.523,7.947 24.695,7.297 8.138,-0.577 16.295,-0.876 24.438,-1.397 4.417,-0.282 7.903,1.221 10.785,4.594 2.316,2.712 3.479,2.465 5.483,-0.533 2.312,-3.459 4.508,-7.022 7.113,-10.25 3.77,-4.67 8.7,-6.957 14.896,-6.776 12.321,0.361 24.677,0.099 36.861,2.389 2.59,0.486 5.07,1.534 7.622,2.249 2.775,0.777 5.535,1.651 8.327,2.345 8.877,7.561 22.064,12.979 32.885,15.64 0.063,0.057 0.119,0.137 0.183,0.186 4.056,3.153 8.377,5.96 12.535,8.984 5.237,3.809 11.061,6.074 17.509,6.307 6.361,0.23 12.745,0.265 19.103,0.002 3.61,-0.148 6.112,-2.319 8.393,-5.326 6.993,-9.219 14.803,-17.662 25.467,-22.874 2.049,-1.002 3.969,-2.266 6.356,-3.644 -6.314,-1.777 -12.171,-3.426 -18.207,-5.125 1.179,-1.778 2.284,-3.37 3.314,-5.01 8.262,-13.163 10.752,-27.017 6.089,-42.198 -4.444,-14.467 -10.348,-28.301 -17.058,-41.783 -1.691,-3.396 -5.093,-6.094 -8.109,-8.641 m -12.731,-292.491 c -0.877,-4.207 -2.172,-8.426 -3.969,-12.323 -3.554,-7.707 -8.553,-14.48 -14.654,-20.437 -4.887,-4.771 -10.544,-6.561 -17.047,-4.345 -4.512,1.538 -9.098,3.174 -13.195,5.549 -12.9,7.474 -26.923,10.205 -41.554,10.624 -9.933,0.283 -19.874,0.279 -29.808,0.532 -6.893,0.176 -13.314,-1.528 -19.603,-4.168 -8.821,-3.703 -17.684,-7.31 -26.574,-10.844 -10.848,-4.313 -17.066,-1.073 -23.544,8.249 -4.37,6.289 -6.208,13.484 -6.85,21.005 -0.229,2.684 -0.135,5.517 2.672,7.013 2.94,1.568 6.178,1.707 8.822,-0.363 2.62,-2.05 4.809,-4.667 7.112,-7.105 2.493,-2.64 4.658,-5.642 7.392,-7.99 7.161,-6.155 18.654,-4.174 23.71,3.824 1.371,2.17 1.331,4.465 0.327,6.623 -1.676,3.605 -3.368,7.247 -5.495,10.594 -4.806,7.562 -9.628,15.195 -16.878,20.746 -2.933,2.245 -6.157,4.163 -9.423,5.903 -2.327,1.24 -4.61,0.981 -6.828,-1.014 -2.802,-2.519 -6.326,-3.749 -10.069,-4.163 -3.007,8.103 -1.297,19.533 9.238,23.495 8.257,3.107 16.838,5.505 25.442,7.497 10.271,2.379 20.728,3.945 31.082,5.976 1.879,0.368 3.747,1.099 5.446,1.993 2.328,1.224 3.401,3.28 2.891,6.195 -18.645,4.299 -37.603,3.389 -57.217,2.665 0,6.404 0.242,12.419 -0.043,18.409 -1.052,22.146 -1.917,44.31 -3.564,66.415 -1.149,15.412 -4.671,30.489 -9.546,45.183 -0.745,2.248 -0.248,3.327 1.649,4.424 8.312,4.807 17.272,7.371 26.833,7.645 6.687,0.192 9.911,-2.13 12.348,-8.363 1.326,-3.393 2.51,-6.814 5.635,-9.133 1.713,-1.272 2.691,-1.039 3.287,0.976 0.05,0.17 0.132,0.331 0.174,0.503 3.237,13.344 12.826,19.612 25.306,22.5 8.299,1.921 16.738,2.575 25.039,0.301 11.078,-3.034 18.422,-9.929 20.594,-21.586 0.819,-4.399 -0.517,-8.142 -3.967,-10.927 -2.545,-2.054 -5.366,-3.765 -8.046,-5.655 -4.843,-3.416 -6.11,-6.54 -4.09,-12.138 1.464,-4.059 3.453,-7.97 5.575,-11.74 2.469,-4.385 3.205,-8.975 2.629,-13.852 -1.448,-12.248 -2.583,-24.481 -2.509,-36.867 0.065,-10.933 -4.221,-20.946 -8.935,-30.642 -2.466,-5.073 -5.275,-9.981 -7.92,-14.948 4.84,0 9.678,0.162 14.502,-0.028 18.572,-0.727 36.997,-2.592 54.795,-8.333 3.596,-1.16 7.009,-2.956 10.386,-4.693 1.599,-0.823 2.916,-2.199 4.674,-3.571 -3.494,-1.813 -6.526,-3.431 -9.596,-4.972 -12.977,-6.515 -24.45,-15.082 -34.471,-25.549 -4.981,-5.203 -7.764,-11.23 -5.301,-18.656 1.682,-5.073 4.571,-6.743 9.592,-4.828 6.699,2.555 13.301,5.39 19.84,8.338 5.825,2.625 11.526,5.657 18.002,6.172 3.123,0.249 6.393,0.026 9.455,-0.64 4.924,-1.072 7.275,-4.542 6.247,-9.476 m -41.582,-61.061 c -3.1,-3.268 -7.047,-4.863 -11.231,-5.626 -13.588,-2.48 -27.226,-4.697 -40.847,-6.997 -1.209,-0.205 -2.438,-0.287 -3.719,-0.178 3.714,1.278 7.474,2.437 11.127,3.87 3.042,1.192 5.996,2.632 8.915,4.107 1.247,0.631 2.398,1.535 3.435,2.485 3.192,2.926 3.02,5.951 -0.841,7.828 -3.308,1.608 -6.896,3.068 -10.5,3.559 -10.258,1.397 -20.599,2.177 -30.883,3.401 -2.65,0.315 -5.593,0.79 -7.737,2.2 -4.889,3.215 -8.26,3.598 -14.285,-2.26 -1.551,-1.508 -2.755,-3.5 -3.715,-5.467 -2.878,-5.899 -7.91,-9.419 -13.317,-12.588 -1.449,-0.85 -2.691,-0.647 -3.729,0.713 -1.501,1.965 -3.019,3.92 -4.939,6.411 5.529,4.65 10.818,9.5 16.519,13.802 9.639,7.276 20.165,12.832 32.23,15.028 7.092,1.29 14.152,0.545 21.191,-0.276 15.858,-1.848 30.882,-6.287 44.414,-15.022 2.675,-1.727 5.266,-3.624 7.689,-5.687 3.898,-3.318 3.779,-5.553 0.223,-9.303 m -170.943,126.739 c -1.799,0.349 -3.852,3.011 -4.479,5.024 -1.381,4.442 -2.376,9.109 -2.714,13.743 -0.553,7.593 -0.463,15.234 -0.636,22.855 -0.175,7.745 -1.145,15.355 -3.583,22.752 -2.373,7.199 -6.184,13.424 -11.528,18.859 -7.601,7.729 -9.516,17.012 -6.118,27.233 1.816,5.462 5.334,9.959 11.51,9.828 3.873,-0.082 7.982,-1.646 11.492,-3.487 6.199,-3.25 10.06,-8.958 12.727,-15.241 6.759,-15.922 11.368,-32.408 11.763,-49.848 0.115,-5.045 0.018,-10.096 0.018,-15.144 0.161,-0.004 0.322,-0.009 0.484,-0.013 -0.569,-11.861 -1.164,-23.72 -1.674,-35.585 -0.064,-1.466 -0.627,-2.23 -1.998,-2.157 -5.105,0.271 -10.287,0.212 -15.264,1.181 m -15.865,-100.141 c -0.34,-0.626 -0.693,-1.251 -1.064,-1.875 -1.92,-3.222 -4.418,-6.25 -7.188,-8.78 -3.755,-3.432 -7.151,-3.533 -10.987,-0.19 -3.163,2.755 -6.022,6.051 -8.328,9.559 -6.32,9.618 -10.374,20.342 -14.167,31.141 -6.028,17.162 -11.008,34.635 -14.674,52.445 -0.991,4.815 -1.173,9.876 -1.106,14.816 0.216,16.132 0.614,32.264 1.179,48.388 0.158,4.497 1.182,8.96 1.713,13.449 0.25,2.109 0.467,4.257 0.326,6.363 -0.085,1.267 -0.887,2.487 -1.367,3.728 -1.234,-0.588 -2.921,-0.856 -3.61,-1.831 -1.455,-2.058 -2.942,-4.372 -3.439,-6.783 -1.969,-9.534 -4.027,-19.089 -5.192,-28.74 -2.161,-17.906 -2.169,-35.92 -1.78,-53.947 0.55,-25.463 8.22,-48.968 19.032,-71.667 4.689,-9.841 9.461,-19.643 14.164,-29.478 0.955,-1.997 1.839,-4.035 2.631,-6.103 0.787,-2.054 1.111,-3.75 0.985,-5.168 7.92,-9.849 -12.337,-27.328 -21.055,-30.274 -10.752,-3.635 -19.828,0.787 -27.789,8.009 -2.672,0.695 -4.611,2.885 -5.479,5.527 -7.278,8.054 -13.62,17.598 -19.538,23.781 -8.297,8.671 -16.639,18.23 -19.707,30.165 -3.467,13.486 -1.664,28.415 -0.775,42.574 -4.391,17.04 -7.44,34.403 -9.228,52.072 -2.293,22.665 -1.916,45.351 -1.072,68.052 0.61,16.395 1.277,32.789 1.943,49.182 0.164,4.051 0.425,8.099 0.642,12.148 -0.218,0.114 -0.435,0.228 -0.653,0.342 -1.152,-1.9 -2.757,-3.664 -3.374,-5.724 -2.128,-7.107 -4.379,-14.23 -5.739,-21.504 -4.35,-23.25 -6.024,-46.728 -6.161,-70.402 -0.09,-15.714 -0.844,-31.423 -1.544,-47.133 0.115,-0.58 0.185,-1.194 0.185,-1.857 v -8.78 c 1.533,-6.959 2.249,-16.436 0,-23.146 v -12.153 c 0,-6.708 -6.751,-11.021 -12.809,-8.004 -9.811,4.888 -15.806,13.813 -19.635,23.701 -11.323,11.291 -18.764,28.102 -23.04,41.775 -4.526,14.471 -6.618,29.539 -9.189,44.437 -2.834,16.426 -7.289,32.523 -10.79,48.81 -6.027,28.044 -9.983,56.656 0.377,84.127 0.419,1.112 1.119,1.995 1.985,2.676 0.365,3.446 2.563,6.546 6.663,7.097 4.366,2.353 10.663,1.461 12.623,-4.644 0.677,-2.108 1.629,-3.914 2.764,-5.533 0.178,-0.03 0.355,-0.075 0.534,-0.102 2.319,2.664 5.998,3.861 9.908,1.34 0.965,-0.622 1.984,-1.196 3.02,-1.754 0.61,0.041 1.214,0.068 1.832,0.122 4.242,0.369 6.945,-1.911 8.087,-4.925 7.525,-3.667 14.247,-8.033 15.157,-17.598 0.081,-0.852 0.092,-1.719 0.108,-2.585 0.101,-0.083 0.218,-0.143 0.316,-0.231 0.278,1.674 0.561,3.347 0.834,5.022 0.17,1.044 0.512,2.064 0.816,3.082 1.589,5.316 2.171,6.051 7.788,5.972 9.929,-0.139 19.972,0.166 29.754,-1.222 19.033,-2.698 36.406,1.555 53.123,10.157 5.751,2.959 11.582,5.761 17.649,8.77 0.781,-1.442 1.608,-2.96 2.426,-4.483 6.438,-11.989 13.491,-23.53 23.073,-33.373 6.333,-6.505 7.53,-14.401 5.361,-22.984 -0.499,-1.976 -0.891,-3.994 -1.578,-5.906 -3.166,-8.81 -2.488,-17.521 1.009,-25.98 3.89,-9.41 7.974,-18.753 12.345,-27.948 4.441,-9.346 6.341,-19.12 6.275,-29.373 -0.021,-3.373 0.174,-6.758 -0.045,-10.117 -0.33,-5.057 1.294,-9.364 4.221,-13.376 3.449,-4.73 7.024,-9.403 10.024,-14.412 2.109,-3.519 3.72,-7.452 4.875,-11.398 1.175,-4.012 -0.359,-7.642 -3.267,-10.688 -0.063,-0.066 -0.13,-0.093 -0.193,-0.155 8.214,-19.627 4.944,-51.365 -10.185,-66.503 M -777.003,18.611 c -3.321,1.305 -5.336,3.659 -5.721,7.33 -0.43,4.097 1.332,6.463 5.508,6.839 2.28,0.205 4.595,0.036 6.894,0.036 0,0.004 -10e-4,0.008 -10e-4,0.012 1.774,0 3.549,0.026 5.323,-0.006 3.68,-0.067 5.939,-2.028 5.864,-5.727 -0.057,-2.79 -0.773,-5.581 -1.368,-8.334 -0.124,-0.57 -0.965,-1.328 -1.549,-1.4 -5.058,-0.623 -10.104,-0.653 -14.95,1.25 M -710.22,7.013 c 6.191,-2.112 12.381,-4.446 18.764,-5.707 5.332,-1.053 10.947,-0.612 16.426,-0.992 14.058,-0.974 28.113,-1.962 41.887,-5.263 10.152,-2.432 20.339,-4.717 30.488,-7.062 -10.111,-15.218 -26.592,-21.042 -42.846,-26.972 0,2.388 0.035,4.582 -0.007,6.774 -0.112,5.869 -2.982,10.493 -8.634,12.066 -5.768,1.605 -11.764,2.504 -17.715,3.307 -8.252,1.112 -16.561,1.798 -24.835,2.757 -6.177,0.717 -11.232,3.53 -15.222,8.345 -4.315,5.206 -7.631,10.971 -10.569,17.728 4.463,-1.832 8.289,-3.625 12.263,-4.981 m 541.556,38.602 c -6.816,-6.709 -7.5,-16.85 -13.464,-24.719 -2.144,7.908 5.963,22.582 13.464,24.719 m 14.758,-79.444 c 0.585,2.647 2.078,3.683 4.644,2.85 2.594,-0.844 5.242,-1.798 7.539,-3.229 9.611,-5.99 19.862,-6.906 30.712,-4.631 3.977,0.834 8.059,1.235 12.114,1.594 1.95,0.173 4.811,0.586 5.286,-1.72 0.329,-1.598 -1.019,-4.11 -2.394,-5.358 -2.113,-1.918 -4.784,-3.339 -7.412,-4.549 -6.396,-2.943 -17.763,-5.241 -26.319,-5.316 -7.875,0.251 -15.773,3.6 -21.534,11.21 -2.014,2.661 -3.412,5.643 -2.636,9.149 M 25.659,5.16 c -0.45,9.622 -2.769,17.478 -9.813,23.916 -1.376,1.257 -2.694,2.58 -4.115,3.784 -16.797,14.233 -35.954,24.64 -55.754,33.898 -8.253,3.859 -17.077,6.508 -25.282,10.452 -5.656,2.719 -11.436,4.693 -17.446,6.228 -1.029,0.263 -2.051,0.562 -3.064,0.883 -9.711,3.079 -19.413,6.188 -29.132,9.24 -3.414,1.072 -6.772,0.728 -10.182,-0.359 -13.584,-4.328 -27.137,-8.778 -40.836,-12.712 -8.323,-2.39 -16.819,-4.398 -25.371,-5.712 -9.893,-1.519 -14.928,1.366 -19.033,10.321 -2.797,6.1 -4.904,12.524 -7.184,18.852 -2.219,6.164 -4.127,12.444 -6.473,18.556 -0.673,1.752 -2.155,3.429 -3.693,4.559 -2.26,1.661 -5.045,2.6 -7.362,4.2 -7.153,4.94 -14.117,10.157 -21.295,15.062 -8.999,6.149 -18.061,12.215 -27.25,18.075 -4.287,2.734 -9.081,3.058 -14.101,1.785 -8.72,-2.211 -17.144,-1.289 -24.778,3.696 -7.644,4.992 -15.072,10.316 -22.672,15.38 -9.068,6.041 -18.082,12.183 -27.385,17.844 -5.124,3.116 -11.046,4.187 -17.119,4.106 -7.018,-0.093 -12.486,-3.692 -17.674,-7.795 -7.712,-6.101 -16.192,-10.712 -25.879,-12.442 -11.245,-2.007 -22.57,-3.64 -33.914,-4.983 -6.765,-0.801 -13.638,-0.639 -20.451,-1.089 -4.113,-0.272 -4.92,-1.449 -3.674,-5.265 1.103,-3.383 0.255,-5.931 -2.243,-8.365 -18.209,-17.743 -37.577,-34.135 -58.097,-49.11 -7.992,-5.833 -16.654,-10.769 -25.152,-15.876 -3.432,-2.062 -7.336,-2.254 -11.353,-1.499 -9.173,1.725 -17.499,5.718 -25.932,9.41 -12.507,5.475 -24.95,11.111 -38.245,14.481 -8.985,2.277 -18.022,3.57 -27.386,2.517 -7.005,-0.787 -12.293,-4.778 -17.922,-8.23 -20.088,-12.32 -39.633,-25.551 -60.844,-35.979 -5.965,-2.933 -11.861,-6.016 -17.7,-9.192 -9.52,-5.177 -18.804,-10.701 -26.814,-18.144 -11.55,-10.731 -12.491,-21.618 -2.67,-33.95 6.925,-8.698 15.591,-15.49 24.603,-21.843 1.674,-1.18 1.883,-2.218 1.54,-4.122 -2.895,-16.046 -6.295,-32.036 -8.299,-48.198 -3.448,-27.819 -3.206,-55.745 -0.338,-83.652 3.141,-30.57 9.694,-60.373 19.91,-89.339 20.745,-58.828 53.602,-109.919 98.471,-153.268 31.351,-30.289 66.778,-54.694 106.255,-73.173 54.136,-25.34 111.154,-37.484 170.894,-36.849 1.774,0 3.548,-0.025 5.322,0.003 25.185,0.384 50.092,3.327 74.66,8.78 76.229,16.92 141.832,53.199 196.737,108.708 32.966,33.327 59.027,71.453 78.299,114.174 22.819,50.584 34.441,103.685 34.523,159.158 0.024,16.02 -1.607,32.043 -2.576,48.06 -0.087,1.444 0.236,2.205 1.399,3.037 4.469,3.202 8.983,6.368 13.223,9.86 13.221,10.886 21.52,23.869 20.667,42.121" /></g></g></g></g></svg>
